<svg xmlns="http://www.w3.org/2000/svg" viewBox="0 0 32 32"><path fill="currentColor" d="m22.076 14.965-5.397 9.342c-.933 1.616.233 3.637 2.099 3.637h10.794c1.867 0 3.033-2.021 2.099-3.637l-5.397-9.342c-.933-1.615-3.265-1.615-4.198 0M17.675 7.72a3.664 3.664 0 0 0 7.328 0 3.663 3.663 0 1 0-7.328 0M9.03 9.085.39 23.736c-1.094 1.855.243 4.195 2.396 4.195h17.28c2.153 0 3.49-2.341 2.396-4.195l-8.64-14.651c-1.076-1.825-3.716-1.825-4.793 0zM6.725 19.343q1.047.604.442 1.651l-2.458 4.258q-.604 1.047-1.651.442-1.047-.604-.442-1.651l2.458-4.258q.604-1.047 1.651-.442"/></svg>