<svg xmlns="http://www.w3.org/2000/svg" viewBox="0 0 32 32"><path fill="currentColor" d="M9.947 8.216.415 23.266c-1.117 1.764.15 4.066 2.237 4.066h19.083c1.97 0 3.166-2.173 2.112-3.837L14.171 8.218c-.982-1.55-3.243-1.55-4.224 0zm11.155 5.169L14.7 23.494c-1.054 1.665.142 3.837 2.112 3.837h12.535c2.087 0 3.354-2.302 2.237-4.066l-6.258-9.881c-.982-1.55-3.243-1.55-4.224 0zm7.21.306a1.062 1.062 0 0 1-.844-1.705 3.2 3.2 0 0 0 .659-1.958c0-1.785-1.452-3.237-3.237-3.237s-3.237 1.452-3.237 3.237a1.062 1.062 0 0 1-2.124 0c0-2.955 2.405-5.36 5.36-5.36s5.36 2.405 5.36 5.36a5.3 5.3 0 0 1-1.092 3.243 1.06 1.06 0 0 1-.846.419z"/></svg>