<svg xmlns="http://www.w3.org/2000/svg" viewBox="0 0 32 32"><path fill="currentColor" d="m27.052 15.858-1.002 4.287a.644.644 0 0 1-1.208.132l-4.581-9.555a.644.644 0 0 1 .665-.918h-.003l10.514 1.322c.604.076.775.87.258 1.188l-3.205 1.973q1.36.847 1.829 1.367.86.953 1.261 2.173.304.924.304 3.646v2.198q0 3.084-.491 4.032-.644 1.241-1.885 1.884-.948.492-4.033.492H6.411q-3.084 0-4.032-.491-1.242-.644-1.884-1.885-.493-.948-.493-4.032V8.33q0-3.084.491-4.034.644-1.241 1.885-1.884.948-.491 4.032-.491h19.065q3.084 0 4.032.491 1.241.644 1.884 1.885.491.948.491 4.033v1.154h-2.093V8.33q0-2.574-.256-3.069-.338-.652-.989-.99-.495-.256-3.069-.256H6.411q-2.574 0-3.068.257-.652.338-.99.989-.256.495-.256 3.069v15.341q0 2.574.257 3.069.338.651.99.989.06.031.153.059l7.464-7.552a1.67 1.67 0 0 1 1.192-.498c.446 0 .851.174 1.151.458l-.001-.001 2.343 2.213a1.675 1.675 0 0 0 2.204.084l1.547-1.252a1.67 1.67 0 0 1 2.214.091l-.001-.001 6.757 6.465q.11-.031.179-.067.652-.338.989-.99.257-.494.257-3.068v-2.198q0-2.388-.199-2.993-.262-.799-.827-1.425-.338-.374-1.711-1.196zM12.289 9.997c.081.147.2.267.346.346l2.136 1.168a.873.873 0 0 1 0 1.531l-2.135 1.168a.9.9 0 0 0-.347.346l-1.167 2.136a.873.873 0 0 1-1.531 0l-1.167-2.135a.9.9 0 0 0-.343-.344l-.004-.002-2.136-1.169a.873.873 0 0 1-.004-1.528l.004-.002 2.136-1.168a.87.87 0 0 0 .346-.347l1.168-2.135a.872.872 0 0 1 1.528-.004l.002.004z"/></svg>