<svg xmlns="http://www.w3.org/2000/svg" viewBox="0 0 32 32"><path fill="currentColor" d="M14.029 23.223h-.009c-.291 0-.557-.107-.761-.283l.002.001-.002.005-5.609-4.81a1.165 1.165 0 0 1 .754-2.057c.288 0 .552.105.756.278l-.002-.001 4.876 4.084 9.295-8.225a1.164 1.164 0 0 1 1.547 1.74l-.001.001-10.082 8.974c-.202.18-.47.291-.763.293zM8.727 1.6c-.643 0-1.164.521-1.164 1.164v1.745H4.654A4.655 4.655 0 0 0-.001 9.164v16.582a4.655 4.655 0 0 0 4.655 4.655h22.691A4.655 4.655 0 0 0 32 25.746V9.164a4.655 4.655 0 0 0-4.655-4.655h-2.909V2.764a1.164 1.164 0 1 0-2.328 0v1.745H9.89V2.764c0-.643-.521-1.164-1.164-1.164zM7.564 6.836v.873a1.164 1.164 0 1 0 2.328 0v-.873H22.11v.873a1.164 1.164 0 1 0 2.328 0v-.873h2.909a2.327 2.327 0 0 1 2.327 2.327v16.582a2.327 2.327 0 0 1-2.327 2.327H4.656a2.327 2.327 0 0 1-2.327-2.327V9.163a2.327 2.327 0 0 1 2.327-2.327z"/></svg>