<svg xmlns="http://www.w3.org/2000/svg" viewBox="0 0 32 32"><path fill="currentColor" d="M13.395 10.046a1.86 1.86 0 0 1-1.86 1.861v2.232a4.09 4.09 0 0 0 4.092-4.092v-.001zm-1.86 1.862a1.86 1.86 0 0 1-1.86-1.86v-.001H7.443v.001a4.09 4.09 0 0 0 4.092 4.092zm-1.86-1.862a1.86 1.86 0 0 1 1.86-1.86V5.954a4.09 4.09 0 0 0-4.092 4.092zm1.86-1.86a1.86 1.86 0 0 1 1.86 1.86h2.232a4.09 4.09 0 0 0-4.092-4.092zM16 2.232A1.116 1.116 0 0 0 16 0zm16 12.279a1.116 1.116 0 0 0-2.232 0zM16 0h-4.465v2.232H16zm-4.465 0c-3.831 0-6.803.76-8.79 2.745C.76 4.731 0 7.704 0 11.535h2.232c0-3.61.73-5.848 2.092-7.21s3.6-2.092 7.21-2.092zM0 11.535v8.93h2.232v-8.93zm0 8.93c0 3.831.76 6.803 2.745 8.79C4.731 31.24 7.704 32 11.535 32v-2.233c-3.61 0-5.848-.73-7.21-2.092s-2.092-3.6-2.092-7.21zM11.535 32h8.93v-2.233h-8.93zm8.93 0c3.831 0 6.803-.76 8.79-2.745C31.24 27.269 32 24.296 32 20.465h-2.233c0 3.61-.73 5.848-2.092 7.21s-3.6 2.092-7.21 2.092zM32 20.465v-5.954h-2.233v5.954zM22.132 5.746l-1.064.337v.003zm1.697-3.989L23.492.693l-.008.003zm2.5.774-.903.656a1.116 1.116 0 0 0 1.829-.033l.003-.004zm2.501-.774-.353 1.059.013.004.341-1.063zm-5.634 3.651c-.378-1.188.156-2.322.976-2.59L23.483.695c-2.392.776-3.021 3.48-2.415 5.387l2.128-.675zm.97-2.587c.471-.148.995 0 1.26.366l1.805-1.313C26.307.603 24.718.305 23.493.693l.671 2.128zm3.092.329c.223-.336.731-.498 1.218-.334l.705-2.118C27.973.295 26.307.55 25.4 1.911l1.857 1.239zm1.23-.331c.836.268 1.365 1.403.989 2.59l2.128.674c.606-1.91-.026-4.615-2.434-5.389zm.989 2.59c-.292.921-.964 1.674-1.702 2.21-.364.264-.72.459-1.01.584-.33.142-.467.147-.421.147v2.232c.418 0 .897-.153 1.301-.328a7.6 7.6 0 0 0 1.443-.829c.982-.714 2.036-1.824 2.517-3.342zM26.343 8.35c.037 0-.106-.008-.434-.145a5.3 5.3 0 0 1-1.022-.587l.015.01c-.732-.529-1.406-1.281-1.707-2.221l-2.127.679c.489 1.531 1.541 2.639 2.526 3.351.498.36 1 .635 1.448.824.411.174.885.321 1.301.321zM1.491 25.417a1.115 1.115 0 1 0 1.249 1.851l-.004.003zm11.89-3.791.736-.838-.009-.009zm.491.431-.737.839.01.008zm16.283-2.383a1.116 1.116 0 0 0 1.455-1.692l-.001-.001zM2.736 27.271l7.337-4.927-1.244-1.854-7.338 4.927zm7.337-4.927c.769-.515 1.914-.444 2.579.128l1.454-1.693c-1.445-1.243-3.696-1.35-5.278-.288zm2.571.12.491.432 1.473-1.678-.491-.431-1.473 1.676zm.501.44c1.578 1.356 4.072 1.356 5.651 0l-1.454-1.693c-.744.638-2 .638-2.743 0zm5.651 0 6.191-5.313-1.454-1.694-6.191 5.313zm6.191-5.313c.742-.638 2-.638 2.743 0l1.454-1.693c-1.579-1.357-4.072-1.357-5.651 0zm2.743 0 2.425 2.083 1.454-1.693-2.424-2.083z"/></svg>