<svg xmlns="http://www.w3.org/2000/svg" viewBox="0 0 1024 1024"><path fill="currentColor" d="M0 0h1024v1024H0zm512.32 80.768c112.256 86.08 216.512 124.352 373.952 124.864v323.264c0 169.344-208.96 427.456-374.016 427.456-59.584 0-124.992-30.784-187.904-86.528l-42.496 47.936c73.6 65.28 153.088 102.656 230.4 102.656 203.712 0 438.016-289.408 438.016-491.456V141.696H889.6c-145.536 0-237.184-33.664-340.288-113.152l-17.6-13.504L512.192.128l-36.928 28.416C372.352 108.032 280.576 141.696 134.4 141.696H73.728V528.96c0 62.848 25.856 140.992 70.4 218.048-.768-1.28 13.888 24.32 17.344 30.016l3.776 6.016c6.4 9.984 13.44 19.584 24.64 33.408l49.792-40.192c-6.793-8.135-13.549-17.169-19.818-26.556l-.726-1.156-2.944-4.736c.87 2.336-4.646-7.094-10.103-16.563l-6.537-12.301c-39.424-68.096-61.824-135.936-61.824-186.048v-323.2c158.016-.512 262.4-38.784 374.592-124.928M287.872 457.152l-43.712 46.72 238.656 223.744L783.04 349.184l-50.112-39.808L475.84 633.408z"/></svg>