<svg xmlns="http://www.w3.org/2000/svg" viewBox="0 0 32 32"><path fill="currentColor" d="M25.853 28.764v-2.088s.968-.401.996-.899V6.14a.87.87 0 0 0-.871-.859l-.058.002h.003H6.314c-.498 0-.899.857-.899.857H3.23a2.766 2.766 0 0 1 2.766-2.766h19.886a2.683 2.683 0 0 1 2.683 2.683v19.997a2.766 2.766 0 0 1-2.708 2.71zm3.568-3.43v-2.088s.968-.401.996-.899V2.765a.87.87 0 0 0-.871-.858l-.044.001h.002H9.881c-.498 0-.899.857-.899.857H6.811A2.766 2.766 0 0 1 9.577-.001h19.886a2.67 2.67 0 0 1 2.669 2.669v19.955a2.766 2.766 0 0 1-2.708 2.71h-.003zM24.996 9.68v19.637A2.683 2.683 0 0 1 22.313 32H2.676a2.683 2.683 0 0 1-2.683-2.683V9.68a2.683 2.683 0 0 1 2.683-2.683h19.637a2.683 2.683 0 0 1 2.683 2.683M2.759 30.285h19.637a.9.9 0 0 0 .899-.899V16H1.846v13.386c0 .496.402.899.899.899h.015zM1.846 9.749V16h21.435V9.749a.9.9 0 0 0-.899-.899H2.745a.9.9 0 0 0-.899.899m15.987 18.683H6.225a.87.87 0 0 1-.865-.771v-.004a.857.857 0 0 1 .851-.954l.035.001h-.002 11.589a.857.857 0 1 1 0 1.714z"/></svg>