<svg xmlns="http://www.w3.org/2000/svg" viewBox="0 0 32 32"><path fill="currentColor" d="M31.541 13.157a2.43 2.43 0 0 0-1.886-.963h-.759v-.756c0-2.475-.68-4.118-3.967-4.118H14.71l-1.417-3.211a2.4 2.4 0 0 0-2.151-1.436H2.961A2.93 2.93 0 0 0 .09 5.6v20.553a2.67 2.67 0 0 0 .402 2.237l-.006-.008c.441.57 1.121.935 1.887.945h23.33a3.65 3.65 0 0 0 3.3-2.657l.006-.026 2.909-11.334a2.66 2.66 0 0 0-.384-2.162l.006.009zM2.961 4.846h8.191c.109 0 .201.071.233.169v.002l1.417 3.155a2.18 2.18 0 0 0 1.884 1.284h10.168c1.889 0 1.889.34 1.889 1.889v.756H6.342a3.63 3.63 0 0 0-3.319 2.733l-.005.025-.831 3.173V5.602a.794.794 0 0 1 .774-.756m26.937 10.011-2.89 11.221a1.53 1.53 0 0 1-1.297 1.076l-.007.001H2.451a.38.38 0 0 1-.303-.095.5.5 0 0 1 .002-.419l-.001.003v-.189l2.89-11.051c.172-.588.68-1.02 1.298-1.076h23.241c.094 0 .246 0 .302.113a.49.49 0 0 1 .018.419z"/></svg>