<svg xmlns="http://www.w3.org/2000/svg" viewBox="0 0 32 32"><path fill="currentColor" d="M11.65 1.243C11.65.557 12.206 0 12.893 0h6.214c.686 0 1.243.556 1.243 1.243v7.301h4.971a1.242 1.242 0 0 1 .878 2.122l-9.32 9.32c-.225.225-.535.364-.879.364s-.654-.139-.879-.364l-9.32-9.32a1.243 1.243 0 0 1 .878-2.122h4.971zm2.486 1.242v7.301c0 .686-.556 1.243-1.243 1.243H9.679l6.32 6.32 6.32-6.32h-3.214a1.243 1.243 0 0 1-1.243-1.243V2.485h-3.728zM.777 25.32c0-.686.556-1.243 1.243-1.243h27.961a1.243 1.243 0 1 1 0 2.486H2.02A1.243 1.243 0 0 1 .777 25.32m7.456 4.195a1.243 1.243 0 1 0 0 2.486h15.534a1.243 1.243 0 1 0 0-2.486z"/></svg>