<svg xmlns="http://www.w3.org/2000/svg" viewBox="0 0 32 32"><path fill="currentColor" d="M31.951 15.163c-.025-.542-.492-.96-1.034-.935s-.96.492-.935 1.034c.025.246.025.492.025.738 0 7.729-6.302 14.031-14.031 14.031S1.945 23.729 1.945 16 8.247 1.969 15.976 1.969c2.043 0 4.037.443 5.883 1.28.222.098.418.197.64.32.492.246 1.083.074 1.329-.418s.074-1.083-.418-1.329c-.246-.123-.468-.246-.714-.345A15.7 15.7 0 0 0 16.001 0c-8.837 0-16 7.188-16 16s7.188 16 16 16 16-7.188 16-16a9 9 0 0 1-.049-.837zm-2.708-3.791a1.058 1.058 0 1 0 2.116 0 1.058 1.058 0 1 0-2.116 0m-1.6-3.446a1.058 1.058 0 1 0 2.116 0 1.058 1.058 0 1 0-2.116 0m-2.56-2.978a1.058 1.058 0 1 0 2.116 0 1.058 1.058 0 1 0-2.116 0M13.514 23.902a1.05 1.05 0 0 0 1.058-1.058V9.182c0-.418-.271-.812-.665-.985s-.862-.074-1.157.222l-4.529 4.529c-.418.418-.418 1.083 0 1.502s1.083.418 1.502 0l2.732-2.732V22.82c0 .615.468 1.083 1.058 1.083zm4.701-15.804a1.05 1.05 0 0 0-1.058 1.058v13.662c0 .418.271.812.665.985.123.049.271.074.418.074.271 0 .542-.098.763-.32l4.726-4.726c.418-.418.418-1.083 0-1.502s-1.083-.418-1.502 0l-2.929 2.929V9.156a1.104 1.104 0 0 0-1.083-1.058"/></svg>