<svg xmlns="http://www.w3.org/2000/svg" viewBox="0 0 32 32"><path fill="currentColor" d="M24.177 15.32c4.543-.32 7.811 5.403 7.822 8.387.004 1.06-.008.958-.015 2.186-.055 2.878-2.541 5.44-5.497 5.496q-10.48.066-20.959 0C2.651 31.334.089 28.898.031 25.893q-.063-9.903 0-19.808C.085 3.222 2.522.645 5.528.588c3.714-.024 11.955 0 11.955 0l-.056 2.066s-8.564.038-11.824.038c-1.803.011-3.432 1.543-3.468 3.42a1549 1549 0 0 0 0 19.754c.014.566.164 1.094.42 1.557l-.009-.017c1.428-1.628 5.513-6.842 7.832-6.942 2.02-.087 3.723 2.348 5.88 2.694 1.717.276 4.203-7.576 7.918-7.837zm5.703 10.546s.022-2.105.019-2.159c-.156-2.636-3.135-6.308-5.248-6.203-3.215.159-3.991 7.607-8.391 7.767-3.134.114-4.192-2.734-5.88-2.648-1.579.08-5.221 4.835-6.249 6.171-.015.238.876.576 1.426.492q10.452.066 20.905 0c1.782-.034 3.384-1.549 3.42-3.42zM6.4 11.333c0 2.194 1.785 3.979 3.979 3.979s3.979-1.785 3.979-3.979-1.785-3.979-3.979-3.979A3.984 3.984 0 0 0 6.4 11.333m5.778 0a1.81 1.81 0 0 1-1.8 1.799 1.81 1.81 0 0 1-1.799-1.799 1.81 1.81 0 0 1 1.799-1.799 1.81 1.81 0 0 1 1.8 1.799M26.69 1.622a1.043 1.043 0 0 0-2.086 0v10.619a1.043 1.043 0 0 0 2.086 0zm-6.353 4.266a1.043 1.043 0 0 0 0 2.086h10.619a1.043 1.043 0 0 0 0-2.086z"/></svg>