<svg xmlns="http://www.w3.org/2000/svg" viewBox="0 0 32 32"><path fill="currentColor" d="M25.299 27.203H8.495c-3.055-.145-5.892-1.891-7.347-4.583a9.27 9.27 0 0 1 .218-9.311 5.6 5.6 0 0 1 1.891-2.037 9.26 9.26 0 0 1 6.256-1.891c1.891-2.983 5.165-4.728 8.657-4.728 5.31 0 9.675 4.001 10.257 9.311 3.419 1.964 4.583 6.402 2.619 9.82-1.164 1.964-3.201 3.273-5.456 3.564-.145-.145-.218-.145-.291-.145M8.786 25.02h16.44a4.984 4.984 0 0 0 4.583-5.383c-.145-1.673-1.091-3.201-2.546-4.001a1.7 1.7 0 0 1-.946-1.528 8.085 8.085 0 0 0-8.075-7.42c-2.837 0-5.456 1.455-6.911 3.855a1.84 1.84 0 0 1-1.746.873c-1.819-.073-3.564.436-5.019 1.528-.509.364-.946.8-1.237 1.382a7.1 7.1 0 0 0-.218 7.202c1.091 2.11 3.273 3.419 5.674 3.492zm6.111-4.073c-.509 0-.946-.218-1.309-.509l-2.764-2.764c-.436-.436-.436-1.091 0-1.528s1.091-.436 1.528 0l2.473 2.473 4.656-4.656c.436-.436 1.091-.436 1.528 0s.436 1.091 0 1.528l-4.947 4.947c-.218.364-.655.509-1.164.509z"/></svg>