<svg xmlns="http://www.w3.org/2000/svg" viewBox="0 0 32 32"><path fill="currentColor" d="M26.917 21.962a5.03 5.03 0 0 0-4.875 3.851l-.007.034H10.459a4.24 4.24 0 0 1 0-8.478h.82c.53 2.243 2.516 3.887 4.885 3.887s4.355-1.644 4.878-3.853l.007-.034h.142a6.871 6.871 0 0 0 .01-13.736H9.922C9.296 1.517 7.37-.001 5.089-.001a5.031 5.031 0 1 0 4.948 5.945l.005-.031h11.149a4.593 4.593 0 0 1 .008 9.178h-.15c-.53-2.243-2.516-3.887-4.885-3.887s-4.355 1.644-4.878 3.853l-.007.034h-.82a6.517 6.517 0 0 0 0 13.034h11.576c.537 2.237 2.521 3.874 4.887 3.874a5.019 5.019 0 1 0 0-10.038h-.005zM5.08 7.782a2.745 2.745 0 1 1 2.746-2.746v.006a2.745 2.745 0 0 1-2.746 2.74m11.11 5.708a2.74 2.74 0 1 1-2.762 2.74 2.745 2.745 0 0 1 2.746-2.74h.018zm10.75 16.237a2.745 2.745 0 1 1 2.746-2.746v.006a2.745 2.745 0 0 1-2.746 2.74h-.024.001z"/></svg>