<svg xmlns="http://www.w3.org/2000/svg" viewBox="0 0 32 32"><path fill="currentColor" d="M23.575.941a3.68 3.68 0 0 1 3.202 1.892l4.567 8.12c.413.719.657 1.581.657 2.499v.014-.001c0 2.776-2.204 5.026-4.922 5.026H4.924c-2.718.002-4.922-2.248-4.922-5.024 0-.975.273-1.888.745-2.658l4.582-8.002A3.68 3.68 0 0 1 8.515.94h15.06zm0 2.513H8.514a1.23 1.23 0 0 0-1.051.6l-.003.006-.008.017-4.619 8.062a2.5 2.5 0 0 0-.371 1.327c0 1.374 1.079 2.492 2.421 2.513h22.195c1.359 0 2.46-1.124 2.46-2.513a2.5 2.5 0 0 0-.312-1.227l-.015-.026-2.101-3.708h.019l-2.488-4.42a1.23 1.23 0 0 0-1.047-.631h-.02zM8.616 12.211c.681.006 1.231.56 1.231 1.242v.014-.001.015c0 .682-.55 1.236-1.231 1.242H6.153a1.24 1.24 0 0 1-1.231-1.242v-.016.001-.013c0-.682.55-1.236 1.231-1.242zm0 12.565c.681.006 1.231.56 1.231 1.242v.016-.001.013c0 .682-.55 1.236-1.231 1.242H6.153a1.24 1.24 0 0 1-1.231-1.242v-.014.001-.015c0-.682.55-1.236 1.231-1.242zm18.462-3.769c2.718 0 4.922 2.249 4.922 5.026s-2.204 5.026-4.922 5.026H4.923c-2.718 0-4.922-2.249-4.922-5.026s2.204-5.026 4.922-5.026zm0 2.513H4.923c-1.359 0-2.46 1.124-2.46 2.513 0 1.374 1.08 2.49 2.421 2.513h22.195c1.359 0 2.46-1.126 2.46-2.513 0-1.374-1.08-2.49-2.421-2.513zm0-15.078C29.796 8.44 32 10.691 32 13.466s-2.204 5.026-4.922 5.026H4.923c-2.718.002-4.922-2.249-4.922-5.024s2.204-5.026 4.922-5.026zm0 2.511H4.923c-1.359 0-2.46 1.126-2.46 2.513 0 1.374 1.08 2.492 2.421 2.513h22.195c1.359 0 2.46-1.124 2.46-2.513 0-1.374-1.08-2.49-2.421-2.511h-.04z"/></svg>