<svg xmlns="http://www.w3.org/2000/svg" viewBox="0 0 32 32"><path fill="currentColor" d="M28.584 31.985H3.386a3.393 3.393 0 0 1-3.387-3.386V3.401A3.393 3.393 0 0 1 3.385.014h17.927c.93 0 1.773.378 2.381.988l7.317 7.282c.611.609.988 1.451.988 2.382v.012-.001 17.916a3.39 3.39 0 0 1-3.392 3.392h-.024.001zM3.387 1.748c-.913 0-1.653.74-1.653 1.653v25.198c0 .913.74 1.653 1.653 1.653h25.198c.913 0 1.653-.74 1.653-1.653V10.683a1.66 1.66 0 0 0-.48-1.156l-7.282-7.299a1.63 1.63 0 0 0-1.156-.48zm21.002 30.237H7.583a.867.867 0 0 1-.867-.867V20.201a3.393 3.393 0 0 1 3.392-3.387h11.755a3.39 3.39 0 0 1 3.369 3.386v10.917a.867.867 0 0 1-.843.867h-.001zM8.472 30.252h15.026v-10.05a1.66 1.66 0 0 0-1.659-1.653H10.107a1.66 1.66 0 0 0-1.636 1.653zm11.715-20.106H10.108a3.39 3.39 0 0 1-3.369-3.392V.882a.867.867 0 1 1 1.734 0v5.872a1.66 1.66 0 0 0 1.659 1.653h10.056a.867.867 0 1 1 0 1.734zM9.64 29.888v-7.981q0-1.156 1.156-1.156h10.478q1.156 0 1.156 1.156v7.981q0 1.156-1.156 1.156H10.796q-1.156 0-1.156-1.156"/></svg>