<svg xmlns="http://www.w3.org/2000/svg" viewBox="0 0 32 32"><path fill="currentColor" d="M30.963 4.372a.83.83 0 0 1-.831.831h-4.987a.83.83 0 1 1 0-1.662h4.987c.463 0 .831.372.831.831m-22.6 12.74c-2.292 0-4.156-1.864-4.156-4.156S6.071 8.8 8.363 8.8s4.156 1.864 4.156 4.156-1.864 4.156-4.156 4.156m0-6.649c-1.373 0-2.494 1.12-2.494 2.493s1.12 2.494 2.494 2.494 2.494-1.12 2.494-2.494-1.12-2.494-2.494-2.494zm9.333 21.076a.83.83 0 0 1-.586-.245l-7.932-7.928a1.063 1.063 0 0 0-1.468 0l-5.727 5.727a.83.83 0 1 1-1.175-1.175l5.727-5.727c1.021-1.021 2.798-1.021 3.819 0l7.932 7.932a.83.83 0 0 1-.59 1.416m-5.783-6.167a.83.83 0 0 1-.586-.245.83.83 0 0 1 0-1.175l9.828-9.828a3.15 3.15 0 0 1 4.449 0l5.711 5.715a.83.83 0 1 1-1.175 1.175l-5.711-5.715a1.49 1.49 0 0 0-2.102 0l-9.824 9.828a.83.83 0 0 1-.59.245M27.971 8.393a.83.83 0 0 1-.586-.245.83.83 0 0 1 0-1.175l2.604-2.604-2.585-2.585A.83.83 0 1 1 28.579.609l3.174 3.174a.84.84 0 0 1 .245.586.82.82 0 0 1-.245.586l-3.194 3.194a.83.83 0 0 1-.59.245zm-.542 23.415H4.156A4.16 4.16 0 0 1 0 27.652V7.704a4.16 4.16 0 0 1 4.156-4.156h17.106a.83.83 0 1 1 0 1.662H4.156a2.5 2.5 0 0 0-2.494 2.494v19.948a2.5 2.5 0 0 0 2.494 2.494h23.273a2.5 2.5 0 0 0 2.494-2.494V10.237a.83.83 0 1 1 1.662 0v17.415a4.16 4.16 0 0 1-4.156 4.156M3.289 5.179a.83.83 0 0 1-.831-.831A4.16 4.16 0 0 1 6.614.192h17.747a.83.83 0 1 1 0 1.662H6.614A2.5 2.5 0 0 0 4.12 4.348a.83.83 0 0 1-.831.831"/></svg>