<svg xmlns="http://www.w3.org/2000/svg" viewBox="0 0 32 32"><path fill="currentColor" d="M31.976 5.513V4.478a2.264 2.264 0 0 0-2.263-2.264H2.282A2.276 2.276 0 0 0 .006 4.491v1.59Q0 6.186 0 6.294v19.558a3.94 3.94 0 0 0 3.934 3.934h24.001A4.07 4.07 0 0 0 32 25.72V5.924a4 4 0 0 0-.024-.411M13.717 4a1.071 1.071 0 1 1 0 2.142 1.071 1.071 0 0 1 0-2.142M9.145 4a1.071 1.071 0 1 1 0 2.142 1.071 1.071 0 0 1 0-2.142M4.573 4a1.071 1.071 0 1 1 0 2.142 1.071 1.071 0 0 1 0-2.142m25.141 21.72c0 .981-.798 1.78-1.779 1.78H3.934a1.65 1.65 0 0 1-1.648-1.649V7.668h27.429zM10.964 24c-.293 0-.585-.112-.809-.335L4.798 18.3a1.144 1.144 0 0 1 0-1.615l5.341-5.349a1.142 1.142 0 1 1 1.617 1.615l-4.535 4.541 4.551 4.558a1.143 1.143 0 0 1-.808 1.95m10.214 0a1.141 1.141 0 0 1-.809-1.95l4.551-4.558-4.534-4.541a1.143 1.143 0 0 1 1.617-1.615l5.341 5.349a1.144 1.144 0 0 1 0 1.615l-5.357 5.365a1.14 1.14 0 0 1-.809.335m-6.928.072q-.19 0-.381-.066a1.143 1.143 0 0 1-.697-1.458l3.786-10.714a1.143 1.143 0 0 1 2.155.761l-3.786 10.714a1.14 1.14 0 0 1-1.078.762z"/></svg>