<svg xmlns="http://www.w3.org/2000/svg" viewBox="0 0 32 32"><path fill="currentColor" d="M14.427 21.541a6.3 6.3 0 0 0 3.186-.01l-.044.01v6.651l7.056-4.073 3.141 1.815-9.413 5.436c-.675.396-1.488.63-2.354.63s-1.679-.234-2.377-.642l.022.012-10.146-5.856 3.141-1.815 7.788 4.496v-6.656zM19.141 0l9.463 5.463a4.71 4.71 0 0 1 2.354 4.078v10.981l-3.141-1.813v-7.655l-5.643 3.257a6.25 6.25 0 0 0-1.345-2.867l.008.01 5.931-3.424-7.63-4.407V0zm-6.282 0v3.623L5.332 7.97l5.897 3.403a6.2 6.2 0 0 0-1.385 2.83l-5.662-3.269v6.933L1.041 19.68V9.538c0-1.734.937-3.248 2.332-4.066l.022-.012 9.463-5.461zM16 12.316a3.14 3.14 0 1 1 0 6.282 3.14 3.14 0 1 1 0-6.282"/></svg>