<svg xmlns="http://www.w3.org/2000/svg" viewBox="0 0 32 32"><path fill="currentColor" d="M22.283 28.296a13.7 13.7 0 0 1-5.978 1.507c-7.643.164-14.01-5.978-14.107-13.621C2.102 8.5 8.276 2.239 15.926 2.197 23.547 2.158 29.804 8.375 29.804 16a13.75 13.75 0 0 1-3.275 8.928 1.08 1.08 0 0 0 .057 1.45l.018.021a1.085 1.085 0 0 0 1.607-.057c3.086-3.643 4.575-8.685 3.371-14.043A15.72 15.72 0 0 0 19.664.406C9.229-1.912-.007 5.97 0 16.009c.004 8.835 7.246 16.032 16.078 15.989a15.94 15.94 0 0 0 7.211-1.754 1.096 1.096 0 1 0-1.007-1.95zm.228-13.432h-4.303a1.074 1.074 0 0 1-1.071-1.071V9.561a1.137 1.137 0 0 0-2.272 0v4.232c0 .589-.482 1.071-1.071 1.071H9.562a1.137 1.137 0 0 0 0 2.272h4.232c.589 0 1.071.482 1.071 1.071v4.303c0 .586.475 1.064 1.064 1.064.668 0 1.207-.539 1.207-1.207v-4.161c0-.589.482-1.071 1.071-1.071h4.303c.586 0 1.064-.457 1.064-1.064-.004-.668-.4-1.207-1.064-1.207z"/></svg>