<svg xmlns="http://www.w3.org/2000/svg" viewBox="0 0 32 32"><path fill="currentColor" d="M0 19.342c0-4.547 3.35-8.345 7.746-8.94 1.005-3.938 4.548-6.765 8.669-6.765 4.18 0 7.761 2.909 8.708 6.927 3.988.953 6.877 4.562 6.877 8.778 0 4.983-4.008 9.022-8.951 9.022H8.114l-.012-.04C3.544 27.891 0 24.024 0 19.342m23.049 7.689c4.217 0 7.635-3.444 7.635-7.689 0-3.72-2.644-6.889-6.235-7.559l-.444-.083-.083-.451c-.665-3.615-3.811-6.279-7.508-6.279-3.658 0-6.781 2.609-7.487 6.175l-.098.495-.495.039c-3.951.318-7.019 3.649-7.019 7.663 0 4.122 3.229 7.508 7.305 7.681l.164.007h14.264zM9.931 15.273h12.865c1.869 0 3.385 1.462 3.385 3.265v.016c0 1.804-1.516 3.265-3.385 3.265H9.931c-1.869 0-3.385-1.462-3.385-3.265v-.016c0-1.804 1.516-3.265 3.385-3.265m0 .816c-1.402 0-2.539 1.096-2.539 2.449v.016c0 1.353 1.137 2.449 2.539 2.449h12.865c1.402 0 2.539-1.096 2.539-2.449v-.016c0-1.353-1.137-2.449-2.539-2.449zm-1.204 2.82v-.727h10.182v.727zM8 24v-.727h17.455V24zm14.545-5.091a.727.727 0 0 1 0-1.454.727.727 0 0 1 0 1.454"/></svg>