<svg xmlns="http://www.w3.org/2000/svg" viewBox="0 0 32 32"><path fill="currentColor" d="M30.744 9.772a15.9 15.9 0 0 0-3.43-5.084 16 16 0 0 0-5.084-3.43C20.258.422 18.164 0 16.002 0s-4.255.422-6.228 1.258a15.9 15.9 0 0 0-5.084 3.43 16 16 0 0 0-3.43 5.084C.424 11.744.002 13.842.002 16s.422 4.255 1.258 6.228a15.9 15.9 0 0 0 3.43 5.084 16 16 0 0 0 5.084 3.43c1.972.836 4.07 1.258 6.228 1.258s4.255-.422 6.228-1.258a16 16 0 0 0 3.566-2.09l-.004-.004a1.438 1.438 0 0 0-1.786-2.258l-.007-.011a13.05 13.05 0 0 1-8 2.73C8.771 29.109 2.89 23.228 2.89 16S8.775 2.891 16.003 2.891 29.112 8.772 29.112 16c0 2.365-.629 4.584-1.729 6.503l.014.007a1.438 1.438 0 0 0 1.19 2.248c.572 0 1.065-.332 1.297-.815l.007.004q.476-.83.85-1.719A15.9 15.9 0 0 0 31.999 16a15.8 15.8 0 0 0-1.254-6.228zm-8.225 10.387H15.87l-2.04 2.362h8.69zm-1.09-7.686c.268-.272.268-.84 0-1.118l-1.622-1.672c-.275-.272-.818-.272-1.086 0l-1.633 1.672 2.719 2.791zM9.481 19.73v2.791H12.2l7.057-7.814-2.715-2.783z"/></svg>