<svg xmlns="http://www.w3.org/2000/svg" viewBox="0 0 32 32"><path fill="currentColor" d="M10.865 15.017H3.751a3.756 3.756 0 0 1-3.75-3.75V4.153a3.756 3.756 0 0 1 3.75-3.75h7.114a3.756 3.756 0 0 1 3.75 3.75v7.114a3.756 3.756 0 0 1-3.75 3.75M3.75 2.903c-.688 0-1.25.563-1.25 1.25v7.114c0 .688.563 1.25 1.25 1.25h7.114c.688 0 1.25-.563 1.25-1.25V4.153c0-.688-.563-1.25-1.25-1.25zm7.115 29.081H3.751a3.756 3.756 0 0 1-3.75-3.75V21.12a3.756 3.756 0 0 1 3.75-3.75h7.114a3.756 3.756 0 0 1 3.75 3.75v7.114a3.756 3.756 0 0 1-3.75 3.75M3.75 19.87c-.688 0-1.25.563-1.25 1.25v7.114c0 .688.563 1.25 1.25 1.25h7.114c.688 0 1.25-.563 1.25-1.25V21.12c0-.688-.563-1.25-1.25-1.25zm24.113 12.114h-7.114a3.756 3.756 0 0 1-3.75-3.75V21.12a3.756 3.756 0 0 1 3.75-3.75h7.114a3.756 3.756 0 0 1 3.75 3.75v7.114a3.756 3.756 0 0 1-3.75 3.75M20.749 19.87c-.688 0-1.25.563-1.25 1.25v7.114c0 .688.563 1.25 1.25 1.25h7.114c.688 0 1.25-.563 1.25-1.25V21.12c0-.688-.563-1.25-1.25-1.25zm3.75-4.853c-4.137 0-7.501-3.364-7.501-7.501S20.362.015 24.499.015 32 3.379 32 7.516s-3.364 7.501-7.501 7.501m0-12.505c-2.758 0-5.001 2.242-5.001 5.001s2.242 5.001 5.001 5.001S29.5 10.272 29.5 7.513s-2.242-5.001-5.001-5.001"/></svg>