<svg xmlns="http://www.w3.org/2000/svg" viewBox="0 0 32 32"><path fill="currentColor" d="M30.029 6.616H10.731l-.092.002a1.874 1.874 0 1 1 .097-3.746h-.005 19.302l.092-.002a1.874 1.874 0 1 1-.097 3.746h.005zm0 11.192H10.731a1.87 1.87 0 0 1 0-3.738h19.302a1.87 1.87 0 0 1 0 3.738zm0 11.201H10.731l-.092.002a1.874 1.874 0 1 1 .097-3.746h-.005 19.302l.092-.002a1.874 1.874 0 1 1-.097 3.746h.005zM0 4.792v.009a1.979 1.979 0 1 0 1.979-1.979h-.014C.88 2.822 0 3.702 0 4.787zm0 11.197v.014a1.979 1.979 0 1 0 1.979-1.979h-.01A1.97 1.97 0 0 0 0 15.989m0 11.196v.014a1.979 1.979 0 1 0 1.979-1.979h-.01A1.97 1.97 0 0 0 0 27.185m0 0"/></svg>