<svg xmlns="http://www.w3.org/2000/svg" viewBox="0 0 32 32"><path fill="currentColor" d="M27.429 9.143H4.572a2.29 2.29 0 0 0-2.286 2.286v18.286a2.29 2.29 0 0 0 2.286 2.286h22.857a2.29 2.29 0 0 0 2.286-2.286V11.429a2.29 2.29 0 0 0-2.286-2.286m0 2.286v12.099l-4.134-4.135c-.414-.414-.985-.669-1.616-.669s-1.202.256-1.616.669l-6.384 6.384L11.902 24c-.414-.413-.985-.668-1.616-.668s-1.202.255-1.616.668l-4.098 4.098v-16.67zM9.741 29.714H6.187l4.098-4.098 1.777 1.777zm17.688 0H12.974l8.705-8.705 5.75 5.75zm-22.858-24c0-.631.512-1.143 1.143-1.143h20.571a1.143 1.143 0 0 1 0 2.286H5.714a1.143 1.143 0 0 1-1.143-1.143m2.286-4.571C6.857.512 7.369 0 8 0h16a1.143 1.143 0 0 1 0 2.286H8a1.143 1.143 0 0 1-1.143-1.143m3.429 19.428a3.429 3.429 0 1 0-3.429-3.429 3.433 3.433 0 0 0 3.428 3.429zm0-4.571a1.143 1.143 0 1 1-1.143 1.143c0-.631.512-1.143 1.143-1.143"/></svg>