<svg xmlns="http://www.w3.org/2000/svg" viewBox="0 0 32 32"><path fill="currentColor" d="M7.126 26.379A13.2 13.2 0 0 0 16 29.793a13.18 13.18 0 0 0 8.411-3.014l.461-.398 1.479 1.638a15.4 15.4 0 0 1-10.352 3.982 15.4 15.4 0 0 1-9.848-3.545l-.506-.438 1.48-1.637zm21.297-4.862a2.207 2.207 0 1 1 0 4.414 2.207 2.207 0 0 1 0-4.414m-24.846 0a2.207 2.207 0 1 1 0 4.414 2.207 2.207 0 0 1 0-4.414M15.811 8.505c.244 0 .457.132.572.329l.002.003.948 1.648 7.495.001c.313 0 .576.218.645.51l.017.152v11.261a.66.66 0 0 1-.662.662H7.614a.66.66 0 0 1-.662-.662V9.168c0-.366.296-.662.662-.662zm-.383 1.324H8.275v11.917h15.887v-9.938l-7.212.001a.66.66 0 0 1-.491-.218l-.001-.001-.082-.113zm-.06 3.425 1.755 5.065 1.505-3.244a.663.663 0 0 1 1.115-.141l.093.156.993 2.289 2.381.002v1.324h-2.812a.66.66 0 0 1-.606-.394l-.002-.004-.581-1.336-1.571 3.395a.663.663 0 0 1-1.151.092l-.075-.153-1.782-5.133-1.582 3.167a.66.66 0 0 1-.441.348l-.004.001-.147.017h-2.69v-1.324l2.28-.002 2.105-4.205a.662.662 0 0 1 1.218.079zm5.386-11.405a15.454 15.454 0 0 1 10.503 17.14l-.148.796-2.158-.46a13.3 13.3 0 0 0 .291-2.774 13.25 13.25 0 0 0-8.663-12.429l-.503-.174zm-9.506-.001.678 2.1a13.25 13.25 0 0 0-9.004 14.693l.127.682-2.159.46a15.5 15.5 0 0 1-.339-3.232A15.45 15.45 0 0 1 10.695 2.038zM16 0a2.207 2.207 0 1 1 0 4.414A2.207 2.207 0 0 1 16 0"/></svg>