<svg xmlns="http://www.w3.org/2000/svg" viewBox="0 0 32 32"><path fill="currentColor" d="M15.506 30.635c0 .754-.611 1.365-1.365 1.365h-1.82a1.365 1.365 0 1 1 0-2.73h1.82c.753 0 1.365.61 1.365 1.365M16 2.729c3.511 0 6.368 2.857 6.368 6.368S19.511 15.465 16 15.465s-6.368-2.857-6.368-6.368A6.376 6.376 0 0 1 16 2.729M16 0a9.098 9.098 0 1 0 0 18.196A9.098 9.098 0 0 0 16 0m13.646 32a1.365 1.365 0 0 1-1.365-1.365c0-6.773-5.508-12.282-12.282-12.282-6.772 0-12.282 5.509-12.282 12.282a1.365 1.365 0 0 1-2.73 0c0-8.277 6.734-15.011 15.011-15.011s15.011 6.734 15.011 15.011c0 .753-.611 1.365-1.365 1.365zm0 0H19.184a1.365 1.365 0 0 1 0-2.73h10.462a1.365 1.365 0 0 1 0 2.73M7.471 32H2.354a1.365 1.365 0 0 1 0-2.73h5.117a1.365 1.365 0 0 1 0 2.73"/></svg>