<svg xmlns="http://www.w3.org/2000/svg" viewBox="0 0 32 32"><path fill="currentColor" d="M11.398 18.214a1.515 1.515 0 0 1 .274-2.033l.002-.002a1.307 1.307 0 0 1 1.907.288l.003.005c.947 1.351 2.399 2.195 3.976 2.315a5.26 5.26 0 0 0 4.242-1.684l.003-.004 4.072-4.344c2.067-2.28 2.037-5.911-.065-8.152a5.2 5.2 0 0 0-3.855-1.706 5.2 5.2 0 0 0-3.774 1.619l-2.347 2.489a1.3 1.3 0 0 1-1.335.39l.009.002a1.42 1.42 0 0 1-.969-1.033l-.002-.01a1.52 1.52 0 0 1 .375-1.411l-.001.001 2.357-2.501c3.216-3.303 8.317-3.248 11.466.121 3.151 3.373 3.188 8.812.083 12.23l-4.089 4.363c-1.68 1.788-4.003 2.713-6.369 2.529-2.365-.179-4.543-1.445-5.964-3.472zm7.663-4.635a1.513 1.513 0 0 1-.275 2.032l-.002.002a1.307 1.307 0 0 1-1.904-.289l-.003-.005a5.38 5.38 0 0 0-3.957-2.315l-.02-.001a5.28 5.28 0 0 0-4.244 1.684l-.003.004-4.072 4.345c-2.067 2.28-2.036 5.909.067 8.152 2.104 2.241 5.504 2.275 7.627.087l2.331-2.485a1.31 1.31 0 0 1 1.327-.374l-.009-.002c.48.147.848.539.963 1.027a1.51 1.51 0 0 1-.353 1.406l.001-.001-2.347 2.504c-3.213 3.301-8.316 3.247-11.465-.123-3.152-3.371-3.188-8.811-.083-12.23l4.089-4.361c1.677-1.788 4-2.713 6.368-2.529 2.367.179 4.541 1.445 5.965 3.472zm9.883 3.88h1.361c.752 0 1.361.652 1.361 1.457s-.609 1.459-1.36 1.459h-1.363c-.751 0-1.36-.653-1.36-1.459s.609-1.457 1.36-1.457zm-5.456 5.833h6.816c.752 0 1.363.653 1.363 1.457 0 .805-.611 1.459-1.363 1.459h-6.816c-.752 0-1.363-.653-1.363-1.457 0-.805.611-1.459 1.363-1.459m-4.084 5.791h10.9c.752 0 1.363.655 1.363 1.46S31.056 32 30.304 32h-10.9c-.752 0-1.363-.652-1.363-1.457s.611-1.46 1.363-1.46m-8.006-10.869a1.515 1.515 0 0 1 .274-2.033l.002-.002a1.307 1.307 0 0 1 1.907.288l.003.005c.947 1.351 2.399 2.195 3.976 2.315a5.26 5.26 0 0 0 4.242-1.684l.003-.004 4.072-4.344c2.067-2.28 2.037-5.911-.065-8.152a5.2 5.2 0 0 0-3.855-1.706 5.2 5.2 0 0 0-3.774 1.619l-2.347 2.489a1.3 1.3 0 0 1-1.335.39l.009.002a1.42 1.42 0 0 1-.969-1.033l-.002-.01a1.52 1.52 0 0 1 .375-1.411l-.001.001 2.357-2.501c3.216-3.303 8.317-3.248 11.466.121 3.151 3.373 3.188 8.812.083 12.23l-4.089 4.363c-1.68 1.788-4.003 2.713-6.369 2.529-2.365-.179-4.543-1.445-5.964-3.472zm7.663-4.635a1.513 1.513 0 0 1-.275 2.032l-.002.002a1.307 1.307 0 0 1-1.904-.289l-.003-.005a5.38 5.38 0 0 0-3.957-2.315l-.02-.001a5.28 5.28 0 0 0-4.244 1.684l-.003.004-4.072 4.345c-2.067 2.28-2.036 5.909.067 8.152 2.104 2.241 5.504 2.275 7.627.087l2.331-2.485a1.31 1.31 0 0 1 1.327-.374l-.009-.002c.48.147.848.539.963 1.027a1.51 1.51 0 0 1-.353 1.406l.001-.001-2.347 2.504c-3.213 3.301-8.316 3.247-11.465-.123-3.152-3.371-3.188-8.811-.083-12.23l4.089-4.361c1.677-1.788 4-2.713 6.368-2.529 2.367.179 4.541 1.445 5.965 3.472zm9.883 3.88h1.361c.752 0 1.361.652 1.361 1.457s-.609 1.459-1.36 1.459h-1.363c-.751 0-1.36-.653-1.36-1.459s.609-1.457 1.36-1.457zm-5.456 5.833h6.816c.752 0 1.363.653 1.363 1.457 0 .805-.611 1.459-1.363 1.459h-6.816c-.752 0-1.363-.653-1.363-1.457 0-.805.611-1.459 1.363-1.459m-4.084 5.791h10.9c.752 0 1.363.655 1.363 1.46S31.056 32 30.304 32h-10.9c-.752 0-1.363-.652-1.363-1.457s.611-1.46 1.363-1.46"/></svg>