<svg xmlns="http://www.w3.org/2000/svg" viewBox="0 0 32 32"><path fill="currentColor" d="M16.512.017C7.537-.407-.017 6.952.015 16.089c.041 11.689 12.313 19.387 22.855 14.33.492-.236.989-.49 1.419-.821.76-.585.918-1.402.454-2.08-.487-.711-1.167-.837-1.929-.527-.392.16-.744.417-1.131.593-4.951 2.246-9.687 1.81-13.872-1.632-4.247-3.492-5.66-8.135-4.264-13.463C5.252 5.981 12.023 1.911 18.55 3.324c6.877 1.488 11.327 7.819 10.148 14.638-.274 1.587-1.012 3.1-1.588 4.628-.393 1.043-.262 1.775.516 2.218.763.434 1.513.177 2.154-.751.138-.199.244-.421.359-.636a15.6 15.6 0 0 0 1.755-5.727C32.874 8.438 25.92.462 16.513.017zm1.527 15.478c.356-1.663-.492-2.435-2.16-2.066a6.3 6.3 0 0 0-1.047.313c-1.111.462-1.476 1.28-.804 2.309.479.734.37 1.335.167 2.048-.398 1.402-.805 2.803-1.125 4.224-.283 1.253.393 2.063 1.668 2.051.172-.029.413-.06.65-.11 2.03-.426 2.354-1.112 1.509-2.999-.151-.337-.131-.81-.042-1.185.368-1.535.851-3.043 1.182-4.585zm.998-6.097c.02-.959-.901-1.871-1.857-1.839-.992.034-1.788.942-1.71 1.952a1.754 1.754 0 0 0 1.821 1.633c.929-.032 1.726-.83 1.745-1.747z"/></svg>