<svg xmlns="http://www.w3.org/2000/svg" viewBox="0 0 32 32"><path fill="currentColor" d="M15.326 10.667c.429 0 1.749-.205 2.172-.61a2.03 2.03 0 0 0 .63-1.472l-.001-.047v.002-.032c0-.579-.241-1.102-.629-1.474l-.001-.001a2.08 2.08 0 0 0-1.481-.619h-.028.001-.026c-.57 0-1.086.233-1.457.61a2.04 2.04 0 0 0-.622 1.517v-.002q.001.92.629 1.525c.42.401.397.602.813.602zM16 0C7.164 0 0 7.162 0 16s7.164 16 16 16c8.838 0 16-7.162 16-16S24.838 0 16 0m0 29.867C8.342 29.867 2.133 23.659 2.133 16S8.341 2.133 16 2.133c7.658 0 13.867 6.208 13.867 13.867S23.659 29.867 16 29.867m1.316-9.285-.497.495 1.325-7.027c.009-.047-.006-.094-.004-.141v-.042c0-.289-.12-.55-.313-.736l-.009-.015c-.006-.006-.015-.006-.021-.013a1.1 1.1 0 0 0-.425-.245l-.008-.002c-.055-.017-.1-.049-.16-.058-.041-.006-.081.004-.124.002l-.105.002c-.419.003-.784.23-.981.568l-.003.005-2.876 2.874a1.108 1.108 0 1 0 1.568 1.566l.495-.495-1.323 7.027c-.009.049.006.094.004.143v.047c0 .288.12.547.313.731l.009.013.021.015c.121.108.265.192.425.243l.008.002c.053.017.098.047.158.058.043.006.083-.006.126-.002l.105-.004c.419-.001.784-.228.981-.566l.003-.005 2.876-2.876a1.107 1.107 0 0 0-1.568-1.564"/></svg>