<svg xmlns="http://www.w3.org/2000/svg" viewBox="0 0 32 32"><path fill="currentColor" d="M20.988 26.56c-3.178 0-4.58-3.54-5.935-6.959-1.101-2.777-2.24-5.651-4.055-5.651-1.724 0-2.734 1.921-4.075 4.853-1.297 2.837-2.772 6.058-5.907 6.058-.56 0-1.015-.473-1.015-1.055s.455-1.055 1.015-1.055c1.723 0 2.734-1.921 4.074-4.853 1.298-2.837 2.773-6.058 5.908-6.058 3.179 0 4.581 3.539 5.936 6.959 1.101 2.777 2.24 5.65 4.055 5.65 1.772 0 2.734-1.573 4.108-4.166 1.307-2.464 2.791-5.256 5.889-5.256.561 0 1.015.473 1.015 1.055s-.455 1.055-1.015 1.055c-1.772 0-2.734 1.573-4.108 4.166-1.307 2.464-2.791 5.256-5.889 5.256zM.64 8.32a2.88 2.88 0 1 0 5.76 0 2.88 2.88 0 1 0-5.76 0"/></svg>