<svg xmlns="http://www.w3.org/2000/svg" viewBox="0 0 32 32"><path fill="currentColor" d="M22.335 4.363c.268 0 .591.161.762.379l.014.021 6.252 7.788c.304.397.258.995-.111 1.403L16.84 27.336c-.15.165-.383.265-.691.293h-.021c-.225 0-.483-.097-.669-.251l-.093-.093L2.711 13.893c-.336-.379-.376-.948-.086-1.299l.021-.029 6.263-7.802v-.007c.211-.261.472-.397.777-.397h12.648m.001-2.429H9.691c-1.024 0-1.993.455-2.677 1.31L.751 11.042c-1.081 1.31-.97 3.246.172 4.502l12.873 13.614a3.53 3.53 0 0 0 2.333.913h.115c.913-.057 1.764-.397 2.391-1.081L31.05 15.605c1.195-1.31 1.253-3.246.229-4.556l-6.263-7.802c-.63-.805-1.657-1.317-2.681-1.317M9.176 12.892c-.276 0-.551.1-.791.315-.455.397-.455 1.138-.057 1.596l6.152 6.492.115.115c.433.408.984.605 1.539.605.612 0 1.231-.243 1.707-.719l5.923-6.435c.397-.455.397-1.195-.057-1.596a1.23 1.23 0 0 0-.759-.265c-.322 0-.641.129-.891.379l-5.615 5.988c-.086.089-.2.136-.315.136s-.225-.043-.311-.132l-5.78-6.106a1.2 1.2 0 0 0-.859-.372z"/></svg>