<svg xmlns="http://www.w3.org/2000/svg" viewBox="0 0 32 32"><path fill="currentColor" d="m31.276 11.041-6.263-7.802a3.48 3.48 0 0 0-2.677-1.31H9.692c-1.024 0-1.993.455-2.677 1.31L.752 11.041c-1.081 1.31-.97 3.246.172 4.502l12.874 13.614a3.53 3.53 0 0 0 2.333.913h.115c.913-.057 1.764-.397 2.391-1.081l12.415-13.385c1.195-1.317 1.253-3.253.225-4.563zM23.76 14.86l-5.923 6.435c-.913.913-2.334.97-3.246.115l-.115-.115-6.152-6.492c-.397-.455-.397-1.195.057-1.596.512-.455 1.195-.397 1.65.057l5.78 6.106a.43.43 0 0 0 .626 0l5.612-5.988c.455-.455 1.138-.512 1.65-.115.458.394.458 1.135.061 1.593"/></svg>