<svg xmlns="http://www.w3.org/2000/svg" viewBox="0 0 32 32"><path fill="currentColor" d="M21.667.801a5 5 0 0 1 1.844.384l-.033-.012a5 5 0 0 1 1.504 1.002c.21.226.42.469.582.728.314.456.549.993.674 1.571l.005.029c.065.323.097.647.097.986v.97h.986a5 5 0 0 1 1.844.384l-.033-.012c.275.113.534.259.776.42q.388.243.728.582c.21.226.42.469.582.728.314.456.549.993.674 1.571l.005.029c.065.323.097.647.097.986v9.701l.001.08c0 .631-.131 1.231-.368 1.775l.011-.029a3.8 3.8 0 0 1-.42.76 4.4 4.4 0 0 1-.582.744c-.226.21-.469.42-.728.582a4.4 4.4 0 0 1-1.571.674l-.029.005a5 5 0 0 1-.986.097h-.986v.97l.001.08c0 .631-.131 1.231-.368 1.775l.011-.029a5 5 0 0 1-1.002 1.504c-.437.42-.938.76-1.504 1.002a4.6 4.6 0 0 1-1.811.356H10.35l-.08.001a4.4 4.4 0 0 1-1.775-.368l.029.011a5 5 0 0 1-1.505-1.004l.001.001a5 5 0 0 1-.99-1.472l-.013-.032a4.4 4.4 0 0 1-.356-1.747l.001-.085v.004-.97h-.97l-.089.001a4.44 4.44 0 0 1-2.53-.787l.015.01a5 5 0 0 1-.728-.582 5 5 0 0 1-.582-.728 4.4 4.4 0 0 1-.674-1.571l-.005-.029a5 5 0 0 1-.097-1.002v-9.701l-.001-.073c0-.939.29-1.811.786-2.529l-.01.015c.162-.259.372-.501.582-.728q.34-.339.728-.582c.456-.314.993-.55 1.571-.674l.029-.005a5 5 0 0 1 1.002-.113h.97v-.97l-.001-.073c0-.939.29-1.811.786-2.529l-.01.015c.162-.259.372-.501.582-.728q.34-.339.728-.582c.456-.314.993-.55 1.571-.674l.029-.005a5 5 0 0 1 1.002-.113h11.318zM5.66 9.37h-.97a2 2 0 0 0-.437.065 1.6 1.6 0 0 0-.259.081c-.097.049-.194.081-.275.146q-.17.098-.291.243a1.1 1.1 0 0 0-.243.291c-.049.081-.097.178-.146.275a1.6 1.6 0 0 0-.081.259c-.032.146-.065.291-.065.42v9.701a2 2 0 0 0 .065.437c.016.081.049.178.081.259.049.097.097.194.146.275.065.097.146.21.243.291q.121.146.291.243c.081.065.178.097.275.146.081.032.178.065.259.081q.218.048.437.049h.97V9.373zm20.68 13.259h.986q.369-.006.693-.134l-.013.005c.097-.049.194-.081.275-.146q.17-.098.291-.243c.097-.081.178-.194.243-.291.049-.081.097-.178.146-.275a1.6 1.6 0 0 0 .081-.259c.032-.146.065-.291.065-.437v-9.701c0-.129-.032-.275-.065-.42-.022-.1-.05-.186-.085-.269l.004.011c-.049-.097-.097-.194-.146-.275a1.1 1.1 0 0 0-.241-.29l-.002-.001a1.1 1.1 0 0 0-.286-.24l-.005-.003c-.081-.065-.178-.097-.275-.146a1.5 1.5 0 0 0-.248-.079l-.011-.002c-.146-.032-.291-.065-.42-.065h-.986v13.259zM21.667 3.711H10.349a2 2 0 0 0-.437.065 1.6 1.6 0 0 0-.259.081c-.097.049-.194.081-.275.146q-.17.098-.291.243a1.1 1.1 0 0 0-.243.291c-.049.081-.097.178-.146.275a1.6 1.6 0 0 0-.081.259c-.032.146-.065.291-.065.42v21.02c0 .243.049.485.146.695s.226.404.388.566.356.291.566.388c.081.032.178.065.259.081q.219.049.437.049h11.318q.369-.006.693-.134l-.013.005c.21-.097.404-.226.566-.388s.291-.356.388-.566a1.6 1.6 0 0 0 .081-.259c.032-.146.065-.291.065-.437V5.491c0-.129-.032-.275-.065-.42-.022-.1-.05-.186-.085-.269l.004.011a2 2 0 0 0-.388-.566 1.1 1.1 0 0 0-.286-.24l-.005-.003c-.081-.065-.178-.097-.275-.146a1.5 1.5 0 0 0-.248-.079l-.011-.002c-.146-.032-.291-.065-.42-.065z"/></svg>