<svg xmlns="http://www.w3.org/2000/svg" viewBox="0 0 32 32"><path fill="currentColor" d="M4.889 24.883h21.664v2.494H4.889zM29.27 3.539H32v25.257A3.203 3.203 0 0 1 28.796 32H3.204A3.203 3.203 0 0 1 0 28.796V3.204A3.203 3.203 0 0 1 3.204 0h19.35a3.43 3.43 0 0 1 3.431 3.431v15.773a3.203 3.203 0 0 1-3.204 3.204H4.117a1.6 1.6 0 0 0-1.6 1.6v3.62a1.6 1.6 0 0 0 1.6 1.6h23.568a1.683 1.683 0 0 0 1.6-1.685L29.27 3.535zM4.067 2.452c-.879 0-1.596.709-1.615 1.588v15.992a3 3 0 0 1 .806-.112h18.919a1.6 1.6 0 0 0 1.615-1.588V4.055a1.6 1.6 0 0 0-1.6-1.6H4.068z"/></svg>