<svg xmlns="http://www.w3.org/2000/svg" viewBox="0 0 32 32"><path fill="currentColor" d="M0 19.2v8.533L7.381 32l7.381-4.267V19.2l-7.381-4.267zm12.651 7.296-5.269 3.051-5.248-3.051v-6.059l5.248-3.051 5.269 3.051zM23.467 4.267 16 0 8.533 4.267V12.8L16 17.067l7.467-4.267zm-2.134 7.296L16 14.614l-5.333-3.051V5.504L16 2.453l5.333 3.051zM12.8 6.677v3.712l3.2 1.835 3.2-1.835V6.677L16 4.842zM4.267 25.323l3.2 1.835 3.2-1.835v-3.712l-3.2-1.835-3.2 1.835zm17.066-3.712v3.712l3.2 1.835 3.2-1.835v-3.712l-3.2-1.835zm3.286-6.678L17.216 19.2v8.533L24.597 32 32 27.733V19.2zm5.248 11.563-5.248 3.029-5.269-3.029v-6.059l5.248-3.029 5.269 3.029z"/></svg>