<svg xmlns="http://www.w3.org/2000/svg" viewBox="0 0 32 32"><path fill="currentColor" d="m10.808 11.716 5.518 3.183 5.52-3.18V5.358l-5.52-3.185-5.518 3.18v6.361zm-2.949 3.207c.344.026.659.128.936.289l-.01-.006 5.526 3.191a2.18 2.18 0 0 1 1.083 1.882v6.361c0 .802-.433 1.503-1.079 1.881l-.01.006-5.52 3.183c-.312.183-.688.291-1.088.291s-.776-.108-1.098-.297l.01.006-5.518-3.18a2.18 2.18 0 0 1-1.089-1.886v-6.363c0-.802.433-1.503 1.079-1.881l.01-.006 5.518-3.183a2.15 2.15 0 0 1 1.257-.284h-.007zm1.145-1.982a2.16 2.16 0 0 1-.375-1.221V5.356c0-.802.433-1.503 1.079-1.881l.01-.006 5.52-3.178C15.55.108 15.926 0 16.326 0s.776.108 1.098.297l-.01-.006 5.518 3.18a2.18 2.18 0 0 1 1.089 1.886v6.363c0 .802-.433 1.503-1.079 1.881l-.01.006-5.518 3.178c-.312.183-.688.292-1.089.292s-.777-.108-1.099-.297l.01.006-5.524-3.185a2.2 2.2 0 0 1-.703-.655l-.005-.008zM2.178 26.638l5.52 3.18 5.518-3.18v-6.361l-5.518-3.18-5.52 3.18zm20.709-7.374c0-.602.488-1.089 1.089-1.089h6.934a1.089 1.089 0 1 1 0 2.178h-6.934a1.09 1.09 0 0 1-1.089-1.089m0 4.357c0-.602.488-1.089 1.089-1.089h6.934a1.089 1.089 0 1 1 0 2.178h-6.934a1.09 1.09 0 0 1-1.089-1.089m0 4.356c0-.602.488-1.089 1.089-1.089h6.934a1.089 1.089 0 1 1 0 2.178h-6.934a1.09 1.09 0 0 1-1.089-1.089m-3.958-8.713a1.089 1.089 0 1 1 1.089 1.089 1.09 1.09 0 0 1-1.089-1.089m0 4.357a1.089 1.089 0 1 1 1.089 1.089 1.09 1.09 0 0 1-1.089-1.089m0 4.356a1.089 1.089 0 1 1 1.089 1.089 1.09 1.09 0 0 1-1.089-1.089"/></svg>