<svg xmlns="http://www.w3.org/2000/svg" viewBox="0 0 32 32"><path fill="currentColor" d="M16 25.52c-4.32 0-7.84-3.52-7.84-7.84S11.68 9.84 16 9.84s7.84 3.52 7.84 7.84-3.52 7.84-7.84 7.84m0-14c-3.44 0-6.24 2.8-6.24 6.24S12.56 24 16 24s6.24-2.8 6.24-6.24c0-3.52-2.8-6.24-6.24-6.24m2.24 8.88c-.08 0-.16 0-.24.08-.56.56-1.28.88-2 .88s-1.44-.32-2-.8c-.08-.08-.16-.08-.24-.08s-.16 0-.24.08c-.16.16-.16.4 0 .56.64.64 1.6 1.04 2.48 1.04.96 0 1.84-.4 2.56-1.12.16-.16.16-.4 0-.56-.08 0-.24-.08-.32-.08m8.24-4.24C25.6 11.12 21.2 7.28 16 7.28s-9.6 3.84-10.48 8.88c-1.12.16-1.92 1.2-1.92 2.32 0 1.2.96 2.24 2.16 2.32H6q.48 0 .96-.24c-.24-.8-.32-1.68-.32-2.64 0-.64.08-1.2.16-1.76.8-4.4 4.64-7.76 9.28-7.76s8.48 3.36 9.28 7.76c.08.56.16 1.2.16 1.76 0 .88-.16 1.76-.4 2.64q.48.24.96.24h.24c1.2-.08 2.16-1.12 2.16-2.32-.08-1.12-.96-2.08-2-2.32M16 32C7.2 32 0 24.8 0 16S7.2 0 16 0s16 7.2 16 16c0 .48-.32.8-.8.8s-.8-.32-.8-.8c0-7.92-6.48-14.4-14.4-14.4S1.6 8.08 1.6 16 8.08 30.4 16 30.4c2.56 0 5.12-.72 7.28-2 .4-.24.88-.08 1.12.32s.08.88-.32 1.12C21.68 31.2 18.88 32 16 32"/></svg>