<svg xmlns="http://www.w3.org/2000/svg" viewBox="0 0 32 32"><path fill="currentColor" d="M30.509 1.666h-6.47a.833.833 0 0 1 0-1.666h6.47a.833.833 0 0 1 0 1.666m0 8.218h-6.922a.833.833 0 0 1 0-1.666h6.922a.833.833 0 0 1 0 1.666m0 8.218h-3.761a.833.833 0 0 1 0-1.666h3.761a.833.833 0 0 1 0 1.666M14.42 1.685c1.479 0 2.87.593 3.919 1.671 1.058 1.088 1.641 2.536 1.641 4.079s-.583 2.991-1.641 4.079c-1.048 1.077-2.44 1.671-3.919 1.671s-2.87-.593-3.919-1.671C9.443 10.426 8.86 8.978 8.86 7.435s.583-2.991 1.641-4.079a5.43 5.43 0 0 1 3.919-1.671m0-1.664c-3.998 0-7.224 3.328-7.224 7.414s3.225 7.413 7.224 7.413 7.224-3.327 7.224-7.413S18.418.021 14.42.021M18.329 18.1c4.153 0 7.733 5.366 8.181 12.236h-2.029c-.63 0-1.226-.3-1.596-.804-1.566-2.133-3.501-3.261-5.595-3.261h-5.741c-2.095 0-4.031 1.128-5.596 3.261a1.99 1.99 0 0 1-1.596.804H2.329C2.776 23.466 6.357 18.1 10.51 18.1zm0-1.664H10.51c-5.187 0-9.38 6.116-9.849 13.91C.607 31.239 1.172 32 1.888 32h2.468a3.64 3.64 0 0 0 2.937-1.483c1.192-1.624 2.659-2.581 4.255-2.581h5.741c1.595 0 3.062.958 4.254 2.582a3.64 3.64 0 0 0 2.937 1.483h2.469c.716 0 1.281-.762 1.227-1.654-.469-7.793-4.664-13.91-9.849-13.91z"/></svg>