<svg xmlns="http://www.w3.org/2000/svg" viewBox="0 0 32 32"><path fill="currentColor" d="M29.022 23.77V28c0 1.194-.808 2-2 2H5.49c-1.194 0-2.511-.808-2.511-2V4.979c0-1.194.808-2 2-2h2.508c.553 0 .764-.553.764-1.106S8.038.979 7.487.979H4.979c-2.809 0-4 1.745-4 4.042v22.766C.979 30.255 2.468 32 5.192 32h21.616c2.722 0 4.213-1.447 4.213-4.213v-3.975c0-1.241-1.999-1.233-1.999-.043zM7.487 10a1.036 1.036 0 0 0 1.023 1.023h4.732a1.02 1.02 0 1 0 0-2.042H8.511A1.036 1.036 0 0 0 7.488 10v.001zm3.027 4.509H8.509a1.02 1.02 0 1 0 0 2.042h2.048a1.035 1.035 0 0 0 1.021-1.021v-.001c-.043-.594-.51-1.021-1.064-1.021zm-.448 6.002H8.509a1.02 1.02 0 1 0 0 2.042h1.599a1.035 1.035 0 0 0 1.021-1.021v-.001c-.043-.596-.51-1.021-1.064-1.021zM12.104 3.49h1.163c.808 0 1.489-.808 1.489-1.745S14.077 0 13.226 0h-1.12c-.851 0-1.532.808-1.532 1.745s.681 1.745 1.532 1.745zm.653 17.99c-.751 0-.902-.602-.926-.742.129-3.581 2.419-6.772 5.841-8.138l.554-.221-.497-.33c-1.737-1.162-2.865-3.115-2.865-5.332v-.002c0-3.531 2.873-6.403 6.403-6.403s6.403 2.873 6.403 6.403v.002a6.39 6.39 0 0 1-2.842 5.317l-.023.015-.497.33.559.219c3.419 1.365 5.709 4.554 5.842 8.13-.032.143-.199.697-.818.697q-.075 0-.147-.009l.006.001h-.013c-.564-.04-.948-.609-1.045-.768-.689-4.274-3.323-6.628-7.422-6.628-4.025 0-6.518 2.292-7.21 6.632-.095.166-.511.826-1.13.826h-.174zm8.511-19.121a4.357 4.357 0 1 0 4.357 4.357 4.363 4.363 0 0 0-4.357-4.357"/></svg>