<svg xmlns="http://www.w3.org/2000/svg" viewBox="0 0 32 32"><path fill="currentColor" d="m17.451.389 11.342 6.549a2.9 2.9 0 0 1 1.451 2.514v3.646h-2.903V9.453l-11.342-6.55L4.657 9.452v13.097l11.342 6.549 11.342-6.549v-3.647h2.903v3.647a2.9 2.9 0 0 1-1.438 2.506l-.014.007-11.342 6.549c-.416.244-.917.389-1.451.389s-1.035-.144-1.465-.396l.014.007-11.342-6.549a2.9 2.9 0 0 1-1.451-2.514V9.451a2.9 2.9 0 0 1 1.438-2.506l.014-.007L14.549.389C14.965.145 15.466 0 16 0s1.035.144 1.465.396zm-1.438 8.838h.001a2.903 2.903 0 0 1 1.232 5.532l-.018.008 2.491 1.438a.97.97 0 0 1 .484.838v3.721a.97.97 0 0 1-.479.835l-.005.002-3.222 1.86a.96.96 0 0 1-.972-.002l.005.002-3.222-1.86a.97.97 0 0 1-.484-.838v-3.721c0-.356.193-.668.479-.835l.005-.002 2.492-1.437a2.91 2.91 0 0 1-1.691-2.638c0-1.603 1.3-2.903 2.903-2.903h.003zm4.355.967a2.419 2.419 0 0 1 1.174 4.535l-.012.006 1.707.985a.97.97 0 0 1 .484.838v2.754a.97.97 0 0 1-.479.835l-.005.002-1.709.987a2.3 2.3 0 0 0 .03-.372v-3.723l-.006-.165a2.32 2.32 0 0 0-1.144-1.84l-.011-.006-.868-.502.009-.01a4.2 4.2 0 0 0 .733-2.387v-.004c0-.673-.156-1.31-.434-1.876q.256-.059.532-.059zm-8.709 0q.275 0 .531.058a4.2 4.2 0 0 0-.435 1.871v.006l.006.218c.038.728.253 1.398.603 1.977l-.011-.019.143.224-.867.501a2.33 2.33 0 0 0-1.161 2.011v3.721q0 .19.03.373l-1.707-.987a.97.97 0 0 1-.484-.838v-2.754c0-.356.193-.668.479-.835l.005-.002 1.706-.985a2.419 2.419 0 0 1 1.161-4.541h.001z"/></svg>