<svg xmlns="http://www.w3.org/2000/svg" viewBox="0 0 32 32"><path fill="currentColor" d="M26.948 12.2h-1.719v-1.073c0-.715-.581-1.296-1.296-1.296h-1.031c-.715 0-1.296.581-1.296 1.296V12.2h-1.719v-1.073a3.017 3.017 0 0 1 3.014-3.014h1.031a3.017 3.017 0 0 1 3.014 3.014V12.2zm-3.53-2.368c-1.642 0-2.977-1.335-2.977-2.977s1.336-2.977 2.977-2.977c1.642 0 2.977 1.336 2.977 2.977s-1.335 2.977-2.977 2.977m0-4.237c-.694 0-1.259.565-1.259 1.259s.565 1.259 1.259 1.259 1.259-.565 1.259-1.259a1.26 1.26 0 0 0-1.259-1.259m.037 10.737c-4.502 0-8.166-3.663-8.166-8.166S18.952 0 23.455 0s8.166 3.663 8.166 8.166-3.663 8.166-8.166 8.166m0-14.613c-3.555 0-6.447 2.892-6.447 6.447s2.893 6.448 6.447 6.448 6.447-2.893 6.447-6.448-2.892-6.447-6.447-6.447M23.052 32H2.956a2.58 2.58 0 0 1-2.578-2.578V6.563a2.58 2.58 0 0 1 2.578-2.578h15.401l-.64 1.251a6.4 6.4 0 0 0-.71 2.929 6.455 6.455 0 0 0 6.447 6.448 6.4 6.4 0 0 0 1.162-.111l1.013-.184v15.104a2.58 2.58 0 0 1-2.578 2.577zM2.957 5.704a.86.86 0 0 0-.859.859v22.859a.86.86 0 0 0 .859.859h20.095a.86.86 0 0 0 .859-.859V16.318a8 8 0 0 1-.456.014c-4.502 0-8.166-3.663-8.166-8.166q0-1.27.381-2.462zm3.025 5.746h7.338v1.719H5.982zm0 5.684h14.107v1.719H5.982zm0 5.683h14.107v1.719H5.982z"/></svg>