<svg xmlns="http://www.w3.org/2000/svg" viewBox="0 0 32 32"><path fill="currentColor" d="M9.2 7.199c-.902 0-1.6.461-1.6 1.221 0 .684.638 1.178 1.6 1.178h12.799c.324 0 1.609-.183 1.609-1.226 0-.853-1.094-1.173-1.609-1.173zm0 7.199c-.602 0-1.599.371-1.599 1.199-.001.706.862 1.201 1.599 1.201H14c.912 0 1.59-.504 1.59-1.209 0-.553-.52-1.19-1.59-1.19zm4.001 15.198h-6.4c-2.179 0-3.199-1.505-3.199-3.2V5.599c0-2.124 1.519-3.2 3.199-3.2h17.598c1.68 0 3.2 1.505 3.2 3.2v6.399c0 .807.539 1.585 1.219 1.585.662 0 1.181-.779 1.181-1.585V4.799C29.999 2.383 27.718 0 25.324 0H6.002C3.609 0 1.204 2.384 1.204 4.799V27.44c0 2.415 2.405 4.555 4.798 4.555h7.2c.178.034.815-.092.809-1.249-.004-.975-.809-1.151-.809-1.151zm13.751-4.4c1.708-1.596 2.286-4.108 1.455-6.322s-2.9-3.675-5.206-3.675-4.376 1.461-5.207 3.675a5.88 5.88 0 0 0 .985 5.827.596.596 0 0 1-.099.863l-.002.001c-1.947 1.386-3.168 3.637-3.275 6.098v.014c0 .173.138.314.31.318h1.866a.32.32 0 0 0 .31-.306v-.001c.162-2.784 2.4-4.958 5.11-4.961 2.727 0 4.962 2.204 5.113 4.963a.315.315 0 0 0 .31.302h1.866a.314.314 0 0 0 .31-.314l-.001-.019v.001c-.114-2.692-1.567-5.135-3.845-6.465zm-3.751-7.444c1.761 0 3.179 1.511 3.098 3.341-.073 1.635-1.361 2.962-2.951 3.038-1.779.085-3.248-1.375-3.248-3.188 0-1.763 1.389-3.192 3.101-3.192z"/></svg>