<svg xmlns="http://www.w3.org/2000/svg" viewBox="0 0 1008 1024"><path fill="currentColor" d="M401.591 578.397c-136.221 0-247.183-117.638-247.183-262.159S265.189 54.079 401.591 54.079c136.221 0 247.183 117.638 247.183 262.159S537.812 578.397 401.591 578.397m0-470.009c-106.451 0-193.055 93.28-193.055 208.031s86.604 207.85 193.055 207.85 193.055-93.28 193.055-208.031-86.604-207.85-193.055-207.85m288.32 844.753H106.955l-3.428-.902c-39.332-10.826-69.825-40.777-88.047-86.604C.324 827.385-6.532 773.437 8.083 749.26c104.106-170.863 211.459-196.123 215.97-197.025l13.713-3.067 10.284 9.382c11.548 10.465 26.523 20.208 44.745 28.507 67.299 31.213 144.34 31.213 211.639 0 18.043-8.48 33.018-18.043 44.566-28.507l10.284-9.382 13.713 3.067c4.511 1.083 111.684 26.162 215.789 196.844 14.795 24.177 7.759 78.125-7.397 116.375-18.223 46.009-48.715 75.96-88.047 86.604l-3.428 1.083zm-575.197-54.128h567.8c17.14-5.773 31.213-18.945 42.22-39.153 17.681-33.018 20.027-73.072 17.321-83.717-71.449-116.555-141.995-155.527-169.059-166.894-13.171 9.924-28.507 19.125-45.648 27.064-37.699 18.025-81.942 28.553-128.643 28.553s-90.944-10.528-130.484-29.341l1.839.788c-17.14-7.938-32.477-17.14-45.648-27.064-26.883 11.367-97.611 50.158-169.059 166.894-2.887 10.645-.36 50.699 17.321 83.717 10.645 20.208 24.899 33.378 42.039 39.153zm206.587-534.961c0 129.839 98.551 235.095 220.119 235.095s220.119-105.255 220.119-235.095c0-129.839-98.551-235.095-220.119-235.095S321.301 234.212 321.301 364.052m504.832 609.657c79.387-21.651 91.657-142.716 79.387-162.924-99.235-162.924-198.468-184.576-198.468-184.576-14.975 13.532-32.837 24.357-51.421 33.018-34.374 16.402-74.707 25.981-117.276 25.981s-82.903-9.58-118.96-26.701l1.683.719c-18.584-8.66-36.626-19.486-51.421-33.018 0 0-99.235 21.651-198.468 184.576-12.269 20.208 0 141.093 79.387 162.924zm109.698-869.291c9.924 0 18.043 8.119 18.043 18.043v29.77c0 9.924-8.119 18.043-18.043 18.043H784.995c-9.924 0-18.043-8.119-18.043-18.043v-29.77c0-9.924 8.119-18.043 18.043-18.043zm0-54.127H784.995c-39.874 0-72.171 32.296-72.171 72.171v29.77c0 39.874 32.296 72.171 72.171 72.171h150.836c39.874 0 72.171-32.296 72.171-72.171v-29.77c0-39.694-32.296-72.171-72.171-72.171m0 299.867c9.924 0 18.043 8.119 18.043 18.043v29.77c0 9.924-8.119 18.043-18.043 18.043H834.252c-9.924 0-18.043-8.119-18.043-18.043v-29.77c0-9.924 8.119-18.043 18.043-18.043zm0-54.128H834.252c-39.874 0-72.171 32.296-72.171 72.171v29.77c0 39.874 32.296 72.171 72.171 72.171h101.579c39.874 0 72.171-32.296 72.171-72.171v-29.77c0-39.874-32.296-72.171-72.171-72.171m0 289.764c9.924 0 18.043 8.119 18.043 18.043v29.77c0 9.924-8.119 18.043-18.043 18.043h-40.596c-9.924 0-18.043-8.119-18.043-18.043v-29.77c0-9.924 8.119-18.043 18.043-18.043zm0-54.127h-40.596c-39.874 0-72.171 32.296-72.171 72.171v29.77c0 39.874 32.296 72.171 72.171 72.171h40.596c39.874 0 72.171-32.296 72.171-72.171v-29.77c0-39.874-32.296-72.171-72.171-72.171"/></svg>