<svg xmlns="http://www.w3.org/2000/svg" viewBox="0 0 32 32"><path fill="currentColor" d="M1.801 25.794v-12.86h27.431v5.843h1.805V8.608a2.586 2.586 0 0 0-2.585-2.585H16.207a1.7 1.7 0 0 1-.854-.227l-4.844-2.768a3.45 3.45 0 0 0-1.712-.454H2.586A2.586 2.586 0 0 0 .001 5.159v20.692a2.586 2.586 0 0 0 2.585 2.585h7.529v-1.789H2.66a.85.85 0 0 1-.857-.854zm0-20.574c0-.474.384-.857.857-.857h6.175c.298 0 .592.077.851.227L14.5 7.342a3.45 3.45 0 0 0 1.702.451h12.175c.474 0 .858.384.858.858v2.569H1.801zm26.42 15.765c-.576-2.87-3.04-5.065-6.083-5.065a5.99 5.99 0 0 0-5.423 3.376c-2.547.339-4.438 2.448-4.438 5.065 0 2.787 2.217 5.065 4.931 5.065h10.684c2.301 0 4.108-1.856 4.108-4.22 0-2.195-1.725-4.054-3.779-4.22zm-.627 6.662H17.473c-1.712 0-3.113-1.488-3.113-3.308 0-1.817 1.401-3.305 3.113-3.305h.544c.547-1.904 2.179-3.308 4.128-3.308 2.336 0 4.281 2.067 4.281 4.547v.413h1.168c1.321 0 2.333 1.075 2.333 2.48 0 1.408-1.011 2.483-2.333 2.483z"/></svg>