<svg xmlns="http://www.w3.org/2000/svg" viewBox="0 0 32 32"><path fill="currentColor" d="M18.199 13.983c.208-.052.398-.156.537-.312l3.515-4.087a8.94 8.94 0 0 1 2.719 6.442c0 4.97-4.035 9.004-9.004 9.004s-8.97-4.052-8.97-9.022 4.017-8.987 8.987-8.987a9 9 0 0 1 4.693 1.316l-3.446 4.035a.98.98 0 0 0-.225.831 3.2 3.2 0 0 0-1.004-.173c-1.662 0-3.013 1.351-3.013 3.013s1.351 3.013 3.013 3.013 3.013-1.351 3.013-3.013c-.017-.831-.312-1.541-.814-2.061zm5.368-5.957a10.92 10.92 0 0 1 3.429 7.965c0 6.078-4.918 10.996-10.996 10.996S5.022 22.069 5.022 15.991 9.94 4.995 16 4.995c2.216 0 4.294.658 6.009 1.784l1.229-1.437c.346-.416.987-.468 1.403-.104s.468.987.104 1.403zM16 31.991c8.831 0 16-7.169 16-16S24.814.008 16 .008 0 7.16 0 15.991s7.169 16 16 16m-1.004-16c0-.554.45-1.004.987-1.004s1.004.45 1.004 1.004-.45.987-1.004.987c-.554.017-.987-.416-.987-.987"/></svg>