<svg xmlns="http://www.w3.org/2000/svg" viewBox="0 0 32 32"><path fill="currentColor" d="M31.344 15.141C27.17 10.839 22.964 6.569 18.758 2.3c-.8-.8-1.743-1.183-2.879-1.151-1.151.048-2.015.624-2.783 1.423C9.066 6.682 5.02 10.792.99 14.886c-.208.208-.432.416-.608.656-.48.64-.544 1.327 0 1.951s1.215.704 1.919.24c.272-.192.544-.384 1.103-.8v2.159c0 2.559-.032 5.101.016 7.66.032 2.623 1.471 4.03 4.126 4.078 1.359.032 2.735.032 4.094 0 1.695-.032 2.111-.448 2.143-2.095.032-1.311 0-2.607.016-3.918 0-.448.096-.896.16-1.423h2.799c.944 0 1.903.032 2.847-.016 1.023-.064 1.647-.704 1.599-1.535-.048-.768-.608-1.343-1.567-1.359a222 222 0 0 0-7.292 0c-.912.016-1.423.56-1.455 1.471-.032 1.119-.016 2.255-.016 3.374v2.367c-.736.048-1.247.096-1.775.096-2.367.016-2.719-.32-2.719-2.623-.016-3.438.032-6.876-.032-10.331-.016-.848.256-1.439.832-2.015 2.399-2.383 4.75-4.814 7.132-7.228 1.535-1.551 1.967-1.567 3.486-.032 3.63 3.678 7.244 7.372 10.858 11.05.368.384.72.864 1.167 1.071.432.192 1.087.288 1.455.096.384-.208.72-.832.72-1.279s-.32-1.008-.656-1.359zm-5.853 6.845c0-.896.048-1.775-.016-2.655-.048-.704-.512-1.103-1.103-1.103s-.991.384-1.103 1.119c-.048.304-.032.624-.032.928 0 .976.016 1.951 0 2.927-.032 1.375-.272 1.615-1.647 1.663-.928.016-1.871-.048-2.799.064-.352.048-.8.416-.944.752-.128.272.016.832.24 1.071.224.256.704.352 1.071.368 1.103.048 2.223.032 3.326.016 1.855-.048 2.959-1.119 3.022-2.99.032-.704 0-1.423 0-2.127z"/></svg>