<svg xmlns="http://www.w3.org/2000/svg" viewBox="0 0 32 32"><path fill="currentColor" d="M6.787 18.346C9.118 19.511 12.424 20.21 16 20.21s6.882-.699 9.213-1.864c1.8-.901 2.577-1.819 2.577-2.346v-3.656c-2.779 1.718-7.028 2.814-11.789 2.814S6.99 14.06 4.212 12.344V16c0 .527.776 1.445 2.577 2.346zM16 23.579c-4.761 0-9.011-1.098-11.789-2.814v3.656c0 .527.776 1.445 2.577 2.346 2.331 1.165 5.637 1.864 9.213 1.864s6.882-.699 9.213-1.864c1.8-.901 2.577-1.819 2.577-2.346v-3.656c-2.779 1.718-7.028 2.814-11.789 2.814zm-15.158-16C.842 3.394 7.629 0 16 0s15.158 3.394 15.158 7.579v16.842C31.158 28.606 24.371 32 16 32S.842 28.606.842 24.421zm24.371 2.346c1.8-.901 2.577-1.819 2.577-2.346s-.776-1.445-2.577-2.346C22.882 4.068 19.576 3.369 16 3.369s-6.882.699-9.213 1.864c-1.8.901-2.577 1.819-2.577 2.346s.776 1.445 2.577 2.346c2.331 1.165 5.637 1.864 9.213 1.864s6.882-.699 9.213-1.864"/></svg>