<svg xmlns="http://www.w3.org/2000/svg" viewBox="0 0 34 32"><path fill="currentColor" d="M20.428 2.678C13.083 2.678 7.106 8.655 7.106 16s5.976 13.322 13.322 13.322S33.75 23.345 33.75 16 27.774 2.678 20.428 2.678m0 24.374c-6.094 0-11.052-4.958-11.052-11.053S14.334 4.946 20.428 4.946s11.053 4.958 11.053 11.053-4.958 11.053-11.053 11.053m6.659-7.238-5.339-3.143V9.452a1.135 1.135 0 1 0-2.27 0v7.927c0 .533.369.977.864 1.099l5.593 3.293a1.134 1.134 0 1 0 1.151-1.955zM1.399 10.137h5.826a1.135 1.135 0 1 0 0-2.27H1.399a1.135 1.135 0 1 0 0 2.27m5.825 11.836H1.398a1.135 1.135 0 1 0 0 2.27h5.826a1.135 1.135 0 1 0 0-2.27m-6.089-4.784h3.713a1.135 1.135 0 1 0 0-2.27H1.136a1.135 1.135 0 1 0 0 2.27z"/></svg>