<svg xmlns="http://www.w3.org/2000/svg" viewBox="0 0 32 32"><path fill="currentColor" d="M16 0C7.164 0 0 7.164 0 16s7.164 16 16 16 16-7.164 16-16S24.836 0 16 0m0 30.08C8.236 30.08 1.92 23.764 1.92 16S8.236 1.92 16 1.92 30.08 8.236 30.08 16 23.764 30.08 16 30.08m5.499-19.029-.067.049c-1.303.962-1.574 1.163-3.073.415-6.153-3.067-9.183 1.091-9.213 1.133a.96.96 0 0 0 1.569 1.108c.021-.029 2.095-2.861 6.787-.522 2.548 1.271 3.662.45 5.069-.589l.067-.049a.96.96 0 0 0-1.14-1.546zM21.5 18.5l-.067.05c-1.304.962-1.575 1.162-3.073.416-6.153-3.068-9.183 1.09-9.213 1.133a.96.96 0 0 0 1.569 1.108c.02-.029 2.093-2.862 6.787-.522 2.547 1.27 3.661.45 5.069-.589l.067-.049a.96.96 0 0 0-1.139-1.546z"/></svg>