<svg xmlns="http://www.w3.org/2000/svg" viewBox="0 0 32 32"><path fill="currentColor" d="M11.133 3.333a3.333 3.333 0 1 0 6.666 0 3.333 3.333 0 1 0-6.666 0M1.8 15.6a.4.4 0 1 0 .8 0 .4.4 0 1 0-.8 0m-.533 6.133a.8.8 0 1 0 1.6 0 .8.8 0 1 0-1.6 0m2.933 4.8a1.2 1.2 0 1 0 2.4 0 1.2 1.2 0 1 0-2.4 0m9.067 3.733a1.733 1.733 0 0 0 3.466 0 1.733 1.733 0 0 0-3.466 0m9.066-4.133a2.133 2.133 0 0 0 4.266 0 2.133 2.133 0 0 0-4.266 0m3.334-9.6a2.533 2.533 0 1 0 5.066 0 2.533 2.533 0 1 0-5.066 0m-4.534-9.466a2.933 2.933 0 1 0 5.866 0 2.933 2.933 0 1 0-5.866 0"/></svg>