<svg xmlns="http://www.w3.org/2000/svg" viewBox="0 0 32 32"><path fill="currentColor" d="m7.432 15.225 7.203 3.645c.449.225.985.363 1.572.363.535 0 1.088-.138 1.572-.363l7.203-3.645c.397-.225.674-.674.674-1.123 0-.501-.276-.898-.674-1.123l-7.203-3.645a3.3 3.3 0 0 0-1.572-.397c-.535 0-1.088.138-1.572.363l-7.203 3.627c-.397.276-.674.674-.674 1.175 0 .432.276.881.674 1.123m16.807 2.297-7.065 3.869c-.587.276-1.261.276-1.796 0l-7.151-3.869c-.449-.276-1.036-.086-1.313.363s-.086 1.036.363 1.313l7.203 3.869c.553.276 1.14.415 1.762.397.587 0 1.175-.138 1.796-.397l7.203-3.869a.954.954 0 0 0 .311-1.313c-.294-.466-.864-.639-1.313-.363M6.016 7.124c0 1.157-.915 2.107-2.038 2.107S1.94 8.298 1.94 7.124c0-1.157.915-2.107 2.038-2.107 1.14 0 2.038.95 2.038 2.107m24.718 16.341c0 1.157-.916 2.09-2.038 2.09s-2.038-.933-2.038-2.09.916-2.107 2.038-2.107 2.038.933 2.038 2.107M10.161 3.082a1.139 1.139 0 1 1-2.28 0c0-.639.518-1.14 1.14-1.14s1.14.501 1.14 1.14m-1.762-.95a15.9 15.9 0 0 1 7.98-1.935c4.267.086 8.239 1.831 11.193 4.888s4.526 7.065 4.422 11.28c-.052 2.505-.708 4.923-1.952 7.22-.138.38-.518.622-.967.622-.605-.017-1.071-.501-1.054-1.071 0-.086.017-.138.035-.19v-.086l.052-.104c1.071-1.9 1.658-4.042 1.71-6.339.086-3.645-1.278-7.099-3.817-9.725-2.556-2.643-5.977-4.128-9.673-4.215a13.73 13.73 0 0 0-6.754 1.606M4.478 8.678a13.4 13.4 0 0 0-2.263 7.151c-.086 3.645 1.278 7.099 3.817 9.725 2.556 2.643 5.977 4.128 9.673 4.215 2.937.069 5.752-.795 8.239-2.505a.93.93 0 0 1 .708-.294c.605.017 1.071.501 1.054 1.071 0 .259-.104.518-.294.708-2.798 2.004-6.046 3.057-9.38 3.057h-.38C6.825 31.599-.205 24.344.002 15.621c.052-2.954.985-5.735 2.522-8.101"/></svg>