<svg xmlns="http://www.w3.org/2000/svg" viewBox="0 0 1024 1024"><path fill="currentColor" d="M314.027 51.2h-184.32C61.44 51.2 0 105.813 0 180.907v184.32c0 68.267 54.613 129.707 129.707 129.707h184.32c68.267 0 129.707-54.613 129.707-129.707V174.08c-6.827-68.267-61.44-122.88-129.707-122.88m61.44 314.027c0 34.133-27.307 61.44-61.44 61.44h-184.32c-34.133 0-61.44-27.307-61.44-61.44V174.08c0-34.133 27.307-61.44 61.44-61.44h184.32c34.133 0 61.44 27.307 61.44 61.44zm-61.44 163.84h-184.32C61.44 529.067 0 583.68 0 658.774v184.32c0 68.267 54.613 129.707 129.707 129.707h184.32c68.267 0 129.707-54.613 129.707-129.707v-184.32c-6.827-75.093-61.44-129.707-129.707-129.707m61.44 314.027c0 34.133-27.307 61.44-61.44 61.44h-184.32c-34.133 0-61.44-27.307-61.44-61.44v-184.32c0-34.133 27.307-61.44 61.44-61.44h184.32c34.133 0 61.44 27.307 61.44 61.44zm614.4 20.48H552.96c-20.48 0-34.133 13.653-34.133 34.133s13.653 34.133 34.133 34.133h436.907c20.48 0 34.133-13.653 34.133-34.133s-13.653-34.133-34.133-34.133m0-518.827H552.96c-20.48 0-34.133 13.653-34.133 34.133s13.653 34.133 34.133 34.133h436.907c20.48 0 34.133-13.653 34.133-34.133s-13.653-34.133-34.133-34.133m0 293.547H552.96c-20.48 0-34.133 13.653-34.133 34.133s13.653 34.133 34.133 34.133h436.907c20.48 0 34.133-13.653 34.133-34.133s-13.653-34.133-34.133-34.133M546.133 194.56h443.733c20.48 0 34.133-13.653 34.133-34.133s-13.653-34.133-34.133-34.133H552.959c-20.48 0-34.133 13.653-34.133 34.133-6.827 20.48 6.827 34.133 27.307 34.133"/></svg>