<svg xmlns="http://www.w3.org/2000/svg" viewBox="0 0 32 32"><path fill="currentColor" d="M22.72 13.76c1.28-1.28 1.28-3.2 0-4.48s-3.2-1.28-4.48 0l-7.52 7.52 4.48 4.48zm-14.4 8.96c-.16.64.32 1.12.96.96l4.8-1.28-4.48-4.48zM9.6 4.96C11.52 3.84 13.76 3.2 16 3.2c5.28 0 10.24 3.36 12 8.32.16.64.8 1.12 1.44 1.12.16 0 .32 0 .48-.16.8-.32 1.28-1.28.96-2.08C28.64 4.16 22.72 0 16 0c-2.88 0-5.6.8-8 2.24-.8.32-1.12 1.28-.64 2.08s1.44 1.12 2.24.64m0 22.08C5.6 24.8 3.2 20.48 3.2 16c0-3.04 1.12-5.92 3.04-8.16.64-.64.48-1.76-.16-2.24-.8-.64-1.76-.48-2.4.16C1.28 8.64 0 12.32 0 16c0 5.76 3.04 11.04 8 13.92.32.16.48.16.8.16.48 0 1.12-.32 1.44-.8.48-.8.16-1.76-.64-2.24M30.4 14.4c-.96 0-1.6.8-1.6 1.6 0 7.04-5.76 12.8-12.8 12.8-.8 0-1.44 0-2.24-.16-.96-.16-1.76.48-1.92 1.28s.48 1.76 1.28 1.92c.96.16 1.92.16 2.88.16 8.8 0 16-7.2 16-16 0-.96-.64-1.6-1.6-1.6"/></svg>