<svg xmlns="http://www.w3.org/2000/svg" viewBox="0 0 32 32"><path fill="currentColor" d="M31.138 5.81c-2.059-.498-4.12-.984-6.181-1.474q-1.81-.431-3.622-.86c-.392-.092-.392-.087-.417-.491-.006-.089-.201-2.84-.219-2.985-.05 0-17.117 1.118-17.369 1.139.017.198.582 8.987.639 9.798.008.119-.034.167-.15.199-.851.239-3.132.902-3.428.988l5.701 19.875L22.824 27.2l-.641-2.261 4.624 1.098c.022-.054 3.266-13.647 3.642-15.213.354-1.473.718-2.943 1.061-4.418.136-.584.214-.455-.373-.597zM19.863.897l.148 2.236-5.329-1.271c-.193.806-1.208 5.057-1.526 6.406-.032.135-.095.202-.235.242-2.566.732-7.814 2.232-7.903 2.25l-.577-8.857zM5.846 27.345 1.625 12.631 16.49 8.367l4.22 14.713zm24.407-19.54c-1.034 4.334-1.998 8.685-3.104 13.002-.126.491-.169.593-.74.466-1.819-.401-3.623-.865-5.436-1.291-.163-.038-.235-.114-.28-.272-1.161-4.065-2.328-8.127-3.491-12.192-.047-.164-.099-.218-.283-.162-.792.24-2.518.723-2.637.754l1.235-5.176 15.035 3.593c-.102.437-.199.858-.299 1.278M9.984 13.089l-.011-.015-.025-.036-.004.004.04.046zm0 0q.007.008 0 0m6.755 8.959c-.908-.935-.494-2.986-.533-3.347-.08-.756-.421-1.066-1.177-1.139-.213-.02-1.455-.059-1.704-.701.283-.192.56-.371.827-.565.43-.312.879-.605 1.271-.96.507-.46.478-.743-.05-1.181-.821-.682-2.933-2.293-3.626-1.996-.381.163-.796.075-1.025-.396-.221.159-.705.509-.775.49-.629-.168-1.089-.151-1.481.423-.423.62-.768 1.917-.821 2.643-.092 1.259.656 2.21.872 2.315.472.23.753.585.905 1.071.338 1.079 1.08 2.843 1.023 3.405-.407-.177-1.456-1.057-1.84-1.675-.233-.375-.658-.629-.826-1.038-.075-.183-1.124-.643-1.635-.296l.457.114c-.278.523-1.384-.029-1.52-.048.247.625 1.574.871 1.869.814.418-.081.767.155 1.017.5.158.218 1.758 2.389 2.61 3.068.222.177.476.314.744.488.429-.931.348-1.852.272-2.773a.86.86 0 0 1 .674.193c.891.695 1.401 1.605 1.488 2.757l3.495-1.061c-.178-.388-.237-.823-.513-1.106zm-2.193-7.55c.143.113.134.221.007.321-.554.437-1.924 1.261-2.196.666-.192-.419-.554-1.851-.624-2.126.436-.876 2.527.911 2.814 1.138zm-.146 9.074c-.142.047-.199.013-.241-.12-.46-1.464-1.819-2.566-2.661-2.736-.1-.02-.204-.018-.319-.027a5.4 5.4 0 0 1 .031 2.116c-.081.445-.182.486-.546.208a7 7 0 0 1-.707-.642c.313.042.601.207.933.11-.081-.728-.723-2.74-.809-3.444-.012-.097.08-.43.325-.674.196-.195.176-.259-.077-.384-.408-.202-1.958-.463-2.21-1.751-.085-.436-.099-.873.011-1.296.138-.532.592-1.745.642-1.828.383-.63.763-.65 1.176-.065l.579-.521c.258.196.462.318.627.483.195.195 1.007 3.378 1.033 3.436.971-.375 1.955-.712 2.651-1.548.107-.129.216-.251.412-.236.149.011.172.084.096.188-.077.105-1.717 1.507-2.445 2.113-.196.163-.21.204-.023.385.351.339 2.473.67 2.481.672.047.505-.233 1.934-.385 2.087.175.041.175.041.811-.362-.225 1.188.272 2.166.853 3.145-.294.091-1.781.541-2.239.693zm.119-3.342c-.826.173-2.057-.529-2.343-.587-.244-.049-.32.044-.247.277.111.354.7 1.2 1.307 1.122a2.7 2.7 0 0 0 1.285-.53c.087-.066.184-.118.277-.177-.026-.031-.232-.115-.279-.105m-.358-.883c.027.056.078.043.111.041-.078-.405-.148-.807.305-1.066-.392.049-.4.453-.529.625-.618-.33-1.307-.379-1.709-.069.255-.111 1.581-.029 1.822.469m-4.896-5.105c-.203.357-.279 1.065-.098 1.258v-.227c.007-.604.063-1.182.799-1.42-.27-.063-.535.096-.701.389m5.86 7.681.198.355.083-.045-.215-.349-.065.039z"/></svg>