<svg xmlns="http://www.w3.org/2000/svg" viewBox="0 0 32 32"><path fill="currentColor" d="M30.349 10.335c-.649 0-1.171.527-1.171 1.175v6.818q0 .045.004.089v3.036h-3.091V8.525a2.343 2.343 0 0 0-2.338-2.346H9.837V2.348h19.297v2.006c0 .651.526 1.175 1.171 1.175s1.167-.524 1.171-1.175V2.382q0-.05-.005-.1C31.457 1.025 30.415.003 29.134.003H9.837a2.344 2.344 0 0 0-2.338 2.346V6.18h-4.68A2.344 2.344 0 0 0 .481 8.526v21.13a2.344 2.344 0 0 0 2.338 2.346h20.934a2.346 2.346 0 0 0 2.338-2.346V23.8h3.091a2.347 2.347 0 0 0 2.338-2.35v-9.938a1.17 1.17 0 0 0-1.171-1.175zm-6.597 19.319H2.818V8.524h20.934zm5.381-21.715v.002a1.172 1.172 0 1 0 2.342.001v-.001c0-.649-.524-1.176-1.17-1.176s-1.171.526-1.172 1.175zM6.592 20.73l4.527 3.626c.094.077.204.141.322.185l.008.003c.144.068.312.108.49.108h.001c.358 0 .712-.168.943-.479l7.368-10.051a1.169 1.169 0 1 0-1.883-1.388l-6.666 9.085-3.648-2.922a1.165 1.165 0 0 0-1.644.183 1.177 1.177 0 0 0 .183 1.65z"/></svg>