<svg xmlns="http://www.w3.org/2000/svg" viewBox="0 0 32 32"><path fill="currentColor" d="M10.922 0C8.099 0 5.837.815 4.298 2.472 2.778 4.11 2.174 6.341 2.174 8.746v10.155a1.493 1.493 0 0 0 2.986 0V8.746c0-1.947.486-3.342 1.323-4.243.82-.882 2.185-1.517 4.439-1.517h11.606c2.254 0 3.62.635 4.438 1.517.837.901 1.323 2.296 1.323 4.243v14.507c0 1.947-.486 3.342-1.323 4.243-.818.882-2.183 1.517-4.438 1.517h-7.254a1.493 1.493 0 0 0 0 2.986h7.254c2.823 0 5.085-.815 6.624-2.472 1.52-1.638 2.122-3.869 2.122-6.274V8.746c0-2.405-.602-4.637-2.122-6.274C27.614.815 25.351 0 22.528 0zm10.921 5.12.001-.047a1.493 1.493 0 0 0-2.986 0l.001.049V5.12v2.901a4.4 4.4 0 0 0 4.392 4.394h2.902a1.493 1.493 0 0 0 0-2.986h-2.901a1.42 1.42 0 0 1-1.409-1.408zM6.175 22.199a1.49 1.49 0 0 1 0 2.11l-1.847 1.847 1.847 1.847a1.493 1.493 0 1 1-2.11 2.11l-.001-.001-2.901-2.901a1.49 1.49 0 0 1 0-2.11L4.064 22.2c.27-.27.643-.437 1.055-.437s.785.167 1.055.437zm4.351 0a1.493 1.493 0 1 0-2.112 2.109l.001.001 1.847 1.847-1.847 1.847a1.493 1.493 0 1 0 2.11 2.11l.001-.001 2.901-2.901a1.49 1.49 0 0 0 0-2.11z"/></svg>