<svg xmlns="http://www.w3.org/2000/svg" viewBox="0 0 45 32"><path fill="currentColor" d="M33 5.283c-1.191-1.531-2.778-2.835-4.536-3.742C26.65.634 24.665.18 22.567.18a13.04 13.04 0 0 0-9.299 3.856c-2.381 2.381-3.742 5.557-3.856 8.959-2.495 0-4.876.964-6.634 2.778C1.02 17.531 0 19.912 0 22.407s.964 4.876 2.778 6.634c1.758 1.758 4.139 2.778 6.634 2.778h9.469c.851 0 1.474-.68 1.474-1.474 0-.851-.68-1.474-1.474-1.474H9.412c-1.701 0-3.289-.68-4.479-1.871s-1.871-2.835-1.871-4.479c0-1.701.68-3.289 1.871-4.479s2.835-1.871 4.479-1.871h1.531c.397 0 .794-.17 1.134-.51a1.73 1.73 0 0 0 .397-1.134c-.057-.34-.057-.68-.057-1.021 0-2.722 1.077-5.273 2.948-7.201 1.928-1.928 4.479-2.948 7.201-2.948 1.588 0 3.119.34 4.536 1.077a10.05 10.05 0 0 1 3.459 2.892c.284.397.737.567 1.191.567.34 0 .624-.113.907-.34.34-.227.51-.624.567-1.021.113-.567 0-.964-.227-1.247zm8.505 8.279c0-.113-.057-.227-.113-.397l-.057-.113c-.227-.454-.737-.794-1.247-.851H25.572c-.624 0-1.134.34-1.418.851l-.057.17c-.057.113-.057.227-.113.34l-2.948 10.376c.454-.113.907-.227 1.361-.227h20.696c.454 0 .907.113 1.361.227zm1.701 11.227H22.51c-1.134 0-2.041.907-2.041 1.985s.907 2.552 2.041 2.552h20.696c1.134 0 2.041-1.418 2.041-2.552.057-1.077-.907-1.985-2.041-1.985m-2.098 3.345c-.624 0-1.134-.51-1.134-1.077 0-.624.51-1.077 1.134-1.077s1.134.51 1.134 1.077-.51 1.077-1.134 1.077"/></svg>