<svg xmlns="http://www.w3.org/2000/svg" viewBox="0 0 32 32"><path fill="currentColor" d="M27.554 7.913c.185-.182.393-.39.529-.629 1.009-1.253 1.129-3.15.282-4.526-.855-1.386-2.118-2.09-3.758-2.09H4.297c-.393 0-.798 0-1.155.11A4.13 4.13 0 0 0 .915 2.215l-.006.009A4.1 4.1 0 0 0 0 4.782v.001c0 1.188.452 2.241 1.276 2.965 2.611 2.521 5.219 5.126 7.739 7.65v8.327l.005.069c.136 1.096.97 1.694 1.977 1.263l.018-.008c.547-.272.86-.821.86-1.507v-8.561l.002-.08a1.9 1.9 0 0 0-.534-1.32l.001.001c-1.258-1.26-2.5-2.57-3.702-3.838a205 205 0 0 0-3.869-4.008l.014.014-.062-.062-.077-.041a1 1 0 0 1-.091-.103l-.001-.002a2 2 0 0 0-.104-.128l.002.002c-.231-.295-.282-.547-.172-.886.187-.426.565-.911 1.019-.911h20.49c.252 0 .49.133.678.377.244.318.334.739.234 1.106-.051.203-.136.295-.39.552a721 721 0 0 0-8.347 8.247l-.026.026-.015.015a1.88 1.88 0 0 0-.621 1.398v14.391c0 .175 0 .675.364 1.073 0 0 .11.249.59.431.588.223 1.163-.031 1.163-.031l.151-.113c.59-.442.59-1.132.59-1.545V15.941c1.412-1.412 2.872-2.777 4.287-4.105a174 174 0 0 0 4.123-3.944l-.016.016zm3.152 18.436h-7.749c-.707 0-1.281.573-1.281 1.281v.011-.001.364c0 .811.655 1.294 1.291 1.294h7.752c.707 0 1.281-.573 1.281-1.281v-.014.001-.364c0-.77-.519-1.291-1.294-1.291m0-4.646h-7.749c-.707 0-1.281.573-1.281 1.281v.014-.001.275c0 .809.655 1.291 1.291 1.291h7.752c.707 0 1.281-.573 1.281-1.281v-.011.001-.285c0-.707-.573-1.281-1.281-1.281h-.014.001zm0-4.462h-7.749c-.707 0-1.281.573-1.281 1.281v.014-.001.18c0 .811.655 1.294 1.291 1.294h7.752c.707 0 1.281-.573 1.281-1.281v-.011.001-.182c0-.773-.519-1.294-1.294-1.294z"/></svg>