<svg xmlns="http://www.w3.org/2000/svg" viewBox="0 0 32 32"><path fill="currentColor" d="M30.452 16a1.55 1.55 0 0 1-1.548-1.548V8.258c0-1.71-.354-2.065-2.065-2.065H5.162c-1.71 0-2.065.354-2.065 2.065v15.484c0 1.71.354 2.065 2.065 2.065h11.871a1.548 1.548 0 1 1 0 3.096H3.098a3.097 3.097 0 0 1-3.097-3.097V6.193a3.097 3.097 0 0 1 3.097-3.097h25.806a3.097 3.097 0 0 1 3.097 3.097v8.258c0 .855-.693 1.548-1.548 1.548zm-8.258 5.677h8.258a1.548 1.548 0 1 1 0 3.096h-8.258a1.548 1.548 0 1 1 0-3.096"/></svg>