<svg xmlns="http://www.w3.org/2000/svg" viewBox="0 0 32 32"><path fill="currentColor" d="M25.606 12.076c-.91-4.54-4.864-7.912-9.606-7.912s-8.696 3.372-9.595 7.85l-.011.063a6.705 6.705 0 1 0 .638 13.395l-.015.001h1.048a.788.788 0 0 0 0-1.576H6.978a5.122 5.122 0 0 1-.041-10.244h.002l.788.181.102-.867c.522-4.073 3.967-7.188 8.14-7.188s7.618 3.116 8.136 7.147l.004.041.158.851.788-.165a5.123 5.123 0 0 1-.039 10.244h-1.221a.788.788 0 0 0 0 1.576h1.19a6.705 6.705 0 0 0 .637-13.396l-.015-.001zm-9.047 2.868a.786.786 0 0 0-1.118 0l-4.452 4.452a.786.786 0 0 0 0 1.118.79.79 0 0 0 1.112 0l3.113-3.113v9.645a.788.788 0 0 0 1.576 0v-9.645l3.152 3.113a.8.8 0 0 0 .555.229h.005a.788.788 0 0 0 .552-1.347z"/></svg>