<svg xmlns="http://www.w3.org/2000/svg" viewBox="0 0 32 32"><path fill="currentColor" d="M19.425 25.144a1.14 1.14 0 0 1-1.143-1.143V11.426c0-.633.51-1.143 1.143-1.143s1.143.51 1.143 1.143v12.569c0 .633-.51 1.149-1.143 1.149m-6.856 0a1.14 1.14 0 0 1-1.143-1.143V11.426c0-.633.51-1.143 1.143-1.143s1.143.51 1.143 1.143v12.569c0 .633-.51 1.149-1.143 1.149M30.857 5.713h-5.713V3.428C25.144 1.536 23.621 0 21.741 0H10.284a3.43 3.43 0 0 0-3.428 3.428v2.285H1.143C.51 5.713 0 6.223 0 6.856s.51 1.143 1.143 1.143h29.715c.633 0 1.143-.51 1.143-1.143s-.51-1.143-1.143-1.143zM9.141 3.428c0-.627.516-1.143 1.143-1.143h11.457c.627 0 1.118.504 1.118 1.143v2.285H9.141zM24.002 32H8.005a3.43 3.43 0 0 1-3.428-3.428V11.414c0-.633.51-1.143 1.143-1.143s1.143.51 1.143 1.143v17.158c0 .633.516 1.143 1.143 1.143h16.003a1.14 1.14 0 0 0 1.143-1.143V11.457c0-.633.51-1.143 1.143-1.143s1.143.51 1.143 1.143v17.115A3.44 3.44 0 0 1 24.004 32z"/></svg>