<svg xmlns="http://www.w3.org/2000/svg" viewBox="0 0 32 32"><path fill="currentColor" d="M24.017 12.58a8.002 8.002 0 1 0-16.004 0 6.002 6.002 0 1 0 0 12.004v2.001h-.011a8.002 8.002 0 0 1-1.884-15.781l.055-.011c.884-4.697 4.954-8.202 9.843-8.202s8.959 3.506 9.833 8.14l.01.062c3.55.871 6.142 4.026 6.142 7.786a8.006 8.006 0 0 1-7.981 8.006h-.001v-2.001a6.002 6.002 0 1 0 0-12.004zM8.013 24.583h4.001v2.001H8.013zm12.003 0h4.001v2.001h-4.001zm-3.167-6.589v10.411a1.014 1.014 0 0 1-1 1.006h-.001a1.014 1.014 0 0 1-1-1.006V17.994l-1.128 1.128a1 1 0 0 1-1.408-.007.985.985 0 0 1-.006-1.408l2.841-2.841a.98.98 0 0 1 .692-.286h.013-.001.026a.94.94 0 0 1 .674.284l2.841 2.843a1 1 0 0 1-.007 1.408.985.985 0 0 1-1.408.006l-1.128-1.128z"/></svg>