<svg xmlns="http://www.w3.org/2000/svg" viewBox="0 0 32 32"><path fill="currentColor" d="M30.217 8.652a1.17 1.17 0 0 0-1.033-.636 1.15 1.15 0 0 0-.987 1.737l-.004.004A13.64 13.64 0 0 1 29.698 16c0 7.562-6.133 13.695-13.695 13.695S2.305 23.562 2.305 16 8.438 2.309 16 2.309c2.234 0 4.342.536 6.204 1.483l.007-.014a1.15 1.15 0 0 0 1.712-1c0-.468-.282-.872-.69-1.051A15.9 15.9 0 0 0 16 .001c-8.838 0-16 7.165-16 16s7.162 16 16 16 16-7.162 16-16c0-2.648-.643-5.146-1.783-7.348zm-15.014 8.234 4.9 4.903c.443.443 1.172.443 1.615 0s.443-1.169 0-1.615l-4.567-4.571V8.055c0-.625-.511-1.14-1.14-1.14-.625 0-1.14.511-1.14 1.14v8.02c0 .293.111.59.332.811M25.281 5.582c0 .634.515 1.147 1.151 1.147s1.151-.514 1.151-1.147c0-.634-.515-1.147-1.151-1.147s-1.151.514-1.151 1.147"/></svg>