<svg xmlns="http://www.w3.org/2000/svg" viewBox="0 0 32 32"><path fill="currentColor" d="M16.184 29.8c.873 0 1.584-.711 1.584-1.616 0-.873-.711-1.584-1.584-1.584s-1.616.711-1.616 1.584c.032.905.743 1.616 1.616 1.616M23.74 0H8.261c-1.811 0-3.26 1.422-3.26 3.2v25.6c0 1.778 1.449 3.2 3.26 3.2H23.74c1.811 0 3.26-1.422 3.26-3.2V3.2C27 1.422 25.551 0 23.74 0m.036 30.4H8.584C7.711 30.4 7 29.689 7 28.784V25h18.392v3.784c-.032.873-.743 1.616-1.616 1.616M25 22.784H7v-19.2C7 2.711 7.695 2 8.547 2h14.842c.853 0 1.547.711 1.547 1.584v19.2z"/></svg>