<svg xmlns="http://www.w3.org/2000/svg" viewBox="0 0 32 32"><path fill="currentColor" d="M8.111 21.647a1.162 1.162 0 0 1-.918-1.87l4.628-6.01a1.157 1.157 0 0 1 1.633-.207l4.362 3.42 3.812-4.923a1.161 1.161 0 0 1 1.836 1.42l-4.527 5.845c-.188.246-.469.401-.773.44s-.614-.048-.86-.237l-4.357-3.42-3.913 5.082c-.232.3-.575.459-.923.459zm19.71-13.386c-2.28 0-4.13-1.85-4.13-4.13s1.855-4.13 4.13-4.13 4.13 1.85 4.13 4.13-1.855 4.13-4.13 4.13m0-5.942a1.813 1.813 0 0 0 0 3.624 1.813 1.813 0 0 0 0-3.624M22.043 32H8.748c-5.203 0-8.7-3.657-8.7-9.097V10.41c0-5.449 3.498-9.111 8.7-9.111H19.98a1.16 1.16 0 0 1 0 2.318H8.748c-3.879 0-6.382 2.667-6.382 6.792v12.493c0 4.184 2.444 6.778 6.382 6.778h13.295c3.879 0 6.382-2.662 6.382-6.778V12.023a1.16 1.16 0 0 1 2.318 0v10.879c0 5.44-3.498 9.097-8.7 9.097z"/></svg>