<svg xmlns="http://www.w3.org/2000/svg" viewBox="0 0 32 32"><path fill="currentColor" d="M13.121 11.6c3.749 0 7.645-.824 9.984-2.394v2.861h2.167V5.8c0-3.767-6.261-5.8-12.152-5.8S.969 2.033.969 5.8v17.096c0 3.767 6.261 5.8 12.151 5.8v-2.167c-6.186 0-9.984-2.116-9.984-3.633v-5.142c2.34 1.57 6.236 2.394 9.984 2.394v-2.167c-6.186 0-9.984-2.116-9.984-3.633V9.206C5.475 10.775 9.371 11.6 13.12 11.6zm0-9.433c6.186 0 9.984 2.116 9.984 3.633s-3.798 3.633-9.984 3.633S3.137 7.317 3.137 5.8s3.798-3.633 9.984-3.633m9.713 10.618c-5.381 0-8.196 2.07-8.196 4.115v10.986c0 2.045 2.815 4.114 8.196 4.114 5.34 0 8.152-2.039 8.194-4.069h.002V16.899c0-2.045-2.815-4.114-8.196-4.114m0 2.167c3.977 0 6.028 1.365 6.028 1.947s-2.051 1.947-6.028 1.947c-3.978 0-6.029-1.365-6.029-1.947s2.051-1.947 6.029-1.947m0 14.88c-3.978 0-6.029-1.365-6.029-1.947v-2.623c1.375.747 3.394 1.244 6.029 1.244s4.653-.497 6.028-1.244v2.623c0 .582-2.051 1.947-6.028 1.947m0-5.493c-3.978 0-6.029-1.365-6.029-1.947v-2.623c1.375.747 3.394 1.244 6.029 1.244s4.653-.497 6.028-1.244v2.623c0 .582-2.051 1.947-6.028 1.947m0 0"/></svg>