<svg xmlns="http://www.w3.org/2000/svg" viewBox="0 0 32 32"><path fill="currentColor" d="M30.121 27.164h-1.85v-1.85a.617.617 0 1 0-1.234 0v1.85h-1.85a.617.617 0 1 0 0 1.234h1.85v1.85a.617.617 0 1 0 1.234 0v-1.85h1.85a.617.617 0 1 0 0-1.234M28.765 1.135a3.235 3.235 0 1 0 0 6.47 3.235 3.235 0 0 0 0-6.47m0 4.851a1.617 1.617 0 1 1 0-3.234 1.617 1.617 0 0 1 0 3.234M2.467 16.811a2.467 2.467 0 1 0 0 4.934 2.467 2.467 0 0 0 0-4.934m0 3.701a1.234 1.234 0 1 1 0-2.468 1.234 1.234 0 0 1 0 2.468M7.343 3.401a1.542 1.542 0 1 0 3.084 0 1.542 1.542 0 1 0-3.084 0M24.69 17.364c-1.868 1.385-3.993 5.674-4.27 7.187.388.682 2.071 1.735 2.565 1.688 2.219-1.839 4.022-6.149 4.267-7.115-.365-.546-1.469-1.703-2.562-1.76m-.139-4.046c-.175-.012.496.439.796.546V8.702c0-.793-.643-1.435-1.435-1.435H13.185c.151.785-.012 1.674-.518 2.452-.771 1.185-2.531 1.746-3.681 1.472v15.737c0 .793.643 1.435 1.435 1.435h5.936c4.63-12.249 8.217-15.044 8.194-15.045m-9.148-3.985h5.234v.882h-5.234zm-4.269 2.688h9.524v.902h-9.524zm-.002 2.721h9.509v.937h-9.509zm.001 3.803v-.937h2.62v.937zm-.215-.466h2.606v1.036h-2.606zm0-5.589h9.507v1.036h-9.507zM7.641 24.626l.036-14.607s1.237.336 1.659.414.813.015 1.179-.101c.34-.108.696-.26.982-.506.296-.256.528-.594.626-.996.062-.251.128-.541.114-.807 0 0-.088-.688-.175-.866s-.298-.703-.298-.703h9.52c1.073.083 1.799.652 2.183 1.813v6.248l.889-1.081V8.267c0-.745-.31-1.421-.807-1.911s-1.185-.793-1.942-.793H11.544l-.303.282L6.788 10v14.589c0 .74.309 1.415.807 1.906l.002.003.002.002a2.77 2.77 0 0 0 1.939.794h7.238l.285-.891H9.358c-.587-.031-1.792-.985-1.716-1.777zm3.568-17.612s.816 1.748-.419 2.573c-.177.118-.946.327-1.265.242a59 59 0 0 1-.969-.304zm-.291 8.202h9.507v1.036h-9.507zm4.268-5.425h5.239v1.036h-5.239zm2.919 18.862.24.127-.251 1.111.5.267.776-.832.181.097 2.672-2.466-3.612-1.923zm5.451-12.611c-2.115 2.478-3.608 5.251-4.556 8.283l3.613 1.922c1.944-2.567 3.473-5.324 4.556-8.282zm-1.149 9.48-2.749-1.543 3.886-7.319 2.928 1.651-4.066 7.212zm6.785-8.86-1.866-.992-.083-.543-1.445-.769-1.845.962 4.2 2.235c-.466 2.003-1.351 3.776-2.695 5.301l.974.829c1.599-1.815 2.61-3.937 3.084-6.341l.091-.46z"/></svg>