<svg xmlns="http://www.w3.org/2000/svg" viewBox="0 0 32 32"><path fill="currentColor" d="M29.714 0A2.286 2.286 0 0 1 32 2.286v22.857a2.286 2.286 0 0 1-2.286 2.286h-2.286v2.286a2.286 2.286 0 0 1-2.286 2.286H2.285a2.286 2.286 0 0 1-2.286-2.286V6.858a2.286 2.286 0 0 1 2.286-2.286h2.286V2.286A2.286 2.286 0 0 1 6.857 0zm-5.028 7.314H2.743v21.943h21.943zM19.2 22.857a1.371 1.371 0 0 1 0 2.742H8.229a1.371 1.371 0 0 1 0-2.742zM29.257 2.743H7.314l-.002 1.829h17.831a2.286 2.286 0 0 1 2.286 2.286v17.829h1.829V2.744z"/></svg>