<svg xmlns="http://www.w3.org/2000/svg" viewBox="0 0 32 32"><path fill="currentColor" d="M16 31.897c-2.144 0-4.228-.422-6.188-1.25-1.894-.8-3.594-1.947-5.053-3.406s-2.606-3.159-3.406-5.053C.525 20.229.103 18.147.103 16s.422-4.228 1.25-6.188c.8-1.894 1.947-3.594 3.406-5.053s3.159-2.606 5.053-3.406C11.771.525 13.853.103 16 .103s4.228.422 6.188 1.25c1.894.8 3.594 1.947 5.053 3.406s2.606 3.159 3.406 5.053c.828 1.959 1.25 4.041 1.25 6.188s-.422 4.228-1.25 6.188c-.8 1.894-1.947 3.594-3.406 5.053s-3.159 2.606-5.053 3.406A15.8 15.8 0 0 1 16 31.897m0-30.288c-7.938 0-14.394 6.456-14.394 14.394S8.062 30.397 16 30.397s14.394-6.456 14.394-14.394S23.938 1.609 16 1.609m.012 26.879-.003-1.5c.459 0 .925-.031 1.378-.087l.188 1.488c-.512.066-1.038.1-1.563.1zm-1.562-.097a13 13 0 0 1-1.541-.291l.369-1.453c.444.113.9.2 1.356.256zm4.669-.297-.375-1.453c.444-.116.884-.256 1.309-.428l.553 1.394c-.481.194-.984.359-1.488.488zm-7.703-.475a13 13 0 0 1-1.419-.666l.722-1.316c.403.222.822.419 1.247.587l-.55 1.394zm10.609-.681-.725-1.313c.4-.222.791-.472 1.163-.741l.884 1.212c-.422.306-.866.591-1.322.841zm-13.353-.825a13 13 0 0 1-1.209-.997l1.025-1.094c.334.313.694.609 1.063.878l-.878 1.212zm15.881-1.016-1.028-1.094c.334-.316.653-.653.944-1.006l1.156.956c-.331.403-.694.788-1.072 1.144M6.391 23.972c-.334-.4-.644-.828-.925-1.266l1.266-.806c.247.387.519.762.813 1.113zm20.156-1.284-1.266-.803c.247-.387.469-.794.666-1.209l1.356.637c-.222.472-.478.934-.756 1.375M4.709 21.337a13 13 0 0 1-.581-1.456l1.425-.466c.141.434.313.866.509 1.281zm23.169-1.484-1.425-.462c.141-.434.256-.884.341-1.334l1.475.278c-.1.512-.228 1.022-.391 1.519zM3.737 18.359a13 13 0 0 1-.197-1.556l1.497-.094c.028.459.088.919.175 1.369zm24.722-1.581-1.497-.091c.012-.225.022-.456.022-.684q.001-.349-.022-.697l1.497-.094q.024.395.025.791c0 .256-.009.519-.025.775M5.034 15.331l-1.497-.091c.031-.522.097-1.044.191-1.556l1.475.278c-.084.45-.141.909-.169 1.369m21.757-1.393c-.084-.45-.2-.9-.344-1.334l1.425-.463q.243.747.391 1.519zM5.544 12.625l-1.428-.459c.159-.497.353-.988.575-1.459l1.359.637c-.194.412-.366.847-.506 1.281m20.397-1.303a11 11 0 0 0-.666-1.206l1.266-.806q.422.663.756 1.372zM6.713 10.134l-1.266-.803c.278-.441.588-.866.919-1.269l1.156.953c-.291.353-.563.731-.809 1.119M24.462 9a11 11 0 0 0-.944-1.006L24.546 6.9c.381.356.741.741 1.072 1.141zM8.466 8.009 7.438 6.918c.378-.356.784-.694 1.206-1.003l.884 1.213c-.372.269-.728.566-1.063.881zm13.99-.897a11 11 0 0 0-1.166-.741l.725-1.313c.456.25.9.534 1.322.841zm-11.768-.728-.725-1.313a13 13 0 0 1 1.416-.672l.556 1.394c-.425.172-.844.369-1.247.591m9.356-.6a11 11 0 0 0-1.313-.425l.372-1.453c.506.128 1.006.294 1.494.484zm-6.8-.418-.375-1.453a13 13 0 0 1 1.541-.297l.191 1.487c-.456.063-.912.15-1.356.263zm4.134-.263A11 11 0 0 0 16 5.019h-.025l-.006-1.5h.028c.522 0 1.047.031 1.563.097zm-4.403 5.022q.187.14.384.322.195.18.353.416.08.126.188.281c.108.155.141.209.203.313q.11.173.219.359h3.241a3 3 0 0 0 .203-.328q.078-.141.172-.281c.094-.14.119-.178.172-.25q.156-.22.313-.416c.157-.196.256-.259.453-.384a.73.73 0 0 0 .321-.453q.023-.127-.031-.244c-.054-.117-.106-.137-.212-.181q-.14-.046-.244-.031c-.104.015-.134.028-.203.056l-.212.088q-.11.047-.266.047c-.156 0-.191-.019-.259-.056s-.131-.081-.188-.134-.119-.106-.181-.166a.7.7 0 0 0-.25-.134q-.313-.126-.5-.047c-.187.079-.25.134-.375.25a2 2 0 0 1-.25.219.14.14 0 0 1-.078.031 1 1 0 0 1-.172-.109q-.08-.047-.15-.103a.7.7 0 0 1-.134-.134q-.126-.124-.375-.166a.64.64 0 0 0-.453.088q-.267.174-.375.291c-.108.117-.181.134-.328.166q-.126.032-.275-.016a9 9 0 0 0-.306-.094q-.155-.047-.297-.063c-.142-.016-.178.009-.25.063q-.22.173-.141.416.083.248.284.387zm8.475 7.456a4.5 4.5 0 0 0-.416-1.369q-.297-.596-.697-1.041a7 7 0 0 0-.775-.775 12 12 0 0 1-1.375-1.316 6 6 0 0 1-.469-.547h-3.522a8 8 0 0 1-.469.563 8 8 0 0 1-.547.588q-.33.32-.734.681-.47.407-.869.922c-.399.515-.488.722-.666 1.134q-.266.619-.369 1.322c-.103.703-.056.959.041 1.472q.126.69.516 1.384.39.698 1.056 1.259c.666.561.984.681 1.619.916q.954.352 2.191.353 1.206 0 2.153-.306c.947-.306 1.175-.478 1.634-.822q.69-.517 1.103-1.212a4.4 4.4 0 0 0 .556-1.478q.155-.95.038-1.728zm-3.616 2.616a.45.45 0 0 1-.259.072h-1.097v.313a.42.42 0 0 1-.119.275.36.36 0 0 1-.306.119.53.53 0 0 1-.313-.087q-.126-.085-.141-.306v-.313h-1.066q-.156 0-.259-.084c-.103-.084-.097-.128-.088-.212q0-.14.103-.228a.38.38 0 0 1 .244-.087h1.066v-1.141h-1.066q-.156 0-.25-.094c-.094-.094-.094-.134-.094-.219s.034-.163.103-.234a.33.33 0 0 1 .244-.109h1.066l.016-.328c-.188-.188-.359-.347-.516-.506a31 31 0 0 0-.375-.387l-.234-.209q-.08-.088-.141-.247c-.061-.159-.022-.213.063-.322a.3.3 0 0 1 .344-.081q.201.067.328.172.063.075.219.225l.328.313.422.403q.265-.239.484-.431.188-.163.375-.322.186-.155.266-.216.14-.118.313-.119c.173-.001.209.044.281.134q.202.223-.156.522-.094.075-.281.262c-.187.187-.25.247-.375.366-.147.15-.309.294-.484.462v.297h1.016q.22 0 .322.103c.102.103.103.144.103.228q0 .14-.094.244c-.094.104-.166.097-.313.087l-1.019.016-.016 1.125h1q.44 0 .438.328.023.147-.081.219z"/></svg>