<svg xmlns="http://www.w3.org/2000/svg" viewBox="0 0 32 32"><path fill="currentColor" d="m31.096 10.602-5.37 5.368c-.552.557-1.318.902-2.164.902s-1.611-.345-2.164-.902l-5.37-5.368c-.557-.552-.902-1.318-.902-2.164s.345-1.611.902-2.164l5.37-5.372C21.95.345 22.716 0 23.562 0s1.611.345 2.164.902l5.372 5.372c.557.552.902 1.318.902 2.164s-.345 1.611-.902 2.164zm-1.602-3.769-4.328-4.327a2.27 2.27 0 0 0-3.207 0l-4.327 4.327a2.27 2.27 0 0 0 0 3.207l4.327 4.327a2.27 2.27 0 0 0 3.207 0l4.327-4.327a2.27 2.27 0 0 0 0-3.207zM4.738 31.99h-.546a.761.761 0 0 1-.001-1.52H6.23a1 1 0 0 1 .107.007h3.606a2.24 2.24 0 0 0 2.241-2.241v-6.098a2.24 2.24 0 0 0-2.241-2.241H3.849c-1.282-.08-2.246.96-2.246 2.245v5.304H.082V21.42a3.043 3.043 0 0 1 3.045-3.045h7.614a3.043 3.043 0 0 1 3.045 3.045v7.613A3.16 3.16 0 0 1 10.662 32H4.731l.009-.009zm5.922-16.741H3.045A3.045 3.045 0 0 1 0 12.204V4.669c.08-1.684 1.442-3.047 3.045-3.047h7.614a3.044 3.044 0 0 1 3.045 3.047v7.613c0 1.604-1.362 2.967-3.045 2.967zm1.522-9.859a2.24 2.24 0 0 0-2.241-2.241H3.847c-1.282-.002-2.246.959-2.246 2.241v6.096a2.24 2.24 0 0 0 2.241 2.241h6.101a2.24 2.24 0 0 0 2.241-2.241V5.39zm7.613 12.904h7.614a3.044 3.044 0 0 1 3.047 3.045v7.613a3.045 3.045 0 0 1-3.047 3.047h-7.613a3.045 3.045 0 0 1-3.045-3.045v-7.613a3.044 3.044 0 0 1 3.045-3.047zM.843 24.902c.42 0 .759.34.759.761v2.035a.761.761 0 0 1-1.52.001v-2.037c0-.422.34-.761.759-.761zm17.431 3.33v.004a2.24 2.24 0 0 0 2.241 2.241h6.1a2.24 2.24 0 0 0 2.241-2.241v-6.098a2.24 2.24 0 0 0-2.241-2.241h-6.098a2.24 2.24 0 0 0-2.241 2.241v6.094z"/></svg>