<svg xmlns="http://www.w3.org/2000/svg" viewBox="0 0 32 32"><path fill="currentColor" d="M31.961 17.113c-.048.678-.623 1.174-1.314 1.141a1.23 1.23 0 0 1-1.141-1.314c.445-6.345-3.679-12.213-9.805-13.953A13.44 13.44 0 0 0 9.412 4.185a13.44 13.44 0 0 0-6.428 8.123c-.989 3.477-.562 7.131 1.198 10.289s4.645 5.443 8.123 6.429c6.128 1.748 12.718-1.083 15.676-6.716a1.23 1.23 0 0 1 2.178 1.144c-2.802 5.338-8.367 8.543-14.195 8.543-1.44 0-2.897-.195-4.332-.602a15.9 15.9 0 0 1-9.6-7.599C-.049 20.065-.552 15.745.616 11.636s3.866-7.519 7.597-9.6A15.9 15.9 0 0 1 20.373.62c7.24 2.057 12.114 8.995 11.587 16.494zm-15.959 6.686a1.23 1.23 0 0 0 1.23-1.23v-5.332h5.332a1.23 1.23 0 0 0 0-2.46h-5.332V9.445a1.23 1.23 0 0 0-2.46 0v5.332H9.44a1.23 1.23 0 0 0 0 2.46h5.332v5.332c0 .679.551 1.23 1.23 1.23"/></svg>