<svg xmlns="http://www.w3.org/2000/svg" viewBox="0 0 32 32"><path fill="currentColor" d="M16 23.95c-3.594 0-6.515-2.921-6.515-6.515S12.406 10.92 16 10.92s6.515 2.921 6.515 6.515A6.523 6.523 0 0 1 16 23.95m0-10.738c-2.33 0-4.224 1.893-4.224 4.224S13.669 21.66 16 21.66s4.224-1.893 4.224-4.224-1.893-4.224-4.224-4.224m9.793-2.391h-2.72c-.63 0-1.145-.515-1.145-1.145s.515-1.145 1.145-1.145h2.72c.63 0 1.145.515 1.145 1.145s-.515 1.145-1.145 1.145m5.047 14.435h-2.72v-2.72c0-.63-.515-1.145-1.145-1.145s-1.145.515-1.145 1.145v2.72h-2.72c-.63 0-1.145.515-1.145 1.145s.515 1.145 1.145 1.145h2.72v2.72c0 .63.515 1.145 1.145 1.145s1.145-.515 1.145-1.145v-2.72h2.72c.63 0 1.145-.515 1.145-1.145s-.515-1.145-1.145-1.145m-11.282 3.795c0-.634-.512-1.145-1.145-1.145H5.728c-.913 0-1.775-.358-2.427-1.009s-1.009-1.514-1.009-2.427V10.367c0-.913.358-1.775 1.009-2.427s1.514-1.009 2.427-1.009h2.473l1.314-3.672a.57.57 0 0 1 .54-.379h11.894c.24 0 .458.154.541.379l1.31 3.669h2.473c.913 0 1.775.358 2.427 1.009a3.43 3.43 0 0 1 1.009 2.43v7.069a1.144 1.144 0 1 0 2.29 0v-7.069a5.726 5.726 0 0 0-5.727-5.727h-.859l-.766-2.151A2.865 2.865 0 0 0 21.952.588H10.05a2.86 2.86 0 0 0-2.695 1.901l-.77 2.151h-.859a5.726 5.726 0 0 0-5.727 5.727V24.47a5.726 5.726 0 0 0 5.727 5.727h12.685c.63 0 1.145-.515 1.145-1.145z"/></svg>