<svg xmlns="http://www.w3.org/2000/svg" viewBox="0 0 32 32"><path fill="currentColor" d="m23.314 18.343-3.999-2.999a1.72 1.72 0 0 0-2.057 0l-3.521 2.64-4.694-3.755a1.71 1.71 0 0 0-2.029-.085l-4.728 3.179V4.572h25.143v12.571a1.143 1.143 0 0 0 2.286 0V4.475c0-1.208-.982-2.19-2.19-2.19H2.19C.982 2.285 0 3.267 0 4.475v20.764c0 1.207.982 2.19 2.19 2.19h17.239a1.143 1.143 0 0 0 0-2.286H2.286v-5.066l5.656-3.803 5.751 4.6 4.594-3.446 3.656 2.742a1.143 1.143 0 1 0 1.371-1.828zm-5.028-8.057c0 1.891 1.538 3.429 3.429 3.429s3.429-1.538 3.429-3.429-1.538-3.429-3.429-3.429-3.429 1.538-3.429 3.429m4.571 0c0 .63-.513 1.143-1.143 1.143s-1.143-.513-1.143-1.143.513-1.143 1.143-1.143 1.143.513 1.143 1.143m8 13.714h-2.286v-2.286a1.143 1.143 0 0 0-2.286 0V24h-2.286a1.143 1.143 0 0 0 0 2.286h2.286v2.286a1.143 1.143 0 0 0 2.286 0v-2.286h2.286a1.143 1.143 0 0 0 0-2.286"/></svg>