<svg xmlns="http://www.w3.org/2000/svg" viewBox="0 0 32 32"><path fill="currentColor" d="M30.218 8.652a1.17 1.17 0 0 0-1.033-.636 1.15 1.15 0 0 0-.987 1.737l-.004.004A13.64 13.64 0 0 1 29.699 16c0 7.562-6.133 13.695-13.695 13.695S2.306 23.562 2.306 16 8.439 2.309 16.001 2.309c2.234 0 4.342.536 6.204 1.483l.007-.014a1.15 1.15 0 0 0 1.712-1c0-.468-.282-.872-.69-1.051A15.9 15.9 0 0 0 16.001.001c-8.838 0-16.004 7.165-16.004 16s7.165 16 16.004 16 16-7.162 16-16c0-2.648-.643-5.146-1.783-7.348zm-4.935-3.07a1.148 1.148 0 0 0 1.731.991l-.005.003a1.147 1.147 0 0 0-.575-2.142c-.211 0-.41.057-.581.157l.005-.003a1.15 1.15 0 0 0-.575.994m-9.231 17.312c.625 0 1.14-.511 1.14-1.14v-4.571h4.567c.625 0 1.14-.511 1.14-1.14 0-.625-.511-1.14-1.14-1.14h-4.567v-4.571c0-.625-.511-1.14-1.14-1.14-.625 0-1.14.511-1.14 1.14v4.571h-4.575c-.625 0-1.14.511-1.14 1.14s.515 1.14 1.14 1.14h4.575v4.571c0 .625.511 1.14 1.14 1.14m0 0"/></svg>