<svg xmlns="http://www.w3.org/2000/svg" viewBox="0 0 34 32"><path fill="currentColor" d="M29.013 5.693v-4.58h-1.525v4.58h-4.582v1.525h4.582V11.8h1.525V7.218h4.581V5.693zm-23.667 4.58a.766.766 0 0 0-.002 1.528h4.584a.766.766 0 0 0 .002-1.528zm22.142 13.74a1.53 1.53 0 0 1-1.527 1.527h-3.625a8.2 8.2 0 0 0 .574-3.053 8.398 8.398 0 1 0-16.202 3.109l-.02-.057H3.063a1.53 1.53 0 0 1-1.527-1.527V8.744a1.53 1.53 0 0 1 1.527-1.527h16.034V5.692H3.056A3.057 3.057 0 0 0-.001 8.747v15.269a3.057 3.057 0 0 0 3.057 3.057h4.411c1.52 2.31 4.1 3.815 7.033 3.815h.012a8.39 8.39 0 0 0 7.017-3.785l.02-.032h4.413a3.057 3.057 0 0 0 3.057-3.055V16.38H27.49v7.633zm-12.979 5.346a6.88 6.88 0 0 1-6.872-6.871 6.88 6.88 0 0 1 6.869-6.872 6.88 6.88 0 0 1 6.873 6.869 6.88 6.88 0 0 1-6.871 6.873z"/></svg>