<svg xmlns="http://www.w3.org/2000/svg" viewBox="0 0 32 32"><path fill="currentColor" d="M5.734 15.983c0 .549.446.996.996.996h18.232a.997.997 0 0 0 0-1.992H6.73c-.549.034-.996.481-.996.996m26.232-.824c-.034-.549-.481-.961-1.03-.927s-.961.481-.927 1.03c0 .24.034.481.034.721 0 7.725-6.283 14.009-14.009 14.009S2.025 23.709 2.025 15.983C1.991 8.258 8.274 1.974 15.999 1.974c2.06 0 4.017.446 5.871 1.27l.618.309c.481.24 1.064.069 1.339-.412a1.013 1.013 0 0 0-.412-1.339c-.24-.137-.481-.24-.721-.343A16 16 0 0 0 15.999.017c-8.824 0-16 7.176-16 15.966 0 8.824 7.176 16 16 16s16-7.176 16-16c0-.275-.034-.549-.034-.824zm-2.713-3.777a1.064 1.064 0 0 0 2.128 0 1.064 1.064 0 0 0-2.128 0m-1.579-3.433a1.064 1.064 0 0 0 2.128 0 1.064 1.064 0 0 0-2.128 0m-2.575-2.988a1.064 1.064 0 0 0 2.128 0 1.064 1.064 0 0 0-2.128 0"/></svg>