<svg xmlns="http://www.w3.org/2000/svg" viewBox="0 0 32 32"><path fill="currentColor" d="M2.691 29.736A2.263 2.263 0 0 0 4.955 32h5.977V19.733H2.691zM21.098 32h5.947a2.263 2.263 0 0 0 2.264-2.264V19.733h-8.211zM.979 16.291h9.951v-6.288H3.243a2.263 2.263 0 0 0-2.264 2.264zm20.119-6.288v6.288h9.922v-4.024a2.263 2.263 0 0 0-2.264-2.264zm-7.192 0h4.189V32h-4.189zm-4.73-2.556h13.647c1.171 0 4.03-1.457 4.03-4.764 0-1.605-1.146-2.682-2.85-2.682s-3.998 1.091-5.853 2.996a3.15 3.15 0 0 0-2.171-.871c-.832 0-1.584.328-2.15.853C11.978 1.085 9.694.001 7.995.001c-1.704 0-2.85 1.077-2.85 2.681 0 3.308 2.861 4.765 4.03 4.765zm10.456-2.64c1.482-1.62 3.298-2.467 4.372-2.467.51 0 .534.497.487.72-.216 1.051-1.617 2.077-1.978 2.241-1.414.641-2.741.179-2.741.179-.071 0-.142-.416-.172-.48a.18.18 0 0 1 .031-.193zM7.996 2.34c1.073 0 2.889.847 4.372 2.467.048.052.06.129.031.192-.03.065-.093.575-.164.575 0 0-1.583.418-2.927 0-.377-.117-1.582-1.462-1.799-2.514-.046-.223-.023-.72.487-.72"/></svg>