<svg xmlns="http://www.w3.org/2000/svg" viewBox="0 0 32 32"><path fill="currentColor" d="M15.866.268a1.236 1.236 0 0 1 1.53-.008l-.003-.002 9.028 6.93h1.985a2.863 2.863 0 0 1 2.863 2.863v19.086A2.863 2.863 0 0 1 28.406 32H3.594a2.863 2.863 0 0 1-2.863-2.863V10.051a2.863 2.863 0 0 1 2.863-2.863h3.527c.015-.013.029-.032.046-.044zm12.063 9.34H4.071a.954.954 0 0 0-.954.954v16.464l3.088-3.85c.197-.24.851-.96 1.615-.96.918 0 1.626.935 1.626.935l2.758 3.155s.351.544 1.082.544c.7 0 .987-.544.987-.544l5.247-8.096s.416-.626 1.804-.626c1.221 0 1.571.645 1.571.645l5.989 7.986V10.563a.954.954 0 0 0-.954-.954zm-16.742 2.791a3.38 3.38 0 0 1 0 6.758 3.378 3.378 0 1 1 0-6.756zm5.462-9.582-5.531 4.371h11.223z"/></svg>