<svg xmlns="http://www.w3.org/2000/svg" viewBox="0 0 32 32"><path fill="currentColor" d="M27.455-.002c2.537 0 4.542 2.071 4.542 4.61v22.885a4.506 4.506 0 0 1-4.506 4.506H4.502a4.506 4.506 0 0 1-4.506-4.506v-.039.002V4.607C-.004 2.071 2-.002 4.538-.002h22.915zm-3.128 11.304a3.43 3.43 0 0 0 3.429-3.429V2.284H4.57v5.589a3.43 3.43 0 0 0 3.429 3.429zm-1.448-2.08h-.005a1.2 1.2 0 0 1-1.198-1.198V5.743c0-.662.536-1.198 1.198-1.198h.005c.669 0 1.202.535 1.202 1.202v2.271c0 .669-.534 1.202-1.202 1.202zm-10.308 9.064a3.47 3.47 0 0 0-3.427-3.429h-.058a3.373 3.373 0 0 0-3.373 3.373v.059-.003.056a3.373 3.373 0 0 0 3.373 3.373h.059-.003.056a3.373 3.373 0 0 0 3.373-3.373l-.001-.059v.003zM27.43 27.29s-1.217-7.86-5.139-7.86-5.139 5.334-7.577 5.334S12.145 23.5 9.709 23.5c-2.569 0-5.139 3.931-5.139 3.931h22.86z"/></svg>