<svg xmlns="http://www.w3.org/2000/svg" viewBox="0 0 32 32"><path fill="currentColor" d="M26.667 8.533H5.334a5.34 5.34 0 0 0-5.333 5.333v12.8a5.34 5.34 0 0 0 5.333 5.333h21.334a5.34 5.34 0 0 0 5.333-5.333v-12.8a5.34 5.34 0 0 0-5.333-5.333zm3.2 18.134a3.204 3.204 0 0 1-3.2 3.2H5.333a3.204 3.204 0 0 1-3.2-3.2v-12.8a3.204 3.204 0 0 1 3.2-3.2h21.334a3.204 3.204 0 0 1 3.2 3.2zM4.267 5.333c0 .589.478 1.067 1.067 1.067h21.333a1.067 1.067 0 0 0 0-2.134H5.334c-.589 0-1.067.478-1.067 1.067m18.133-3.2a1.067 1.067 0 0 0 0-2.134H9.6a1.067 1.067 0 0 0 0 2.134z"/></svg>