<svg xmlns="http://www.w3.org/2000/svg" viewBox="0 0 32 32"><path fill="currentColor" d="M7.498.522h2.936c.46 0 .785.233.987.619.196.368.184.748-.031 1.103q-.342.57-1.024.57a561 561 0 0 0-4.493 0c-.638 0-1.244.129-1.796.454-1.14.68-1.741 1.692-1.759 3.016-.018 1.195-.006 2.391-.006 3.586 0 .251-.031.49-.172.717-.264.435-.791.65-1.293.515a1.14 1.14 0 0 1-.84-1.091c0-1.569-.018-3.145.006-4.714.018-1.594.699-2.869 1.962-3.831A4.7 4.7 0 0 1 4.378.534c.067-.012.147-.012.227-.012zm17.004 0h-2.936c-.46 0-.785.233-.987.619-.196.368-.184.748.031 1.103q.342.57 1.024.57c1.496-.006 2.998-.006 4.493 0 .638 0 1.244.129 1.796.454 1.14.68 1.741 1.692 1.759 3.016.018 1.195.006 2.391.006 3.586 0 .251.031.49.172.717.264.435.791.65 1.293.515.49-.135.84-.582.84-1.091 0-1.569.018-3.145-.006-4.714-.018-1.594-.699-2.869-1.962-3.831a4.7 4.7 0 0 0-2.403-.932q-.121-.01-.233-.012zM7.498 31.478h2.936c.46 0 .785-.233.987-.619a1.06 1.06 0 0 0-.031-1.103q-.342-.57-1.024-.57c-1.496.006-2.998.006-4.493 0-.638 0-1.244-.129-1.796-.454-1.14-.68-1.741-1.692-1.759-3.016-.018-1.195-.006-2.391-.006-3.586 0-.251-.031-.49-.172-.717a1.16 1.16 0 0 0-1.293-.515 1.14 1.14 0 0 0-.84 1.091c0 1.569-.018 3.145.006 4.714.018 1.594.699 2.869 1.962 3.831.711.539 1.52.84 2.403.932q.121.01.233.012zm17.004 0h-2.936c-.46 0-.785-.233-.987-.619a1.06 1.06 0 0 1 .031-1.103q.342-.57 1.024-.57c1.496.006 2.998.006 4.493 0 .638 0 1.244-.129 1.796-.454 1.14-.68 1.741-1.692 1.759-3.016.018-1.195.006-2.391.006-3.586 0-.251.031-.49.172-.717.264-.435.791-.65 1.293-.515.49.135.84.582.84 1.091 0 1.569.018 3.145-.006 4.714-.018 1.594-.699 2.869-1.962 3.831-.711.539-1.52.84-2.403.932q-.121.01-.233.012zM6.535 22.093c.184.46.558.73.999.73h16.827c.3 0 .564-.123.779-.368s.435-.546.435-.895V10.832c0-.932-.386-1.398-.828-1.582-.441-.19-.907-.049-1.214.356l-5.866 7.791c-.215.288-.497.435-.828.435s-.613-.147-.828-.435l-2.611-3.47c-.221-.288-.503-.435-.834-.435s-.613.153-.834.441l-5.033 6.811a1.36 1.36 0 0 0-.165 1.349z"/></svg>