<svg xmlns="http://www.w3.org/2000/svg" viewBox="0 0 32 32"><path fill="currentColor" d="M27.593 3.079H4.407A4.407 4.407 0 0 0 0 7.486v17.027a4.407 4.407 0 0 0 4.407 4.407h23.186A4.407 4.407 0 0 0 32 24.513V7.486a4.407 4.407 0 0 0-4.407-4.407M9.028 8.729a2.243 2.243 0 1 1 0 4.487 2.243 2.243 0 0 1 0-4.487m20.749 12.069a.66.66 0 0 1-.925-.124l-4.944-6.53c-.014-.021-1.393-1.789-3.069-1.62-1.362.155-2.701 1.607-3.871 4.201-1.239 2.756-2.453 4.194-3.819 4.531-1.548.375-2.883-.674-4.297-1.792l-.179-.141c-1.655-1.297-2.446-1.001-5.632 2.119a.65.65 0 0 1-.461.189.663.663 0 0 1-.461-1.136c2.893-2.835 4.662-4.338 7.37-2.212l.182.141c1.208.953 2.25 1.775 3.165 1.548.912-.224 1.896-1.497 2.928-3.788 1.393-3.093 3.052-4.768 4.937-4.975 2.426-.258 4.191 2.04 4.263 2.14l4.937 6.523a.66.66 0 0 1-.124.925z"/></svg>