<svg xmlns="http://www.w3.org/2000/svg" viewBox="0 0 44 32"><path fill="currentColor" d="M43.4 22.4v-.6l-4.8-17C38 2 35.4 0 33 0H11C8.6 0 6 2 5.2 4.6l-4.8 17v.6C.2 23.2 0 24 0 25c0 3.8 3.2 7 7 7h30c3.8 0 7-3.2 7-7 0-1-.2-1.8-.6-2.6m-24-15.6h.8C20.8 5.6 22 5 23.4 5 25.2 5 27 6.4 27 8.2c1.2.4 2 1.6 2 2.8 0 1.8-1.6 3.2-3.6 3.2h-.8c-.6 0-1-.4-1-1s.4-1 1-1h.8c.8 0 1.6-.6 1.6-1.2s-.4-1-1.2-1.2c-.6-.2-1-.8-.8-1.4v-.2c0-.6-.6-1.2-1.6-1.2-.8 0-1.6.4-1.6 1-.2.6-.8 1-1.4.8-.4-.2-.6-.2-1-.2-1.4 0-2.4.8-2.4 1.8s1 1.8 2.4 1.8h.6c.6 0 1 .4 1 1s-.4 1-1 1h-.6c-2.4 0-4.4-1.4-4.4-3.6s2-3.8 4.4-3.8M37 30H7c-2.8 0-5-2.2-5-5 0-.4 0-.6.2-1v-.2C2.6 21.6 4.6 20 7 20h30c2.4 0 4.4 1.6 4.8 4 0 .4.2.6.2 1 0 2.8-2.2 5-5 5m-18-6H9c-.6 0-1 .4-1 1s.4 1 1 1h10c.6 0 1-.4 1-1s-.4-1-1-1m18-2c-1.6 0-3 1.4-3 3s1.4 3 3 3 3-1.4 3-3-1.4-3-3-3m0 4c-.6 0-1-.4-1-1s.4-1 1-1 1 .4 1 1-.4 1-1 1"/></svg>