<svg xmlns="http://www.w3.org/2000/svg" viewBox="0 0 32 32"><path fill="currentColor" d="M21.662 10.909c.369 0 .731.027 1.092.066-.98-4.516-5.859-7.871-11.427-7.871C5.1 3.104.001 7.305.001 12.636c0 3.078 1.697 5.604 4.533 7.565L3.4 23.573l3.961-1.964c1.418.278 2.554.563 3.968.563q.531-.001 1.056-.045a8 8 0 0 1-.35-2.345v-.002c0-4.897 4.251-8.87 9.631-8.87zm-6.089-3.04c.853 0 1.418.557 1.418 1.399 0 .841-.565 1.404-1.418 1.404-.849 0-1.7-.565-1.7-1.404 0-.842.852-1.399 1.7-1.399m-7.926 2.803c-.85 0-1.707-.565-1.707-1.404 0-.842.856-1.399 1.707-1.399.847 0 1.413.557 1.413 1.399 0 .841-.565 1.404-1.413 1.404M32 19.644c0-4.481-4.533-8.134-9.62-8.134-5.39 0-9.634 3.653-9.634 8.134 0 4.486 4.245 8.131 9.634 8.131 1.126 0 2.265-.279 3.397-.562l3.106 1.683-.852-2.8c2.274-1.688 3.968-3.926 3.968-6.453zM19.256 18.24c-.565 0-1.132-.554-1.132-1.12 0-.56.569-1.122 1.132-1.122.856 0 1.418.563 1.418 1.122 0 .565-.562 1.12-1.418 1.12m6.23 0c-.56 0-1.125-.554-1.125-1.12 0-.56.565-1.122 1.125-1.122.849 0 1.416.563 1.416 1.122 0 .565-.568 1.12-1.416 1.12"/></svg>