<svg xmlns="http://www.w3.org/2000/svg" viewBox="0 0 33 32"><path fill="currentColor" d="M16.677 32h-.002c-.406 0-.777-.148-1.063-.394l.002.002-5.347-4.563a16.4 16.4 0 0 1-2.443-1.196l.076.042C3.457 23.262.804 18.863.804 14.124c0-1.925.428-3.789 1.27-5.545a14.25 14.25 0 0 1 3.413-4.477l.016-.014a16.2 16.2 0 0 1 4.933-2.961l.111-.037c1.815-.691 3.915-1.092 6.108-1.092h.035-.002c2.127 0 4.191.368 6.138 1.093a16 16 0 0 1 5.059 3.013l-.017-.015c1.468 1.297 2.622 2.804 3.43 4.491.802 1.62 1.271 3.527 1.271 5.544 0 2.933-1.001 5.748-2.894 8.133-1.785 2.25-4.238 3.973-7.099 4.988l-4.803 4.333a1.65 1.65 0 0 1-1.097.418zm.013-29.775c-7.521 0-13.642 5.338-13.642 11.899 0 3.948 2.245 7.633 6.003 9.857.7.415 1.442.767 2.207 1.06l.185.07 5.231 4.461 4.736-4.279.22-.073c5.203-1.768 8.7-6.224 8.7-11.093 0-6.564-6.12-11.902-13.64-11.902m0 18.743c-1.817 0-3.531-.629-4.829-1.771-1.333-1.178-2.068-2.751-2.068-4.433 0-.613.502-1.113 1.121-1.113.618 0 1.121.499 1.121 1.113 0 2.193 2.086 3.976 4.655 3.976 2.565 0 4.655-1.783 4.655-3.976 0-.613.502-1.113 1.119-1.113.619 0 1.121.499 1.121 1.113 0 1.683-.735 3.255-2.068 4.433-1.297 1.142-3.013 1.771-4.828 1.771z"/></svg>