<svg xmlns="http://www.w3.org/2000/svg" viewBox="0 0 32 32"><path fill="currentColor" d="M29.706 18.86c0 .633.515 1.146 1.15 1.146s1.15-.513 1.15-1.146-.515-1.146-1.15-1.146-1.15.513-1.15 1.146m1.149 3.421c-.636 0-1.15.514-1.15 1.146v2.882a2.287 2.287 0 0 1-2.285 2.285H4.59a2.287 2.287 0 0 1-2.285-2.285V5.751A2.287 2.287 0 0 1 4.59 3.466h7.946l2.953 5.117a1.15 1.15 0 0 0 1.125.564h10.802a2.287 2.287 0 0 1 2.285 2.285v2.857c0 .632.514 1.146 1.15 1.146s1.15-.514 1.15-1.146q.001-.043-.004-.086v-2.768a4.57 4.57 0 0 0-2.996-4.292v-.036a4.44 4.44 0 0 0-4.428-4.428h-9.852l-.528-.918c-.264-.461-.643-.579-.975-.571l-.004-.004H4.576A4.57 4.57 0 0 0 .005 5.757v20.501a4.57 4.57 0 0 0 4.571 4.571h22.855a4.57 4.57 0 0 0 4.571-4.571v-2.746q.005-.043.004-.086c0-.632-.514-1.146-1.15-1.146zm-6.46-17.323c1.128 0 2.071.828 2.253 1.907h-9.51l-1.1-1.907z"/></svg>