<svg xmlns="http://www.w3.org/2000/svg" viewBox="0 0 32 32"><path fill="currentColor" d="M7.993 19.586c-.2 0-.4.061-.579.179v-.021l-.2.139a14.34 14.34 0 0 0-5.35 10.282l.021.261h.021a1.133 1.133 0 0 0 1.139 1.118c.618 0 1.139-.518 1.139-1.179v-.161c.279-3.832 1.757-6.75 4.393-8.664l.161-.121a1.23 1.23 0 0 0 .418-.9c-.007-.593-.446-.932-1.164-.932zm22.125 10.743c-.182-2.975-1.275-5.793-3.096-8.043-.721-.889-2.225.361-1.596 1.132 1.561 1.914 2.532 4.343 2.732 6.95l.021.2h.021v.039c0 .561.439.996.979.996.518 0 .957-.439.957-.996v-.082zm-14.136-9.204c1.696 0 3.575-.618 4.811-1.2.179.075.361.146.532.232.925.461 2.354-.957 1.693-1.336l-.307-.175a10.6 10.6 0 0 0 3.732-8.086C26.443 4.753 21.771-.001 16-.001c-5.75 0-10.443 4.732-10.443 10.561a10.59 10.59 0 0 0 3.975 8.286l.857.579 1.057.657a10.2 10.2 0 0 0 4.536 1.043M7.653 10.561c0-4.654 3.754-8.447 8.347-8.447 4.611 0 8.347 3.793 8.347 8.447 0 4.632-3.754 8.425-8.347 8.425-4.593.004-8.347-3.793-8.347-8.425m15.815 9.593c-2.914 2.682-9.779 7.947-12.529 9.611-1.118.675.075 2.889 1.611 2.046 2.193-1.204 9.354-6.907 12.593-9.657 1.8-1.536-.443-3.136-1.675-2"/></svg>