<svg xmlns="http://www.w3.org/2000/svg" viewBox="0 0 32 32"><path fill="currentColor" d="M27.417 24.925c-.161-.241-.241-.482-.402-.643-2.412-3.377-6.352-5.307-10.774-5.307-4.261 0-8.201 1.93-10.533 5.065-.322.322-.804 1.126-1.206 1.849l1.769 1.045c.402-.643.884-1.286 1.045-1.608 2.01-2.653 5.307-4.261 8.925-4.261 3.698 0 7.075 1.688 9.085 4.503l.08.08c.08.08.08.161.161.241.08.161.241.402.402.724l1.849-1.045a3.6 3.6 0 0 1-.402-.643zM15.759 5.226c-3.136 0-5.709 2.573-5.709 5.709s2.573 5.709 5.709 5.709 5.709-2.573 5.709-5.709a5.68 5.68 0 0 0-5.709-5.709m0 9.488c-2.09 0-3.779-1.688-3.779-3.779s1.688-3.779 3.779-3.779 3.779 1.688 3.779 3.779-1.688 3.779-3.779 3.779M16 32C7.156 32 0 24.844 0 16S7.156 0 16 0s16 7.156 16 16-7.236 16-16 16m0-29.749C8.362 2.251 2.251 8.442 2.251 16S8.442 29.749 16 29.749 29.749 23.558 29.749 16 23.558 2.251 16 2.251"/></svg>