<svg xmlns="http://www.w3.org/2000/svg" viewBox="0 0 32 32"><path fill="currentColor" d="M16 18.271c-2.13 0-4.116-.975-5.601-2.748-1.436-1.717-2.227-3.984-2.227-6.387s.79-4.674 2.227-6.387C11.883.976 13.873.001 16 .001s4.116.975 5.601 2.748c1.436 1.717 2.227 3.984 2.227 6.387s-.79 4.674-2.227 6.387c-1.484 1.773-3.474 2.748-5.601 2.748m0-16.064c-3.101 0-5.621 3.109-5.621 6.929s2.524 6.929 5.621 6.929c3.101 0 5.621-3.109 5.621-6.929S19.097 2.207 16 2.207M22.379 32H9.621a6.25 6.25 0 0 1-6.243-6.243c0-1.492 0-2.395.469-3.282.441-.83 1.18-1.456 2.652-2.7.465-.393 1.159-.337 1.557.128s.337 1.159-.128 1.557c-1.216 1.031-1.886 1.597-2.13 2.054-.205.385-.213.931-.213 2.243a4.04 4.04 0 0 0 4.036 4.036h12.758a4.04 4.04 0 0 0 4.036-4.036c0-1.312-.008-1.862-.213-2.243-.241-.453-.911-1.023-2.13-2.054a1.105 1.105 0 0 1 1.429-1.685c1.472 1.248 2.211 1.87 2.652 2.7.469.887.469 1.785.469 3.282C28.618 29.199 25.818 32 22.379 32"/></svg>