<svg xmlns="http://www.w3.org/2000/svg" viewBox="0 0 32 32"><path fill="currentColor" d="M20.878 7.105H6.494A6.503 6.503 0 0 0 0 13.599v9.262a6.5 6.5 0 0 0 6.494 6.494h14.381a6.5 6.5 0 0 0 6.494-6.494v-9.262a6.5 6.5 0 0 0-6.491-6.494m4.369 15.756a4.373 4.373 0 0 1-4.369 4.369H6.494a4.38 4.38 0 0 1-4.009-2.631l6.806-6.806 4.194 4.194a1.06 1.06 0 0 0 1.503 0l2.756-2.756 3.019 3.019c.416.416 1.087.416 1.503 0s.416-1.087 0-1.503L18.5 16.978a1.06 1.06 0 0 0-1.503 0l-2.756 2.756-4.197-4.194a1.06 1.06 0 0 0-1.503 0l-6.416 6.419V13.6a4.373 4.373 0 0 1 4.369-4.369h14.381a4.373 4.373 0 0 1 4.369 4.369v9.262zm-5.639-7.698a1.66 1.66 0 0 0 2.346-2.346 1.66 1.66 0 0 0-2.346 2.346m1.489-12.518h-9a1.062 1.062 0 1 0 0 2.126h9c4.841 0 8.778 3.937 8.778 8.778v4.681a1.062 1.062 0 1 0 2.126 0v-4.678c0-6.013-4.891-10.906-10.903-10.906z"/></svg>