<svg xmlns="http://www.w3.org/2000/svg" viewBox="0 0 41 32"><path fill="currentColor" d="M10.153 11.035c1.939 0 3.511-1.584 3.511-3.538s-1.57-3.538-3.511-3.538-3.511 1.584-3.511 3.538 1.572 3.539 3.511 3.539zm10.574 4.47-2.698-2.909-7.006 8.272-2.873-2.645-4.177 5.378h29.129v-5.378l-6.848-9.938-5.526 7.22zM2.043 23.582V4.352c0-1.26.87-2.285 1.94-2.285h29.279c1.07 0 1.94 1.025 1.94 2.285v19.23c0 1.26-.87 2.285-1.94 2.285H3.983c-1.07 0-1.94-1.027-1.94-2.285m35.202 0V4.352c0-2.395-1.787-4.344-3.983-4.344H3.983C1.787.008 0 1.957 0 4.352v19.23c0 2.395 1.787 4.344 3.983 4.344h29.279c2.196 0 3.983-1.949 3.983-4.344m1.507-19.15.005 2.664c.276.395.357.771.357 1.322v19.23c0 1.26-.87 2.285-1.94 2.285H7.894c-.636 0-.929-.092-1.338-.634-.547.013-1.787 0-2.345 0 .506 1.83 1.931 2.692 3.682 2.692h29.28c2.196 0 3.983-1.949 3.983-4.344V8.418c0-1.818-.948-3.34-2.405-3.986z"/></svg>