<svg xmlns="http://www.w3.org/2000/svg" viewBox="0 0 33 32"><path fill="currentColor" d="M21.952 22.281h-10.36a5.966 5.966 0 0 1-5.965-5.959V5.958a5.966 5.966 0 0 1 5.965-5.959h10.36a5.957 5.957 0 0 1 5.956 5.959v10.399a5.957 5.957 0 0 1-5.956 5.924M11.592 1.343a4.66 4.66 0 0 0-4.657 4.65v10.364a4.657 4.657 0 0 0 4.657 4.65h10.36a4.65 4.65 0 0 0 4.648-4.65V5.993a4.65 4.65 0 0 0-4.649-4.65zm9.331 8.804a3.314 3.314 0 0 1-3.314-3.314v-.001a3.315 3.315 0 0 1 6.628-.003v.004a3.314 3.314 0 0 1-3.314 3.314m0-5.314a2.006 2.006 0 0 0-2.005 2.006v.003a2.006 2.006 0 1 0 2.006-2.009zM11.959 32c-8.086-.025-13.372-8.489-9.849-15.769s13.438-8.383 18.473-2.054l.462.584-.637.384c-1.874 1.15-3.105 3.188-3.105 5.513a6.45 6.45 0 0 0 3.41 5.689l.035.017.663.349-.427.602c-2.027 2.844-5.311 4.678-9.024 4.685zm0-20.658c-7.097.023-11.752 7.43-8.698 13.839s11.738 7.453 16.224 1.952c-4.485-2.951-4.682-9.459-.384-12.676a9.7 9.7 0 0 0-7.127-3.114zm11.79 17.072c-4.289.005-7.769-3.471-7.771-7.761s3.475-7.769 7.764-7.768a7.763 7.763 0 0 1 7.758 7.773 7.76 7.76 0 0 1-7.752 7.756zm0-14.211a6.455 6.455 0 0 0-6.463 6.45 6.454 6.454 0 1 0 12.906.006 6.455 6.455 0 0 0-6.444-6.456z"/></svg>