<svg xmlns="http://www.w3.org/2000/svg" viewBox="0 0 32 32"><path fill="currentColor" d="M31.662.338a1.15 1.15 0 0 1 0 1.63L20.254 13.376a1.152 1.152 0 1 1-1.629-1.629L30.033.339a1.15 1.15 0 0 1 1.63 0zM32 21.714v.001a5.715 5.715 0 0 1-5.322 5.701l-.018.001-.375.011H10.284a5.715 5.715 0 0 1-5.701-5.322l-.001-.018-.011-.375V5.712A5.715 5.715 0 0 1 9.893.011L9.911.01l.375-.011h9.145a1.143 1.143 0 0 1 .211 2.266l-.007.001-.206.018h-9.143a3.43 3.43 0 0 0-3.411 3.085l-.001.014-.016.329v16a3.43 3.43 0 0 0 3.085 3.411l.014.001.329.016h16a3.43 3.43 0 0 0 3.411-3.085l.001-.014.016-.329V14.46a1.143 1.143 0 0 1 2.266-.211l.001.007.018.206v7.25zM8 32h-.001a8 8 0 0 1-7.987-7.54l-.001-.021L0 24V10.284a1.143 1.143 0 0 1 2.266-.211l.001.007.018.206v13.715a5.715 5.715 0 0 0 5.322 5.701l.018.001.375.011h13.716a1.143 1.143 0 0 1 .211 2.266l-.007.001-.206.018z"/></svg>