<svg xmlns="http://www.w3.org/2000/svg" viewBox="0 0 32 32"><path fill="currentColor" d="M22.543.468c.644-.643 1.707-.622 2.386.057l3.665 3.665c.675.675.702 1.741.058 2.386L10.607 24.621c-.321.321-.935.678-1.386.801l-5.819 1.589c-.887.243-1.422-.288-1.197-1.172l1.508-5.943c.112-.443.468-1.067.785-1.384L22.543.467zM5.721 19.734a2.2 2.2 0 0 0-.37.649L4.172 25.03l4.533-1.238c.18-.049.552-.265.681-.394L27.431 5.353l-3.665-3.664zM22.486 2.967l3.665 3.665-1.222 1.222-3.664-3.665zM7.828 17.627l3.664 3.665-1.221 1.221-3.665-3.664 1.221-1.222zM1.75 31.136c0-.477.382-.864.869-.864h26.768a.864.864 0 0 1 0 1.728H2.614a.864.864 0 0 1-.864-.864"/></svg>