<svg xmlns="http://www.w3.org/2000/svg" viewBox="0 0 32 32"><path fill="currentColor" d="m30.55 13.339-4.357-1.416v-1.786h-2.178v1.067L9.006 6.194a2.178 2.178 0 0 0-2.762 2.782l-.005-.015 5.01 15.009h-1.067v2.178h1.786l1.416 4.357A2.18 2.18 0 0 0 15.452 32a2.18 2.18 0 0 0 1.978-1.264l.006-.013 2.026-4.575h.523v-1.133l1.59-3.485 3.485-1.59h1.133v-.523l4.466-1.982a2.179 2.179 0 0 0-.094-4.091zm-9.89 6.274a2.2 2.2 0 0 0-.996.989l-.006.013-4.139 9.084-7.21-21.435 21.435 7.145zM6.261.008h1.961v2.178H6.261zm-4.03 3.267a.9.9 0 0 1 .002-.42l-.001.006-1.939-.828c-.152.366-.24.791-.24 1.237v1.094h2.178zM.052 6.216H2.23v1.961H.052zM10.182.008h1.961v2.178h-1.961zm13.832 6.208h2.178v1.961h-2.178zm0-2.941v1.089h2.178V3.27c0-.446-.088-.871-.248-1.259l.008.022-1.939.828a.9.9 0 0 1-.002.42l.001-.006zm-.675-1.089L24.167.16a3.2 3.2 0 0 0-1.252-.152l.01-.001h-.98v2.178h.98a.9.9 0 0 1 .42.002zM14.103.008h1.961v2.178h-1.961zm3.921 0h1.961v2.178h-1.961zM.052 10.137H2.23v1.961H.052zM2.078.247l.828 1.939a.9.9 0 0 1 .42.002l-.006-.001h1.089V.009H3.315c-.446 0-.871.088-1.259.248l.022-.008zM6.261 23.97h1.961v2.178H6.261zm16.664 0h-.98v2.178h.985c.446 0 .871-.088 1.259-.248l-.022.008-.828-1.939a.9.9 0 0 1-.42-.002l.006.001zm1.089-1.09a.9.9 0 0 1-.002.42l.001-.006 2.026.828a3.2 3.2 0 0 0 .152-1.252l.001.01v-.98h-2.178zM.052 17.979H2.23v1.961H.052zm0-3.921H2.23v1.961H.052zm2.179 8.822v-.98H.053v.985c0 .446.088.871.248 1.259l-.008-.022 1.939-.828a.9.9 0 0 1 .002-.42l-.001.006zm.675 1.09-.828 2.026a3.2 3.2 0 0 0 1.252.152l-.01.001h1.089v-2.178H3.32a.9.9 0 0 1-.42-.002z"/></svg>