<svg xmlns="http://www.w3.org/2000/svg" viewBox="0 0 32 32"><path fill="currentColor" d="M29.461 4.42a8.55 8.55 0 0 0-6.35-2.819h-.053.003c-1.846 0-3.539.592-5.029 1.755A10.4 10.4 0 0 0 16 5.503a10.4 10.4 0 0 0-2.011-2.131l-.021-.016c-1.491-1.163-3.184-1.755-5.03-1.755h-.05a8.54 8.54 0 0 0-6.343 2.812l-.006.007C.902 6.215.001 8.67.001 11.329c0 2.738 1.008 5.245 3.174 7.888 1.936 2.363 4.72 4.763 7.944 7.542 1.101.949 2.349 2.026 3.645 3.171.327.291.761.469 1.237.469s.909-.178 1.239-.471l-.002.002a376 376 0 0 1 3.645-3.171c3.224-2.779 6.008-5.179 7.946-7.544 2.165-2.642 3.173-5.149 3.173-7.886 0-2.659-.902-5.114-2.539-6.909z"/></svg>