<svg xmlns="http://www.w3.org/2000/svg" viewBox="0 0 32 32"><path fill="currentColor" d="M16.003 32a16.2 16.2 0 0 1-6.399-1.331c-.614-.256-.904-.973-.648-1.587s.973-.904 1.587-.648c.017 0 .017.017.034.017 6.894 3.02 14.947-.102 17.968-6.996s-.102-14.947-6.996-17.968-14.947.102-17.968 6.996c-1.911 4.3-1.433 9.3 1.229 13.19.375.546.239 1.314-.307 1.689s-1.314.239-1.689-.307c-5-7.303-3.157-17.268 4.129-22.251S24.194-.353 29.194 6.933s3.14 17.251-4.146 22.251a16.14 16.14 0 0 1-9.044 2.815zm7.218-14.709H9.229c-.683 0-1.229-.546-1.229-1.229s.546-1.229 1.229-1.229h13.992c.683 0 1.229.546 1.229 1.229s-.546 1.229-1.229 1.229m-6.263 6.263c-.324 0-.631-.137-.87-.375a1.214 1.214 0 0 1-.017-1.723l5.409-5.409-5.392-5.392c-.495-.478-.512-1.263-.034-1.74s1.263-.512 1.74-.034l6.313 6.313c.222.222.358.529.375.853 0 .324-.137.631-.375.87l-6.279 6.279a1.2 1.2 0 0 1-.87.358"/></svg>