<svg xmlns="http://www.w3.org/2000/svg" viewBox="0 0 32 32"><path fill="currentColor" d="M25.417 28.023H11.794c-1.829 0-3.52-.823-4.754-2.286-.411-.503-.366-1.189.137-1.6s1.189-.366 1.6.137c.823.96 1.874 1.463 3.017 1.463h13.669c2.377 0 4.297-2.286 4.297-5.074v-9.326c0-2.789-1.92-5.074-4.297-5.074H11.794c-2.377 0-4.297 2.286-4.297 5.074v1.737c0 .64-.503 1.143-1.143 1.143s-1.143-.503-1.143-1.143v-1.737c0-4.069 2.971-7.36 6.583-7.36h13.669c3.566 0 6.537 3.337 6.537 7.36v9.326c0 4.023-2.971 7.36-6.583 7.36m-14.948-9.509H3.703c-.64 0-1.143-.503-1.143-1.143s.503-1.143 1.143-1.143h6.766c.64 0 1.143.503 1.143 1.143s-.503 1.143-1.143 1.143m-2.56 3.657H1.143c-.64 0-1.143-.503-1.143-1.143s.503-1.143 1.143-1.143h6.766c.64 0 1.143.503 1.143 1.143s-.503 1.143-1.143 1.143m11.2-5.897c-.229 0-.503-.091-.686-.229L7.772 7.725c-.503-.366-.594-1.097-.183-1.6.366-.503 1.097-.594 1.6-.183l9.966 7.771 9.371-7.314c.503-.411 1.234-.32 1.6.183s.32 1.234-.183 1.6l-10.057 7.863c-.274.137-.503.229-.777.229"/></svg>