<svg xmlns="http://www.w3.org/2000/svg" viewBox="0 0 32 32"><path fill="currentColor" d="M23.643 19.244c.432.343 1.124.172 1.469-.344.173-.258.173-.516.173-.773a1.9 1.9 0 0 0-.432-.687c-.605-.344-1.21-.773-1.902-1.031.864-.859 1.556-1.804 1.988-2.921a9.7 9.7 0 0 0 .778-3.866C25.717 4.296 21.395 0 16.036 0S6.442 4.381 6.442 9.708c0 2.577 1.037 4.983 2.852 6.787C3.676 19.072.046 24.656.046 30.842c0 .601.432 1.031 1.037 1.031s1.037-.43 1.037-1.031c0-5.756 3.63-10.911 8.989-12.887 3.025 1.804 6.915 1.718 9.854 0 .951.343 1.902.773 2.68 1.289m-7.606-2.062c-4.149 0-7.52-3.351-7.52-7.474s3.371-7.474 7.52-7.474 7.52 3.351 7.52 7.474c0 1.031-.173 2.062-.605 3.007-.346.859-.951 1.632-1.643 2.32-1.383 1.375-3.285 2.148-5.272 2.148zm14.779 7.968h-3.415v-3.415a1.138 1.138 0 1 0-2.276 0v3.415H21.71a1.138 1.138 0 1 0 0 2.276h3.415v3.435a1.138 1.138 0 1 0 2.276 0v-.022.001-3.415h3.415a1.138 1.138 0 1 0 0-2.276z"/></svg>