<svg xmlns="http://www.w3.org/2000/svg" viewBox="0 0 32 32"><path fill="currentColor" d="M28.571 0a2.286 2.286 0 0 1 2.286 2.286v27.429a2.286 2.286 0 0 1-2.286 2.286H5.714a2.286 2.286 0 0 1-2.286-2.286v-4.571H2.285a1.143 1.143 0 0 1 0-2.286h1.143v-5.714H2.285a1.143 1.143 0 0 1 0-2.286h1.143V9.144H2.285a1.143 1.143 0 0 1 0-2.286h1.143V2.287A2.286 2.286 0 0 1 5.714.001zm0 2.286H5.714v4.571h1.143a1.143 1.143 0 0 1 0 2.286H5.714v5.714h1.143a1.143 1.143 0 0 1 0 2.286H5.714v5.714h1.143a1.143 1.143 0 0 1 0 2.286H5.714v4.571h22.857zM17.118 8.954c-2.686.072-4.937 1.966-5.497 4.486l-.03.141a4.41 4.41 0 0 0-2.733 4.086c0 2.474 1.998 4.429 4.476 4.429h8.999l.232-.048c2.291-.48 4.007-2.44 4.007-4.809l-.002-.149c-.067-2.314-1.7-4.167-3.897-4.609l-.051-.01-.012-.03a5.81 5.81 0 0 0-5.333-3.489l-.158.002zm.158 2.284c1.884 0 3.433 1.473 3.503 3.301l.002.128v.171c.263-.086.526-.171.876-.171 1.49 0 2.629 1.114 2.629 2.571 0 1.243-.901 2.246-2.069 2.543l-.122.029h-8.762c-1.226 0-2.19-.943-2.19-2.143s.964-2.143 2.19-2.143c.175 0 .351 0 .526.086 0-.343-.087-.6-.087-.943 0-1.886 1.577-3.429 3.505-3.429z"/></svg>