<svg xmlns="http://www.w3.org/2000/svg" viewBox="0 0 32 32"><path fill="currentColor" d="m13.602 6.835.338.289 5.918 5.692a4.393 4.393 0 0 1 0 6.384.99.99 0 0 1-1.351 0 .907.907 0 0 1-.032-1.27l.032-.032c1.013-.965 1.077-2.492.209-3.554l-.209-.241-5.918-5.676a2.87 2.87 0 0 0-3.682-.225l-.273.225-5.918 5.676a2.594 2.594 0 0 0-.209 3.554l.209.241 5.918 5.676a2.87 2.87 0 0 0 3.682.225l.273-.225a.99.99 0 0 1 1.351 0c.354.338.37.901.032 1.27l-.032.032a4.86 4.86 0 0 1-6.32.289l-.338-.289-5.918-5.692a4.39 4.39 0 0 1-.273-6.078l.289-.306 5.918-5.676a4.834 4.834 0 0 1 6.303-.289zm17.721 12.607-6.062 6.062a.58.58 0 0 1-.804-.016l-3.023-3.023a.563.563 0 0 1 .016-.804l.322-.322a.58.58 0 0 1 .804.016l2.219 2.219q.072.072.145 0l5.258-5.258a.61.61 0 0 1 .804-.016l.322.322a.58.58 0 0 1 0 .82zm-18.235-6.866c.322.08.579.322.675.643s-.016.659-.241.884a2.594 2.594 0 0 0-.209 3.554l.209.241 5.918 5.676c.434.418.981.675 1.544.756.145.659.386 1.27.708 1.849a4.9 4.9 0 0 1-3.28-1.013l-.322-.289-5.918-5.676c-1.769-1.656-1.833-4.438-.177-6.207.064-.064.113-.129.177-.177a.93.93 0 0 1 .917-.241zm11.304-5.741.322.289 5.918 5.676a4.36 4.36 0 0 1 1.238 4.229 7.3 7.3 0 0 0-1.801-.804 2.65 2.65 0 0 0-.579-1.914l-.209-.241-5.918-5.676a2.89 2.89 0 0 0-3.956 0c-.241.241-.595.322-.917.241s-.579-.322-.675-.643a.9.9 0 0 1 .241-.884c1.769-1.624 4.454-1.753 6.336-.273"/></svg>