<svg xmlns="http://www.w3.org/2000/svg" viewBox="0 0 33 32"><path fill="currentColor" d="M32.813 12.311 19.522.287H0l32.813 31.426zM17.747 8.778l-3.745-3.492-1.69 1.812q-.35.374.019.719l3.093 2.884a.68.68 0 0 0 .434.202q.327-.012 1.294-.963l.299.527q-1.133 1.034-1.553 1.083-.372.002-.747-.313l-3.335-3.109q-.682-.637-.018-1.35l2.97-3.184.434.406-.811.87 3.304 3.081 1.47-1.576L15.1 2.583l.394-.423 4.507 4.203zm3.595-1.166 5.37 5.008-.4.429-2.622-2.445-.851.912q.6 1.61 1.067 3.435l-.62.145q-.452-1.9-.876-3.12l-3.199 3.431-.441-.411 4.479-4.803-2.308-2.152zm6.228 6.124 1.178 1.099.473-.507.423.394-.473.508 1.094 1.019-.372.399-1.094-1.02-.519.556 1.45 1.352a37 37 0 0 1 1.358-1.529l-.019.021.423.395c-.432.46-.869.95-1.293 1.453l-.045.055 1.522 1.42-.367.392-1.498-1.397q-.724.884-1.077 1.458-.172.28-.354.596.93-.342 1.934-1.02l.223.536q-1.348.865-2.511 1.204a3.5 3.5 0 0 0-.187.515q-.181.667-.036.801.156.124 1.155-.729l.189.548q-1.326 1.022-1.702.673-.308-.288-.151-1.17.05-.27.129-.489a4.7 4.7 0 0 1-1.942-.061l.091-.57q1.003.246 2.103-.015a13 13 0 0 1 1.729-2.693l-.017.021-3.388-3.16.366-.393 1.493 1.392.518-.556-1.178-1.099zm4.471 3.345q-.019.952-.128 1.541l-.54-.074q.13-.648.139-1.566zm-5.698 3.372a26 26 0 0 0-.51-.373l-.539-.391-.665.713-.43-.4.626-.671q-.559-.43-1.484-1.17l.322-.455q.657.544 1.528 1.233l.501-.538-1.178-1.099.248-.435a5 5 0 0 0 1.175-.316l-.665-.62.361-.387.833.776q.197-.087.597-.301l.344.468q-.259.132-.5.245l1.583 1.475-.361.387-1.751-1.633a7 7 0 0 1-1.123.343l.78.727.439-.471.43.4-.44.471.919.857-.344.368-.919-.857-.463.496q.553.413 1.045.77l-.361.387z"/></svg>