<svg xmlns="http://www.w3.org/2000/svg" viewBox="0 0 32 32"><path fill="currentColor" d="M23.162 15.715a7.297 7.297 0 1 1-14.594 0 7.297 7.297 0 0 1 14.594 0m-7.296-2.085a2.086 2.086 0 1 0-4.172 0 2.086 2.086 0 0 0 4.172 0m15.227 4.928C26.59 23.965 21.546 26.709 16 26.709S5.41 23.964.907 18.558a3.65 3.65 0 0 1 .053-4.732C5.892 8.167 10.906 5.291 16 5.291s10.108 2.876 15.04 8.535a3.65 3.65 0 0 1 .053 4.732m-1.625-3.362c-4.57-5.244-9.059-7.82-13.468-7.82S7.103 9.952 2.532 15.197a1.56 1.56 0 0 0-.022 2.027c4.131 4.962 8.615 7.401 13.49 7.401s9.359-2.44 13.49-7.401a1.564 1.564 0 0 0-.022-2.028"/></svg>