<svg xmlns="http://www.w3.org/2000/svg" viewBox="0 0 32 32"><path fill="currentColor" d="M16 27.428c-8.838 0-16-9.532-16-11.425C0 14.639 7.162 4.572 16 4.572c8.836 0 16 10.159 16 11.431-.002 1.902-7.166 11.425-16 11.425m-.207-17.447c-4.274 0-9.26 2.018-9.26 6.292s4.986 5.836 9.26 5.836 9.341-1.562 9.341-5.836-5.067-6.292-9.341-6.292m.088 3.141a2.656 2.656 0 0 0 2.652 2.654c.348 0 .669-.072.971-.186.012.123.043.241.043.37a3.795 3.795 0 0 1-3.793 3.791 3.794 3.794 0 0 1 0-7.587c.106 0 .207.025.309.033a2.5 2.5 0 0 0-.182.924z"/></svg>