<svg xmlns="http://www.w3.org/2000/svg" viewBox="0 0 32 32"><path fill="currentColor" d="M16 9.829C10.343 9.829 5.714 16 5.714 16S10.343 22.171 16 22.171 26.286 16 26.286 16 21.657 9.829 16 9.829m0 9.6c-1.886 0-3.429-1.543-3.429-3.429s1.543-3.429 3.429-3.429 3.429 1.543 3.429 3.429-1.543 3.429-3.429 3.429m0-1.886c.857 0 1.543-.686 1.543-1.543s-.686-1.543-1.543-1.543-1.543.686-1.543 1.543.686 1.543 1.543 1.543m14.914-7.886a1.085 1.085 0 0 1-1.086-1.086V4.057a1.9 1.9 0 0 0-1.886-1.886h-4.514c-.629 0-1.086-.514-1.086-1.086s.514-1.086 1.086-1.086h4.457c2.286 0 4.114 1.829 4.114 4.057V8.57c0 .571-.514 1.086-1.086 1.086zM27.943 32h-4.514c-.629 0-1.086-.514-1.086-1.086s.514-1.086 1.086-1.086h4.457a1.9 1.9 0 0 0 1.886-1.886v-4.514c0-.629.514-1.086 1.086-1.086s1.143.514 1.143 1.086v4.457c0 2.286-1.829 4.114-4.057 4.114zM8.571 32H4.057A4.073 4.073 0 0 1 0 27.943v-4.514c0-.629.514-1.086 1.086-1.086s1.143.514 1.143 1.086v4.457c0 1.029.857 1.886 1.886 1.886h4.457c.629 0 1.086.514 1.086 1.086s-.514 1.143-1.086 1.143zM1.086 9.657C.515 9.657 0 9.143 0 8.571V4.057A4.073 4.073 0 0 1 4.057 0h4.514C9.2 0 9.657.514 9.657 1.086s-.514 1.143-1.086 1.143H4.057a1.9 1.9 0 0 0-1.886 1.886v4.457c.057.571-.457 1.086-1.086 1.086z"/></svg>