<svg xmlns="http://www.w3.org/2000/svg" viewBox="0 0 40 32"><path fill="currentColor" d="M31.538 27.373c3.136-.671 5.596-3.355 5.596-6.712 0-3.805-2.91-7.05-6.714-7.05-.895 0-1.565.224-2.236.447v-.447a8.98 8.98 0 0 0-8.949-8.951h-.001a8.98 8.98 0 0 0-8.951 8.949v.001c0 .895.224 1.565.224 2.46-.447-.224-.897-.224-1.345-.224-3.131 0-5.594 2.798-5.594 5.932s2.463 5.594 5.594 5.594h22.377zM9.474 31C4.21 31 0 26.715 0 21.359c0-4.287 2.738-7.928 6.316-9.215.843-6.213 6.106-11.143 12.633-11.143 5.474 0 10.314 3.644 12 8.572 5.051.644 9.052 5.144 9.052 10.715-.008 5.493-4.112 10.025-9.421 10.707l-.054.006H9.475z"/></svg>