<svg xmlns="http://www.w3.org/2000/svg" viewBox="0 0 32 32"><path fill="currentColor" d="M26.297 12.05c-.014-4.408-3.74-7.99-8.32-7.99h-.048a8.4 8.4 0 0 0-7.027 3.789l-.02.032a5.5 5.5 0 0 0-.797-.057c-2.768 0-5.082 1.91-5.59 4.449-2.589.748-4.457 3.08-4.494 5.854v.004c0 3.377 2.847 6.125 6.347 6.128h2.433v-2.627H6.352c-2.054-.002-3.725-1.571-3.725-3.498 0-1.746 1.395-3.233 3.241-3.463l1.168-.143-.019-1.194.001-.027-.001-.029v.001c.021-1.567 1.395-2.832 3.078-2.832.375.001.734.066 1.069.184l-.023-.007 1.113.377.494-1.072c.948-1.933 2.902-3.241 5.162-3.241h.071-.004c3.147 0 5.705 2.417 5.703 5.38a5.2 5.2 0 0 1-.104 1.032l.006-.034-.315 1.571h2.388c2.047.012 3.718 1.581 3.718 3.513s-1.672 3.494-3.735 3.494h-6.209l2.104-1.848-1.564-1.801-5.81 5.094 5.836 4.853 1.514-1.844-2.204-1.827h6.336c3.494 0 6.359-2.746 6.359-6.121 0-3.169-2.505-5.782-5.703-6.099z"/></svg>