<svg xmlns="http://www.w3.org/2000/svg" viewBox="0 0 32 32"><path fill="currentColor" d="M1.333 4v26.667h24V4zM0 2.667h26.667V32H0zM5.333 0H32v1.333H5.333zm25.334 0H32v29.333h-1.333zm-5.334 28h6v1.333h-6zm-20-28h1.333v3.333H5.333zM4 28h1.333v.667H4zm4 0h14.667v.667H8zM.667 24.667h24.667V26H.667zm9.351-12.669.1.914-.9-.189A2.667 2.667 0 1 0 8.666 18l8-.001a3.334 3.334 0 1 0-.12-6.664h.005l-.522.017-.142-.503a3 3 0 1 0-5.865 1.169l-.005-.021zM13 7.333a4.34 4.34 0 0 1 3.996 2.65l.011.028a4.67 4.67 0 0 1 4.325 4.654 4.67 4.67 0 0 1-4.664 4.667h-8a4 4 0 0 1 0-8 4.355 4.355 0 0 1 4.333-4zm3.667 12V18a3.334 3.334 0 1 0-2.519-5.516l-.004.004-1.008-.872a4.667 4.667 0 1 1 3.532 7.719z"/></svg>