<svg xmlns="http://www.w3.org/2000/svg" viewBox="0 0 32 32"><path fill="currentColor" d="m30.679 19.866-1.139.643-.037-1.947.331-.184a.4.4 0 0 1 .092-.055c.018 0 .037-.018.037-.037.294-.202.624-.533.386-.918l-.202-.331v-.018c-.018-.037-.037-.055-.055-.092l-.422-.735-.22-.404-.073-3.544 2.277 3.967c.716 1.304.294 2.938-.973 3.654zm-12.689 7.29-6.042 3.471a2.66 2.66 0 0 1-3.618-1.01l-1.267-2.204 1.928-.037.808 1.414c.257.459.845.624 1.285.367l3.305-1.891 3.599-.11zM2.638 19.719.361 15.752c-.735-1.285-.312-2.901.955-3.636l1.12-.643.037 1.947-.312.184a.95.95 0 0 0-.331 1.304l.716 1.267zM25.556 5.652l-1.928.037-1.414-2.479c-.257-.459-.845-.624-1.285-.367l-5.27 3.03-3.581.092 7.988-4.591a2.66 2.66 0 0 1 3.618 1.01l1.873 3.269zm-3.012 9.751a2.5 2.5 0 0 0 2.424-2.571c-.037-1.396-1.175-2.497-2.534-2.461-1.377.037-2.461 1.194-2.424 2.571s1.175 2.479 2.534 2.461m7.015 5.105-.037-1.947-.073-2.755-.073-3.544-.092-4.04c-.037-1.469-1.249-2.644-2.699-2.608l-1.01.018-1.947.055-18.658.441c-1.451.037-2.608 1.267-2.571 2.736l.055 2.626.037 1.947.073 2.736.073 3.544.11 5.123c.037 1.469 1.249 2.644 2.699 2.608l1.598-.037 1.928-.037 18.088-.422c1.451-.037 2.608-1.267 2.571-2.736l-.073-3.709zM5.006 7.837l3.948-.092 3.581-.092 14.067-.312c.514-.018.955.404.973.937l.018.918.073 3.544.165 6.795.037 1.947.037 1.781-1.304-1.047-1.432-1.157-3.232-2.626c-.037-.018-.073-.037-.11-.037s-.073.018-.092.018l-4.591 2.883-6.997-7.566c-.037-.037-.073-.055-.129-.055s-.092.018-.129.055l-5.564 5.766v-.239l-.165-6.776-.037-1.947-.037-1.708a.95.95 0 0 1 .918-.992z"/></svg>