<svg xmlns="http://www.w3.org/2000/svg" viewBox="0 0 32 32"><path fill="currentColor" d="m23.216 20.706-2.685 3.56a.846.846 0 0 1-1.35.004l-6.445-8.441a.848.848 0 0 0-1.293-.064L2.17 25.648l27.658-.046-5.36-5.002a.847.847 0 0 0-1.253.107zM2.171 24.595a.64.64 0 0 0 .461-.2l9.448-10.073 7.277 9.534a.63.63 0 0 0 1.006 0l3.503-4.642 5.534 5.167c.253.239.653.225.893-.032s.225-.657-.032-.893l-6.049-5.649c-.132-.121-.307-.182-.486-.168s-.343.107-.45.25l-3.421 4.538-7.223-9.466a.632.632 0 0 0-.964-.046L1.706 23.531a.632.632 0 0 0 .465 1.064M28.294 3.842H9.348a.63.63 0 1 0 0 1.264h18.946a2.443 2.443 0 0 1 2.439 2.442v16.903a2.445 2.445 0 0 1-2.439 2.442H3.707a2.445 2.445 0 0 1-2.442-2.442V7.548a.63.63 0 1 0-1.264 0v16.903a3.71 3.71 0 0 0 3.706 3.706h24.587A3.71 3.71 0 0 0 32 24.451V7.548a3.71 3.71 0 0 0-3.706-3.706M5.842 5.11h.971a.63.63 0 1 0 0-1.264h-.971a.63.63 0 1 0 0 1.264m-2.207 0h.071a.63.63 0 1 0 0-1.264h-.071a.63.63 0 1 0 0 1.264m23.755 6.28c0-2.042-1.664-3.706-3.706-3.706s-3.706 1.664-3.706 3.706 1.664 3.706 3.706 3.706 3.706-1.664 3.706-3.706m-6.148 0a2.445 2.445 0 0 1 2.439-2.442 2.443 2.443 0 0 1 .003 4.884 2.445 2.445 0 0 1-2.442-2.442"/></svg>