<svg xmlns="http://www.w3.org/2000/svg" viewBox="0 0 32 32"><path fill="currentColor" d="M7.475 13.916c1.175 0 2.129-.945 2.129-2.109S8.65 9.698 7.475 9.698s-2.129.945-2.129 2.109.954 2.109 2.129 2.109m-6.682 4.38c1.449 2.122 4.373 4.006 7.748 4.006a9.6 9.6 0 0 0 5.381-1.635l-.003.021c1.331-.892 3.664-4.082 3.77-4.047a7.45 7.45 0 0 1 5.761-2.724 7.47 7.47 0 0 1 6.097 3.142s.769 1.072 1.358 1.072c.586 0 1.063-.477 1.063-1.066v-.006H32c-.015-.03-.035-.056-.05-.086-.029-.321-.082-.361-.404-.859-1.691-2.613-4.653-4.296-8.019-4.325-.032-.003-.059-.006-.091-.006a9.65 9.65 0 0 0-5.369 1.635l.003-.024a9 9 0 0 0-1.334 1.075c-.993.978-2.412 3.205-2.542 3.131-1.367 1.587-3.378 2.615-5.652 2.615a7.47 7.47 0 0 1-6.105-3.157s-.413-1.061-1.352-1.057a1.07 1.07 0 0 0-1.063 1.057H.001c.009.018.021.032.029.05.015.365.57.904.763 1.187z"/></svg>