<svg xmlns="http://www.w3.org/2000/svg" viewBox="0 0 33 32"><path fill="currentColor" d="m31.347 6.666-.6-2.249C29.848 1.269 26.55-.68 23.402.22L5.413 5.017h.15C2.565 5.467.166 8.015.166 11.013v14.991C.166 29.302 2.864 32 6.162 32h20.987c3.298 0 5.996-2.698 5.996-5.996V11.013c0-1.649-.75-3.298-1.799-4.347zm-7.345-4.347c1.949-.45 4.047.75 4.497 2.698v.15c-.3-.15-.75-.15-1.349-.15H14.108zm6.895 23.685a3.71 3.71 0 0 1-3.748 3.748H6.162a3.71 3.71 0 0 1-3.748-3.748V11.013a3.71 3.71 0 0 1 3.748-3.748h20.987a3.71 3.71 0 0 1 3.748 3.748zm-8.544-7.645c-.6-.6-1.649-.6-2.249 0l-1.199 1.499-3.898-5.547c-.6-.75-1.949-.75-2.399 0L4.963 25.254c-.3.45-.3 1.049-.15 1.499s.75.75 1.199.75h20.987q.9 0 1.349-.899c.449-.899.15-1.199-.15-1.649l-5.846-6.596zM7.512 25.254l6.146-8.844 3.298 4.647q.674.9 1.799.899c1.125-.001 1.349-.3 1.799-.75l.75-.75 4.047 4.797zm17.389-15.74c-2.099 0-3.748 1.649-3.748 3.748s1.649 3.748 3.748 3.748 3.748-1.649 3.748-3.748S27 9.514 24.901 9.514m0 5.247c-.899 0-1.499-.6-1.499-1.499s.6-1.499 1.499-1.499 1.499.6 1.499 1.499-.6 1.499-1.499 1.499"/></svg>