<svg xmlns="http://www.w3.org/2000/svg" viewBox="0 0 32 32"><path fill="currentColor" d="M32 16a1.455 1.455 0 0 1-2.91 0c0-7.23-5.861-13.091-13.091-13.091a1.455 1.455 0 0 1 0-2.91c8.837 0 16 7.163 16 16zM8.032 2.122a1.454 1.454 0 1 1 1.45 2.522A13.08 13.08 0 0 0 2.908 16c0 2.316.601 4.54 1.727 6.503a1.453 1.453 0 1 1-2.523 1.447A15.93 15.93 0 0 1 0 15.999 15.99 15.99 0 0 1 8.032 2.121zm-.084 27.707a1.454 1.454 0 1 1 1.466-2.512A13 13 0 0 0 16 29.092c4.717 0 8.995-2.515 11.324-6.519a1.455 1.455 0 0 1 2.515 1.463A15.99 15.99 0 0 1 16 32.001c-2.867 0-5.628-.757-8.052-2.171zM16 23.273a7.273 7.273 0 1 1 0-14.546 7.273 7.273 0 1 1 0 14.546"/></svg>