<svg xmlns="http://www.w3.org/2000/svg" viewBox="0 0 32 32"><path fill="currentColor" d="M10.11 31.998c-.191 0-.379-.044-.551-.128a1.24 1.24 0 0 1-.682-1.102v-4.635C3.456 23.814.001 19.05.001 13.786c0-7.603 7.177-13.784 16-13.784s16 6.185 16 13.784c0 7.48-6.951 13.587-15.581 13.778l-5.568 4.188c-.216.16-.476.247-.742.247zM16 2.462c-7.465 0-13.537 5.08-13.537 11.321 0 4.479 3.171 8.545 8.075 10.36.482.178.804.639.804 1.155V28.3l3.919-2.948c.213-.16.473-.247.739-.247 7.465 0 13.537-5.08 13.537-11.321S23.465 2.463 16 2.463zm-.776 19.38c-4.466 0-8.11-2.676-9.743-7.161l2.889-1.055c1.189 3.264 3.687 5.139 6.851 5.139v3.077zm0 0"/></svg>