<svg xmlns="http://www.w3.org/2000/svg" viewBox="0 0 32 32"><path fill="currentColor" d="M16 32C7.187 32 0 24.813 0 16 0 7.168 7.187 0 16 0c8.832 0 16 7.187 16 16s-7.168 16-16 16M3.936 8.597A14.1 14.1 0 0 0 1.841 16c0 7.794 6.345 14.14 14.14 14.14 1.998 0 3.936-.411 5.758-1.214l2.624-1.175-.313-.098.646-.509a14.07 14.07 0 0 0 5.425-11.143c0-1.469-.235-2.938-.685-4.328l-.137-.431-.411-.215c-.607-.313-1.293-.352-1.763-.352-.352 0-.705.02-1.058.039-.333.02-.646.039-.94.039-.333 0-.587-.02-.764-.078.039-.235.255-.666.627-1.253.059-.098.117-.176.157-.255.392-.685.529-1.939.568-2.585l.333-.548-.685-.627a14.134 14.134 0 0 0-20.25 1.528l-.078-.157-.627.999-.47.823zM21.66 26.849c-1.704-.548-5.816-2.154-7.383-5.092-.157-.313-.783-.999-1.625-1.058-1.097-.098-5.934-1.958-6.423-3.094-.96-2.213-1.528-5.307-.333-7.422a1.6 1.6 0 0 0 .176-.94c0-.039-.02-.098-.039-.157a4.3 4.3 0 0 0 1.625.333c1.058 0 2.056-.411 2.898-1.195 1.175-1.097 1.684-1.332 1.9-1.332.02 0 .02 0 .039.02.333.176.881 1.214.352 2.37-1.155 2.526-.666 3.897.059 4.622-1.097.098-2.468.47-2.996 1.645-.352.803-.411 1.782-.137 2.683.294.999.96 1.782 1.802 2.154.372.176.783.255 1.214.255 1.449 0 3.016-.92 4.23-1.704 1.136-.744 3.662-1.743 4.739-1.763.274.823.235 3.27.215 4.23 0 .705-.02 1.195.02 1.508.078.764.333 2.683 1.077 3.897l.352.587-1.763-.548z"/></svg>