<svg xmlns="http://www.w3.org/2000/svg" viewBox="0 0 32 32"><path fill="currentColor" d="M15.996 24.08c-.178 0-.36-.047-.524-.138l-.455-.255a39 39 0 0 1-3.429-2.182c-1.036-.745-1.876-1.447-2.498-2.091-1.022-1.062-1.516-2.044-1.516-3.004V8.028c0-.589.476-1.065 1.065-1.065h.858c.393 0 .709-.171 1.382-.56 1.084-.622 2.56-1.469 5.116-1.469 2.571 0 4.069.855 5.164 1.476l1.524.553h.669c.589 0 1.065.476 1.065 1.065v8.378c0 .96-.495 1.942-1.516 3.004-.618.644-1.458 1.349-2.495 2.091a39 39 0 0 1-3.429 2.182l-.465.262a1 1 0 0 1-.516.135M9.709 9.091v7.32c0 .211.12.695.92 1.524.531.553 1.273 1.167 2.2 1.836A38 38 0 0 0 16 21.793a39 39 0 0 0 3.175-2.022c.931-.665 1.669-1.284 2.196-1.833.804-.833.92-1.313.92-1.524V9.076a1 1 0 0 1-.164-.047l-1.865-.691c-1.142-.633-2.258-1.269-4.265-1.269-1.989 0-3.084.629-4.047 1.182-.705.407-1.367.785-2.24.84zM16 19.735a1.064 1.064 0 0 1-1.065-1.065v-3.029a1.064 1.064 0 1 1 2.13 0v3.029c0 .585-.476 1.065-1.065 1.065m0-3.273c-1.975 0-3.578-1.604-3.578-3.578S14.029 9.306 16 9.306s3.578 1.604 3.578 3.578-1.604 3.578-3.578 3.578m0-5.026a1.446 1.446 0 1 0-.002 2.89 1.446 1.446 0 0 0 .002-2.89m12.8 15.942H3.2a3.204 3.204 0 0 1-3.2-3.2V3.247c0-1.764 1.436-3.2 3.2-3.2h25.6c1.764 0 3.2 1.436 3.2 3.2v20.931c0 1.767-1.436 3.2-3.2 3.2M3.2 2.182c-.589 0-1.065.476-1.065 1.065v20.931c0 .589.476 1.065 1.065 1.065h25.6c.589 0 1.065-.48 1.065-1.065V3.247c0-.589-.48-1.065-1.065-1.065zm23.309 29.771H3.025c-1.669 0-3.025-1.436-3.025-3.2v-4.855h2.135v4.851c0 .578.407 1.065.891 1.065H26.51c.48 0 .891-.487.891-1.065v-3.047h2.135v3.047c-.004 1.767-1.36 3.204-3.025 3.204z"/></svg>