<svg xmlns="http://www.w3.org/2000/svg" viewBox="0 0 32 32"><path fill="currentColor" d="M8.279 2.667c.307 0 .6.133.801.364l2.02 2.303 14.805.112c.586.005 1.059.48 1.059 1.067v16.553c0 .589-.478 1.067-1.067 1.067l-24.836-.109A1.066 1.066 0 0 1 0 22.957V3.734c0-.589.478-1.067 1.067-1.067zm-.726 2.666H2.666v16.028l21.629.097V8.098L9.882 7.99l-.788-.9zM32 12.251v16.267a.533.533 0 0 1-.533.533H8.534a.533.533 0 0 1-.533-.533v-1.6c0-.293.24-.533.533-.533h20.353a.533.533 0 0 0 .533-.533l.001-13.6c0-.293.24-.533.533-.533h1.512c.293 0 .533.24.533.533z"/></svg>