<svg xmlns="http://www.w3.org/2000/svg" viewBox="0 0 32 32"><path fill="currentColor" d="M24 0H8a8 8 0 0 0-8 8v16a8 8 0 0 0 8 8h16a8 8 0 0 0 8-8V8a8 8 0 0 0-8-8m5.333 24A5.333 5.333 0 0 1 24 29.333H8A5.333 5.333 0 0 1 2.667 24V8A5.333 5.333 0 0 1 8 2.667h16A5.333 5.333 0 0 1 29.333 8zm-5.16-10.2a1.333 1.333 0 0 0-1.823.474l-.003.006C17.534 22.48 8.614 19.2 8.2 19.027a1.346 1.346 0 0 0-1.538 2.21l.004.003c1.665.803 3.62 1.273 5.685 1.273q.215 0 .429-.007l-.021.001a15 15 0 0 0 3.017-.31l-.097.017a13.13 13.13 0 0 0 8.886-6.519l.034-.068a1.335 1.335 0 0 0-.421-1.824zm-14.84-2.467a2 2 0 1 0 4 0 2 2 0 1 0-4 0"/></svg>