<svg xmlns="http://www.w3.org/2000/svg" viewBox="0 0 32 32"><path fill="currentColor" d="M14.177 29.164H6.076c-2.555 0-3.646-1.09-3.646-3.646V6.075c0-2.555 1.09-3.646 3.646-3.646h8.506v3.646c0 3.918 2.158 6.076 6.076 6.076h3.646v3.646a1.215 1.215 0 0 0 2.43 0v-4.862c0-.335-.136-.639-.356-.858L16.656.355a1.2 1.2 0 0 0-.859-.356H6.075c-3.918 0-6.076 2.158-6.076 6.076v19.443c0 3.918 2.158 6.076 6.076 6.076h8.101a1.215 1.215 0 0 0 0-2.43zm2.836-23.088V4.15l5.572 5.572h-1.927c-2.555 0-3.646-1.09-3.646-3.646zm-8.102 9.721a1.215 1.215 0 0 1-2.43 0 1.215 1.215 0 0 1 2.43 0m0 6.481a1.215 1.215 0 0 1-2.43 0 1.215 1.215 0 0 1 2.43 0m10.127-7.696a1.215 1.215 0 0 1 0 2.43h-7.291a1.215 1.215 0 0 1 0-2.43zm-3.646 7.696c0 .671-.544 1.215-1.215 1.215h-2.43a1.215 1.215 0 0 1 0-2.43h2.43c.671 0 1.215.544 1.215 1.215m2.026 4.051c0-3.091 2.448-5.671 5.561-5.671 1.421 0 2.714.544 3.689 1.429.238.215.459.454.658.706l.152-.002c2.537 0 4.522 2.103 4.522 4.603 0 2.502-1.985 4.605-4.522 4.605h-4.499c-3.111 0-5.561-2.579-5.561-5.671zm5.56-3.574c-1.857 0-3.435 1.559-3.435 3.574s1.578 3.574 3.435 3.574h4.499c1.282 0 2.398-1.082 2.398-2.508 0-1.424-1.116-2.506-2.398-2.506q-.239 0-.468.044l-.737.143-.381-.638a3.6 3.6 0 0 0-.658-.803l-.003-.003a3.33 3.33 0 0 0-2.252-.877"/></svg>