<svg xmlns="http://www.w3.org/2000/svg" viewBox="0 0 32 32"><path fill="currentColor" d="M5.819 10.183q0-4.218 2.983-7.201 2.981-2.983 7.199-2.983T23.2 2.982q2.983 2.983 2.983 7.202 0 1.208-.244 2.317 2.463 1.074 4.098 3.303 1.964 2.682 1.964 6.012 0 4.22-2.983 7.201Q26.037 32 21.819 32q-3.252 0-5.81-1.813Q13.47 32 10.183 32q-4.218 0-7.199-2.981Q.001 26.034.001 21.817q0-3.341 1.974-6.025 1.633-2.22 4.09-3.291-.246-1.109-.246-2.317zm1.301 5.033q-1.674.766-2.802 2.298Q2.91 19.43 2.91 21.819q0 3.012 2.129 5.139 2.131 2.133 5.143 2.133 2.771 0 4.796-1.804.045-.045.093-.085l.002-.002q.126-.116.252-.24 2.129-2.129 2.129-5.143 0-.782-.159-1.526-.632.072-1.295.072-4.218 0-7.199-2.981-1.012-1.012-1.681-2.166m12.987 4.316q.256 1.117.256 2.284 0 3.607-2.182 6.31 1.633.962 3.636.962 3.012 0 5.143-2.129 2.129-2.131 2.129-5.143 0-2.381-1.402-4.294-1.129-1.54-2.808-2.308-.669 1.154-1.681 2.166-1.408 1.408-3.091 2.153zM8.728 10.185q0 3.012 2.129 5.141 2.131 2.131 5.143 2.131t5.143-2.131q2.129-2.131 2.129-5.141 0-3.014-2.129-5.143Q19.012 2.909 16 2.909T10.857 5.04q-2.129 2.129-2.129 5.143z"/></svg>