<svg xmlns="http://www.w3.org/2000/svg" viewBox="0 0 32 32"><path fill="currentColor" d="M29.056 6.359H16.681a1.455 1.455 0 0 1-1.454-1.414l.001.011-.001-.051v.005h-.003a2.91 2.91 0 0 0-2.895-2.617H2.874A2.91 2.91 0 0 0-.035 5.202v21.521a2.91 2.91 0 0 0 2.909 2.909h26.182a2.91 2.91 0 0 0 2.909-2.909V9.269a2.91 2.91 0 0 0-2.909-2.909zm1.455 20.363c0 .803-.651 1.455-1.455 1.455H2.874a1.455 1.455 0 0 1-1.455-1.455V10.723H30.51v15.999zM1.42 9.268V5.201c0-.803.651-1.454 1.455-1.454h9.455c.752 0 1.37.57 1.447 1.302l.007.102.001.051h.003a2.91 2.91 0 0 0 2.894 2.612h12.375c.803 0 1.455.651 1.455 1.454zm3.995 12.995 3.251-3.251 5.506 3.838a1 1 0 0 0 .175.123l.005.002 5.179 3.61c.832.58 1.172.346 1.445-.046s.376-.791-.457-1.371l-4.433-3.09 2.426-2.426 1.178.955c.188.153.817.164 1.117-.207s.16-.983-.029-1.136L18.96 17.79a.3.3 0 0 0-.083-.047c-.325-.193-.735-.165-.997.097l-3.234 3.234-5.316-3.705a3 3 0 0 0-.291-.181.9.9 0 0 0-.429-.158.6.6 0 0 0-.419.073.8.8 0 0 0-.206.145l-3.793 3.793c-.313.313-.294.841.043 1.178s.865.357 1.178.043zm18.959-3.653a3.368 3.368 0 1 0 0-6.736 3.368 3.368 0 0 0 0 6.736m0-5.342a1.974 1.974 0 1 1 0 3.949 1.974 1.974 0 0 1 0-3.949"/></svg>