<svg xmlns="http://www.w3.org/2000/svg" version="1.1" xmlns:xlink="http://www.w3.org/1999/xlink" xmlns:svgjs="http://svgjs.dev/svgjs" width="1920" height="120" preserveAspectRatio="none" viewBox="0 0 1920 120" style="
    background: #fff;
">
    <g mask="url(&quot;#SvgjsMask1011&quot;)" fill="none">
        <path d="M896.172812772963 132.0485147029546L917.5751505335891 119.18869278746786 904.7153286181024 97.78635502684176 883.3129908574763 110.6461769423285z" fill="rgba(228, 233, 237, 0.3)" class="triangle-float2"></path>
        <path d="M873.184,58.752C880.288,58.436,886.502,54.249,889.952,48.031C893.297,42.003,893.053,34.832,889.839,28.733C886.368,22.145,880.626,16.454,873.184,16.205C865.372,15.943,858.424,20.803,854.476,27.549C850.485,34.369,849.55,42.872,853.613,49.649C857.578,56.262,865.481,59.095,873.184,58.752" fill="rgba(228, 233, 237, 0.3)" class="triangle-float2"></path>
        <path d="M1283.773,142.507C1294.6,141.824,1302.557,133.669,1308.109,124.35C1313.837,114.736,1318.529,103.156,1313.021,93.414C1307.455,83.57,1295.047,80.416,1283.773,81.308C1273.991,82.082,1266.935,89.264,1261.576,97.485C1255.455,106.875,1248.514,117.741,1253.47,127.795C1258.791,138.589,1271.763,143.264,1283.773,142.507" fill="rgba(228, 233, 237, 0.3)" class="triangle-float1"></path>
        <path d="M381.1781045132694 91.44743239459208L367.1872022578127 73.53989412588908 349.27966398910974 87.53079638134572 363.2705662445664 105.43833465004873z" fill="rgba(228, 233, 237, 0.3)" class="triangle-float2"></path>
        <path d="M306.158,12.323C309.876,12.571,313.574,10.743,315.402,7.496C317.201,4.301,316.441,0.456,314.64,-2.738C312.801,-6,309.902,-8.805,306.158,-8.899C302.273,-8.997,298.582,-6.689,296.902,-3.185C295.393,-0.038,297.038,3.394,298.827,6.391C300.554,9.284,302.796,12.099,306.158,12.323" fill="rgba(228, 233, 237, 0.3)" class="triangle-float1"></path>
        <path d="M332.4334082879866 74.6250278283274L309.0430319180374 52.8131489929119 287.23115308262186 76.2035253628611 310.6215294525711 98.01540419827661z" fill="rgba(228, 233, 237, 0.3)" class="triangle-float2"></path>
        <path d="M174.111610274426 103.90583535405288L187.93074210918053 88.03930749341335 169.93970730469226 84.21519499448561z" fill="rgba(228, 233, 237, 0.3)" class="triangle-float1"></path>
        <path d="M1888.7627590940785 121.83205425389397L1899.4863746181966 100.83526621322213 1878.889180940086 101.55453606583231z" fill="rgba(228, 233, 237, 0.3)" class="triangle-float1"></path>
        <path d="M808.619,86.047C813.633,86.053,817.794,82.429,820.103,77.978C822.23,73.878,821.678,69.139,819.502,65.065C817.169,60.696,813.572,56.456,808.619,56.476C803.689,56.496,800.204,60.801,797.887,65.152C795.734,69.194,795.09,73.877,797.182,77.951C799.469,82.404,803.613,86.041,808.619,86.047" fill="rgba(228, 233, 237, 0.3)" class="triangle-float1"></path>
        <path d="M484.8617257727675 75.43740110257686L493.97062670344843 91.2144803156276 509.74770591649917 82.1055793849467 500.63880498581824 66.32850017189595z" fill="rgba(228, 233, 237, 0.3)" class="triangle-float1"></path>
        <path d="M174.1172645572094 91.80368551836725L159.43607287321234 97.43926699731475 175.23004093363213 116.64326378383657z" fill="rgba(228, 233, 237, 0.3)" class="triangle-float1"></path>
        <path d="M1169.877191055362 44.92038786591354L1196.5994979706027 60.97676974084957 1212.6558798455387 34.2544628256088 1185.933572930298 18.198080950672765z" fill="rgba(228, 233, 237, 0.3)" class="triangle-float3"></path>
        <path d="M-14.108015341968121 13.455834166128177L-9.963445284678235 42.94598246406873 19.526703013262313 38.80141240677884 15.382132955972429 9.31126410883829z" fill="rgba(228, 233, 237, 0.3)" class="triangle-float1"></path>
        <path d="M1535.741,61.565C1544.96,60.938,1550.474,52.434,1555.134,44.455C1559.854,36.374,1565.027,27.147,1560.684,18.858C1556.136,10.176,1545.542,7.379,1535.741,7.438C1526.061,7.496,1516.376,10.904,1511.31,19.153C1506.02,27.766,1506.125,38.686,1511.17,47.445C1516.224,56.218,1525.639,62.252,1535.741,61.565" fill="rgba(228, 233, 237, 0.3)" class="triangle-float2"></path>
        <path d="M1510.1780287525785 53.3383206257319L1487.923244684367 45.238241654881286 1479.8231657135166 67.4930257230926 1502.077949781728 75.59310469394322z" fill="rgba(228, 233, 237, 0.3)" class="triangle-float3"></path>
        <path d="M457.29410500740295-6.100520641648989L428.9564474855196-11.608803270991467 451.78582237806046 22.237136880234353z" fill="rgba(228, 233, 237, 0.3)" class="triangle-float1"></path>
        <path d="M52.506,41.978C55.992,42.048,58.953,39.453,60.445,36.301C61.75,33.544,60.821,30.436,59.193,27.857C57.694,25.483,55.314,23.746,52.506,23.726C49.664,23.705,47.117,25.325,45.648,27.758C44.124,30.282,43.82,33.338,45.101,35.993C46.579,39.057,49.105,41.91,52.506,41.978" fill="rgba(228, 233, 237, 0.3)" class="triangle-float2"></path>
        <path d="M1091.85511425167 19.7528468839592L1076.7762083034445 32.86073984552995 1104.9630072132409 34.831752832184826z" fill="rgba(228, 233, 237, 0.3)" class="triangle-float1"></path>
        <path d="M1698.0670528542048 25.808970298758528L1711.5559231441289 45.07307351651661 1730.8200263618871 31.58420322659246 1717.3311560719628 12.32010000883438z" fill="rgba(228, 233, 237, 0.3)" class="triangle-float3"></path>
        <path d="M154.17,15.711C157.939,15.779,161.434,13.606,163.22,10.286C164.921,7.124,164.299,3.36,162.482,0.263C160.69,-2.792,157.712,-5.134,154.17,-5.141C150.617,-5.148,147.541,-2.869,145.799,0.228C144.092,3.262,144.012,6.908,145.668,9.97C147.411,13.194,150.506,15.645,154.17,15.711" fill="rgba(228, 233, 237, 0.3)" class="triangle-float1"></path>
    </g>
    <defs>
        <mask id="SvgjsMask1011">
            <rect width="1920" height="120" fill="#ffffff"></rect>
        </mask>
        <style>
            @keyframes float1 {
                    0%{transform: translate(0, 0)}
                    50%{transform: translate(-10px, 0)}
                    100%{transform: translate(0, 0)}
                }

                .triangle-float1 {
                    animation: float1 5s infinite;
                }

                @keyframes float2 {
                    0%{transform: translate(0, 0)}
                    50%{transform: translate(-5px, -5px)}
                    100%{transform: translate(0, 0)}
                }

                .triangle-float2 {
                    animation: float2 4s infinite;
                }

                @keyframes float3 {
                    0%{transform: translate(0, 0)}
                    50%{transform: translate(0, -10px)}
                    100%{transform: translate(0, 0)}
                }

                .triangle-float3 {
                    animation: float3 6s infinite;
                }
        </style>
    </defs>
</svg>